G04 #@! TF.GenerationSoftware,KiCad,Pcbnew,5.0.2+dfsg1-1*
G04 #@! TF.CreationDate,2020-08-23T12:27:17+02:00*
G04 #@! TF.ProjectId,programmer,70726f67-7261-46d6-9d65-722e6b696361,rev?*
G04 #@! TF.SameCoordinates,Original*
G04 #@! TF.FileFunction,Soldermask,Bot*
G04 #@! TF.FilePolarity,Negative*
%FSLAX46Y46*%
G04 Gerber Fmt 4.6, Leading zero omitted, Abs format (unit mm)*
G04 Created by KiCad (PCBNEW 5.0.2+dfsg1-1) date Sun 23 Aug 2020 12:27:17 PM CEST*
%MOMM*%
%LPD*%
G01*
G04 APERTURE LIST*
%ADD10C,0.100000*%
G04 APERTURE END LIST*
D10*
G36*
X202410721Y-127700174D02*
X202510995Y-127741709D01*
X202601245Y-127802012D01*
X202677988Y-127878755D01*
X202738291Y-127969005D01*
X202779826Y-128069279D01*
X202801000Y-128175730D01*
X202801000Y-128284270D01*
X202779826Y-128390721D01*
X202738291Y-128490995D01*
X202677988Y-128581245D01*
X202601245Y-128657988D01*
X202510995Y-128718291D01*
X202410721Y-128759826D01*
X202304270Y-128781000D01*
X202195730Y-128781000D01*
X202089279Y-128759826D01*
X201989005Y-128718291D01*
X201898755Y-128657988D01*
X201822012Y-128581245D01*
X201761709Y-128490995D01*
X201720174Y-128390721D01*
X201699000Y-128284270D01*
X201699000Y-128175730D01*
X201720174Y-128069279D01*
X201761709Y-127969005D01*
X201822012Y-127878755D01*
X201898755Y-127802012D01*
X201989005Y-127741709D01*
X202089279Y-127700174D01*
X202195730Y-127679000D01*
X202304270Y-127679000D01*
X202410721Y-127700174D01*
X202410721Y-127700174D01*
G37*
G36*
X206810721Y-127700174D02*
X206910995Y-127741709D01*
X207001245Y-127802012D01*
X207077988Y-127878755D01*
X207138291Y-127969005D01*
X207179826Y-128069279D01*
X207201000Y-128175730D01*
X207201000Y-128284270D01*
X207179826Y-128390721D01*
X207138291Y-128490995D01*
X207077988Y-128581245D01*
X207001245Y-128657988D01*
X206910995Y-128718291D01*
X206810721Y-128759826D01*
X206704270Y-128781000D01*
X206595730Y-128781000D01*
X206489279Y-128759826D01*
X206389005Y-128718291D01*
X206298755Y-128657988D01*
X206222012Y-128581245D01*
X206161709Y-128490995D01*
X206120174Y-128390721D01*
X206099000Y-128284270D01*
X206099000Y-128175730D01*
X206120174Y-128069279D01*
X206161709Y-127969005D01*
X206222012Y-127878755D01*
X206298755Y-127802012D01*
X206389005Y-127741709D01*
X206489279Y-127700174D01*
X206595730Y-127679000D01*
X206704270Y-127679000D01*
X206810721Y-127700174D01*
X206810721Y-127700174D01*
G37*
G36*
X239810721Y-127700174D02*
X239910995Y-127741709D01*
X240001245Y-127802012D01*
X240077988Y-127878755D01*
X240138291Y-127969005D01*
X240179826Y-128069279D01*
X240201000Y-128175730D01*
X240201000Y-128284270D01*
X240179826Y-128390721D01*
X240138291Y-128490995D01*
X240077988Y-128581245D01*
X240001245Y-128657988D01*
X239910995Y-128718291D01*
X239810721Y-128759826D01*
X239704270Y-128781000D01*
X239595730Y-128781000D01*
X239489279Y-128759826D01*
X239389005Y-128718291D01*
X239298755Y-128657988D01*
X239222012Y-128581245D01*
X239161709Y-128490995D01*
X239120174Y-128390721D01*
X239099000Y-128284270D01*
X239099000Y-128175730D01*
X239120174Y-128069279D01*
X239161709Y-127969005D01*
X239222012Y-127878755D01*
X239298755Y-127802012D01*
X239389005Y-127741709D01*
X239489279Y-127700174D01*
X239595730Y-127679000D01*
X239704270Y-127679000D01*
X239810721Y-127700174D01*
X239810721Y-127700174D01*
G37*
G36*
X169410721Y-127700174D02*
X169510995Y-127741709D01*
X169601245Y-127802012D01*
X169677988Y-127878755D01*
X169738291Y-127969005D01*
X169779826Y-128069279D01*
X169801000Y-128175730D01*
X169801000Y-128284270D01*
X169779826Y-128390721D01*
X169738291Y-128490995D01*
X169677988Y-128581245D01*
X169601245Y-128657988D01*
X169510995Y-128718291D01*
X169410721Y-128759826D01*
X169304270Y-128781000D01*
X169195730Y-128781000D01*
X169089279Y-128759826D01*
X168989005Y-128718291D01*
X168898755Y-128657988D01*
X168822012Y-128581245D01*
X168761709Y-128490995D01*
X168720174Y-128390721D01*
X168699000Y-128284270D01*
X168699000Y-128175730D01*
X168720174Y-128069279D01*
X168761709Y-127969005D01*
X168822012Y-127878755D01*
X168898755Y-127802012D01*
X168989005Y-127741709D01*
X169089279Y-127700174D01*
X169195730Y-127679000D01*
X169304270Y-127679000D01*
X169410721Y-127700174D01*
X169410721Y-127700174D01*
G37*
G36*
X173810721Y-127700174D02*
X173910995Y-127741709D01*
X174001245Y-127802012D01*
X174077988Y-127878755D01*
X174138291Y-127969005D01*
X174179826Y-128069279D01*
X174201000Y-128175730D01*
X174201000Y-128284270D01*
X174179826Y-128390721D01*
X174138291Y-128490995D01*
X174077988Y-128581245D01*
X174001245Y-128657988D01*
X173910995Y-128718291D01*
X173810721Y-128759826D01*
X173704270Y-128781000D01*
X173595730Y-128781000D01*
X173489279Y-128759826D01*
X173389005Y-128718291D01*
X173298755Y-128657988D01*
X173222012Y-128581245D01*
X173161709Y-128490995D01*
X173120174Y-128390721D01*
X173099000Y-128284270D01*
X173099000Y-128175730D01*
X173120174Y-128069279D01*
X173161709Y-127969005D01*
X173222012Y-127878755D01*
X173298755Y-127802012D01*
X173389005Y-127741709D01*
X173489279Y-127700174D01*
X173595730Y-127679000D01*
X173704270Y-127679000D01*
X173810721Y-127700174D01*
X173810721Y-127700174D01*
G37*
G36*
X235410721Y-127700174D02*
X235510995Y-127741709D01*
X235601245Y-127802012D01*
X235677988Y-127878755D01*
X235738291Y-127969005D01*
X235779826Y-128069279D01*
X235801000Y-128175730D01*
X235801000Y-128284270D01*
X235779826Y-128390721D01*
X235738291Y-128490995D01*
X235677988Y-128581245D01*
X235601245Y-128657988D01*
X235510995Y-128718291D01*
X235410721Y-128759826D01*
X235304270Y-128781000D01*
X235195730Y-128781000D01*
X235089279Y-128759826D01*
X234989005Y-128718291D01*
X234898755Y-128657988D01*
X234822012Y-128581245D01*
X234761709Y-128490995D01*
X234720174Y-128390721D01*
X234699000Y-128284270D01*
X234699000Y-128175730D01*
X234720174Y-128069279D01*
X234761709Y-127969005D01*
X234822012Y-127878755D01*
X234898755Y-127802012D01*
X234989005Y-127741709D01*
X235089279Y-127700174D01*
X235195730Y-127679000D01*
X235304270Y-127679000D01*
X235410721Y-127700174D01*
X235410721Y-127700174D01*
G37*
G36*
X197067142Y-107168242D02*
X197215102Y-107229530D01*
X197348258Y-107318502D01*
X197461498Y-107431742D01*
X197550470Y-107564898D01*
X197611758Y-107712858D01*
X197643000Y-107869925D01*
X197643000Y-108030075D01*
X197611758Y-108187142D01*
X197550470Y-108335102D01*
X197461498Y-108468258D01*
X197348258Y-108581498D01*
X197215102Y-108670470D01*
X197067142Y-108731758D01*
X196910075Y-108763000D01*
X196749925Y-108763000D01*
X196592858Y-108731758D01*
X196444898Y-108670470D01*
X196311742Y-108581498D01*
X196198502Y-108468258D01*
X196109530Y-108335102D01*
X196048242Y-108187142D01*
X196017000Y-108030075D01*
X196017000Y-107869925D01*
X196048242Y-107712858D01*
X196109530Y-107564898D01*
X196198502Y-107431742D01*
X196311742Y-107318502D01*
X196444898Y-107229530D01*
X196592858Y-107168242D01*
X196749925Y-107137000D01*
X196910075Y-107137000D01*
X197067142Y-107168242D01*
X197067142Y-107168242D01*
G37*
G36*
X245307142Y-107168242D02*
X245455102Y-107229530D01*
X245588258Y-107318502D01*
X245701498Y-107431742D01*
X245790470Y-107564898D01*
X245851758Y-107712858D01*
X245883000Y-107869925D01*
X245883000Y-108030075D01*
X245851758Y-108187142D01*
X245790470Y-108335102D01*
X245701498Y-108468258D01*
X245588258Y-108581498D01*
X245455102Y-108670470D01*
X245307142Y-108731758D01*
X245150075Y-108763000D01*
X244989925Y-108763000D01*
X244832858Y-108731758D01*
X244684898Y-108670470D01*
X244551742Y-108581498D01*
X244438502Y-108468258D01*
X244349530Y-108335102D01*
X244288242Y-108187142D01*
X244257000Y-108030075D01*
X244257000Y-107869925D01*
X244288242Y-107712858D01*
X244349530Y-107564898D01*
X244438502Y-107431742D01*
X244551742Y-107318502D01*
X244684898Y-107229530D01*
X244832858Y-107168242D01*
X244989925Y-107137000D01*
X245150075Y-107137000D01*
X245307142Y-107168242D01*
X245307142Y-107168242D01*
G37*
G36*
X230067142Y-107168242D02*
X230215102Y-107229530D01*
X230348258Y-107318502D01*
X230461498Y-107431742D01*
X230550470Y-107564898D01*
X230611758Y-107712858D01*
X230643000Y-107869925D01*
X230643000Y-108030075D01*
X230611758Y-108187142D01*
X230550470Y-108335102D01*
X230461498Y-108468258D01*
X230348258Y-108581498D01*
X230215102Y-108670470D01*
X230067142Y-108731758D01*
X229910075Y-108763000D01*
X229749925Y-108763000D01*
X229592858Y-108731758D01*
X229444898Y-108670470D01*
X229311742Y-108581498D01*
X229198502Y-108468258D01*
X229109530Y-108335102D01*
X229048242Y-108187142D01*
X229017000Y-108030075D01*
X229017000Y-107869925D01*
X229048242Y-107712858D01*
X229109530Y-107564898D01*
X229198502Y-107431742D01*
X229311742Y-107318502D01*
X229444898Y-107229530D01*
X229592858Y-107168242D01*
X229749925Y-107137000D01*
X229910075Y-107137000D01*
X230067142Y-107168242D01*
X230067142Y-107168242D01*
G37*
G36*
X212307142Y-107168242D02*
X212455102Y-107229530D01*
X212588258Y-107318502D01*
X212701498Y-107431742D01*
X212790470Y-107564898D01*
X212851758Y-107712858D01*
X212883000Y-107869925D01*
X212883000Y-108030075D01*
X212851758Y-108187142D01*
X212790470Y-108335102D01*
X212701498Y-108468258D01*
X212588258Y-108581498D01*
X212455102Y-108670470D01*
X212307142Y-108731758D01*
X212150075Y-108763000D01*
X211989925Y-108763000D01*
X211832858Y-108731758D01*
X211684898Y-108670470D01*
X211551742Y-108581498D01*
X211438502Y-108468258D01*
X211349530Y-108335102D01*
X211288242Y-108187142D01*
X211257000Y-108030075D01*
X211257000Y-107869925D01*
X211288242Y-107712858D01*
X211349530Y-107564898D01*
X211438502Y-107431742D01*
X211551742Y-107318502D01*
X211684898Y-107229530D01*
X211832858Y-107168242D01*
X211989925Y-107137000D01*
X212150075Y-107137000D01*
X212307142Y-107168242D01*
X212307142Y-107168242D01*
G37*
G36*
X164067142Y-107168242D02*
X164215102Y-107229530D01*
X164348258Y-107318502D01*
X164461498Y-107431742D01*
X164550470Y-107564898D01*
X164611758Y-107712858D01*
X164643000Y-107869925D01*
X164643000Y-108030075D01*
X164611758Y-108187142D01*
X164550470Y-108335102D01*
X164461498Y-108468258D01*
X164348258Y-108581498D01*
X164215102Y-108670470D01*
X164067142Y-108731758D01*
X163910075Y-108763000D01*
X163749925Y-108763000D01*
X163592858Y-108731758D01*
X163444898Y-108670470D01*
X163311742Y-108581498D01*
X163198502Y-108468258D01*
X163109530Y-108335102D01*
X163048242Y-108187142D01*
X163017000Y-108030075D01*
X163017000Y-107869925D01*
X163048242Y-107712858D01*
X163109530Y-107564898D01*
X163198502Y-107431742D01*
X163311742Y-107318502D01*
X163444898Y-107229530D01*
X163592858Y-107168242D01*
X163749925Y-107137000D01*
X163910075Y-107137000D01*
X164067142Y-107168242D01*
X164067142Y-107168242D01*
G37*
G36*
X179307142Y-107168242D02*
X179455102Y-107229530D01*
X179588258Y-107318502D01*
X179701498Y-107431742D01*
X179790470Y-107564898D01*
X179851758Y-107712858D01*
X179883000Y-107869925D01*
X179883000Y-108030075D01*
X179851758Y-108187142D01*
X179790470Y-108335102D01*
X179701498Y-108468258D01*
X179588258Y-108581498D01*
X179455102Y-108670470D01*
X179307142Y-108731758D01*
X179150075Y-108763000D01*
X178989925Y-108763000D01*
X178832858Y-108731758D01*
X178684898Y-108670470D01*
X178551742Y-108581498D01*
X178438502Y-108468258D01*
X178349530Y-108335102D01*
X178288242Y-108187142D01*
X178257000Y-108030075D01*
X178257000Y-107869925D01*
X178288242Y-107712858D01*
X178349530Y-107564898D01*
X178438502Y-107431742D01*
X178551742Y-107318502D01*
X178684898Y-107229530D01*
X178832858Y-107168242D01*
X178989925Y-107137000D01*
X179150075Y-107137000D01*
X179307142Y-107168242D01*
X179307142Y-107168242D01*
G37*
G36*
X245307142Y-104628242D02*
X245455102Y-104689530D01*
X245588258Y-104778502D01*
X245701498Y-104891742D01*
X245790470Y-105024898D01*
X245851758Y-105172858D01*
X245883000Y-105329925D01*
X245883000Y-105490075D01*
X245851758Y-105647142D01*
X245790470Y-105795102D01*
X245701498Y-105928258D01*
X245588258Y-106041498D01*
X245455102Y-106130470D01*
X245307142Y-106191758D01*
X245150075Y-106223000D01*
X244989925Y-106223000D01*
X244832858Y-106191758D01*
X244684898Y-106130470D01*
X244551742Y-106041498D01*
X244438502Y-105928258D01*
X244349530Y-105795102D01*
X244288242Y-105647142D01*
X244257000Y-105490075D01*
X244257000Y-105329925D01*
X244288242Y-105172858D01*
X244349530Y-105024898D01*
X244438502Y-104891742D01*
X244551742Y-104778502D01*
X244684898Y-104689530D01*
X244832858Y-104628242D01*
X244989925Y-104597000D01*
X245150075Y-104597000D01*
X245307142Y-104628242D01*
X245307142Y-104628242D01*
G37*
G36*
X197067142Y-104628242D02*
X197215102Y-104689530D01*
X197348258Y-104778502D01*
X197461498Y-104891742D01*
X197550470Y-105024898D01*
X197611758Y-105172858D01*
X197643000Y-105329925D01*
X197643000Y-105490075D01*
X197611758Y-105647142D01*
X197550470Y-105795102D01*
X197461498Y-105928258D01*
X197348258Y-106041498D01*
X197215102Y-106130470D01*
X197067142Y-106191758D01*
X196910075Y-106223000D01*
X196749925Y-106223000D01*
X196592858Y-106191758D01*
X196444898Y-106130470D01*
X196311742Y-106041498D01*
X196198502Y-105928258D01*
X196109530Y-105795102D01*
X196048242Y-105647142D01*
X196017000Y-105490075D01*
X196017000Y-105329925D01*
X196048242Y-105172858D01*
X196109530Y-105024898D01*
X196198502Y-104891742D01*
X196311742Y-104778502D01*
X196444898Y-104689530D01*
X196592858Y-104628242D01*
X196749925Y-104597000D01*
X196910075Y-104597000D01*
X197067142Y-104628242D01*
X197067142Y-104628242D01*
G37*
G36*
X179307142Y-104628242D02*
X179455102Y-104689530D01*
X179588258Y-104778502D01*
X179701498Y-104891742D01*
X179790470Y-105024898D01*
X179851758Y-105172858D01*
X179883000Y-105329925D01*
X179883000Y-105490075D01*
X179851758Y-105647142D01*
X179790470Y-105795102D01*
X179701498Y-105928258D01*
X179588258Y-106041498D01*
X179455102Y-106130470D01*
X179307142Y-106191758D01*
X179150075Y-106223000D01*
X178989925Y-106223000D01*
X178832858Y-106191758D01*
X178684898Y-106130470D01*
X178551742Y-106041498D01*
X178438502Y-105928258D01*
X178349530Y-105795102D01*
X178288242Y-105647142D01*
X178257000Y-105490075D01*
X178257000Y-105329925D01*
X178288242Y-105172858D01*
X178349530Y-105024898D01*
X178438502Y-104891742D01*
X178551742Y-104778502D01*
X178684898Y-104689530D01*
X178832858Y-104628242D01*
X178989925Y-104597000D01*
X179150075Y-104597000D01*
X179307142Y-104628242D01*
X179307142Y-104628242D01*
G37*
G36*
X212307142Y-104628242D02*
X212455102Y-104689530D01*
X212588258Y-104778502D01*
X212701498Y-104891742D01*
X212790470Y-105024898D01*
X212851758Y-105172858D01*
X212883000Y-105329925D01*
X212883000Y-105490075D01*
X212851758Y-105647142D01*
X212790470Y-105795102D01*
X212701498Y-105928258D01*
X212588258Y-106041498D01*
X212455102Y-106130470D01*
X212307142Y-106191758D01*
X212150075Y-106223000D01*
X211989925Y-106223000D01*
X211832858Y-106191758D01*
X211684898Y-106130470D01*
X211551742Y-106041498D01*
X211438502Y-105928258D01*
X211349530Y-105795102D01*
X211288242Y-105647142D01*
X211257000Y-105490075D01*
X211257000Y-105329925D01*
X211288242Y-105172858D01*
X211349530Y-105024898D01*
X211438502Y-104891742D01*
X211551742Y-104778502D01*
X211684898Y-104689530D01*
X211832858Y-104628242D01*
X211989925Y-104597000D01*
X212150075Y-104597000D01*
X212307142Y-104628242D01*
X212307142Y-104628242D01*
G37*
G36*
X164067142Y-104628242D02*
X164215102Y-104689530D01*
X164348258Y-104778502D01*
X164461498Y-104891742D01*
X164550470Y-105024898D01*
X164611758Y-105172858D01*
X164643000Y-105329925D01*
X164643000Y-105490075D01*
X164611758Y-105647142D01*
X164550470Y-105795102D01*
X164461498Y-105928258D01*
X164348258Y-106041498D01*
X164215102Y-106130470D01*
X164067142Y-106191758D01*
X163910075Y-106223000D01*
X163749925Y-106223000D01*
X163592858Y-106191758D01*
X163444898Y-106130470D01*
X163311742Y-106041498D01*
X163198502Y-105928258D01*
X163109530Y-105795102D01*
X163048242Y-105647142D01*
X163017000Y-105490075D01*
X163017000Y-105329925D01*
X163048242Y-105172858D01*
X163109530Y-105024898D01*
X163198502Y-104891742D01*
X163311742Y-104778502D01*
X163444898Y-104689530D01*
X163592858Y-104628242D01*
X163749925Y-104597000D01*
X163910075Y-104597000D01*
X164067142Y-104628242D01*
X164067142Y-104628242D01*
G37*
G36*
X230067142Y-104628242D02*
X230215102Y-104689530D01*
X230348258Y-104778502D01*
X230461498Y-104891742D01*
X230550470Y-105024898D01*
X230611758Y-105172858D01*
X230643000Y-105329925D01*
X230643000Y-105490075D01*
X230611758Y-105647142D01*
X230550470Y-105795102D01*
X230461498Y-105928258D01*
X230348258Y-106041498D01*
X230215102Y-106130470D01*
X230067142Y-106191758D01*
X229910075Y-106223000D01*
X229749925Y-106223000D01*
X229592858Y-106191758D01*
X229444898Y-106130470D01*
X229311742Y-106041498D01*
X229198502Y-105928258D01*
X229109530Y-105795102D01*
X229048242Y-105647142D01*
X229017000Y-105490075D01*
X229017000Y-105329925D01*
X229048242Y-105172858D01*
X229109530Y-105024898D01*
X229198502Y-104891742D01*
X229311742Y-104778502D01*
X229444898Y-104689530D01*
X229592858Y-104628242D01*
X229749925Y-104597000D01*
X229910075Y-104597000D01*
X230067142Y-104628242D01*
X230067142Y-104628242D01*
G37*
G36*
X164067142Y-102088242D02*
X164215102Y-102149530D01*
X164348258Y-102238502D01*
X164461498Y-102351742D01*
X164550470Y-102484898D01*
X164611758Y-102632858D01*
X164643000Y-102789925D01*
X164643000Y-102950075D01*
X164611758Y-103107142D01*
X164550470Y-103255102D01*
X164461498Y-103388258D01*
X164348258Y-103501498D01*
X164215102Y-103590470D01*
X164067142Y-103651758D01*
X163910075Y-103683000D01*
X163749925Y-103683000D01*
X163592858Y-103651758D01*
X163444898Y-103590470D01*
X163311742Y-103501498D01*
X163198502Y-103388258D01*
X163109530Y-103255102D01*
X163048242Y-103107142D01*
X163017000Y-102950075D01*
X163017000Y-102789925D01*
X163048242Y-102632858D01*
X163109530Y-102484898D01*
X163198502Y-102351742D01*
X163311742Y-102238502D01*
X163444898Y-102149530D01*
X163592858Y-102088242D01*
X163749925Y-102057000D01*
X163910075Y-102057000D01*
X164067142Y-102088242D01*
X164067142Y-102088242D01*
G37*
G36*
X197067142Y-102088242D02*
X197215102Y-102149530D01*
X197348258Y-102238502D01*
X197461498Y-102351742D01*
X197550470Y-102484898D01*
X197611758Y-102632858D01*
X197643000Y-102789925D01*
X197643000Y-102950075D01*
X197611758Y-103107142D01*
X197550470Y-103255102D01*
X197461498Y-103388258D01*
X197348258Y-103501498D01*
X197215102Y-103590470D01*
X197067142Y-103651758D01*
X196910075Y-103683000D01*
X196749925Y-103683000D01*
X196592858Y-103651758D01*
X196444898Y-103590470D01*
X196311742Y-103501498D01*
X196198502Y-103388258D01*
X196109530Y-103255102D01*
X196048242Y-103107142D01*
X196017000Y-102950075D01*
X196017000Y-102789925D01*
X196048242Y-102632858D01*
X196109530Y-102484898D01*
X196198502Y-102351742D01*
X196311742Y-102238502D01*
X196444898Y-102149530D01*
X196592858Y-102088242D01*
X196749925Y-102057000D01*
X196910075Y-102057000D01*
X197067142Y-102088242D01*
X197067142Y-102088242D01*
G37*
G36*
X212307142Y-102088242D02*
X212455102Y-102149530D01*
X212588258Y-102238502D01*
X212701498Y-102351742D01*
X212790470Y-102484898D01*
X212851758Y-102632858D01*
X212883000Y-102789925D01*
X212883000Y-102950075D01*
X212851758Y-103107142D01*
X212790470Y-103255102D01*
X212701498Y-103388258D01*
X212588258Y-103501498D01*
X212455102Y-103590470D01*
X212307142Y-103651758D01*
X212150075Y-103683000D01*
X211989925Y-103683000D01*
X211832858Y-103651758D01*
X211684898Y-103590470D01*
X211551742Y-103501498D01*
X211438502Y-103388258D01*
X211349530Y-103255102D01*
X211288242Y-103107142D01*
X211257000Y-102950075D01*
X211257000Y-102789925D01*
X211288242Y-102632858D01*
X211349530Y-102484898D01*
X211438502Y-102351742D01*
X211551742Y-102238502D01*
X211684898Y-102149530D01*
X211832858Y-102088242D01*
X211989925Y-102057000D01*
X212150075Y-102057000D01*
X212307142Y-102088242D01*
X212307142Y-102088242D01*
G37*
G36*
X245307142Y-102088242D02*
X245455102Y-102149530D01*
X245588258Y-102238502D01*
X245701498Y-102351742D01*
X245790470Y-102484898D01*
X245851758Y-102632858D01*
X245883000Y-102789925D01*
X245883000Y-102950075D01*
X245851758Y-103107142D01*
X245790470Y-103255102D01*
X245701498Y-103388258D01*
X245588258Y-103501498D01*
X245455102Y-103590470D01*
X245307142Y-103651758D01*
X245150075Y-103683000D01*
X244989925Y-103683000D01*
X244832858Y-103651758D01*
X244684898Y-103590470D01*
X244551742Y-103501498D01*
X244438502Y-103388258D01*
X244349530Y-103255102D01*
X244288242Y-103107142D01*
X244257000Y-102950075D01*
X244257000Y-102789925D01*
X244288242Y-102632858D01*
X244349530Y-102484898D01*
X244438502Y-102351742D01*
X244551742Y-102238502D01*
X244684898Y-102149530D01*
X244832858Y-102088242D01*
X244989925Y-102057000D01*
X245150075Y-102057000D01*
X245307142Y-102088242D01*
X245307142Y-102088242D01*
G37*
G36*
X230067142Y-102088242D02*
X230215102Y-102149530D01*
X230348258Y-102238502D01*
X230461498Y-102351742D01*
X230550470Y-102484898D01*
X230611758Y-102632858D01*
X230643000Y-102789925D01*
X230643000Y-102950075D01*
X230611758Y-103107142D01*
X230550470Y-103255102D01*
X230461498Y-103388258D01*
X230348258Y-103501498D01*
X230215102Y-103590470D01*
X230067142Y-103651758D01*
X229910075Y-103683000D01*
X229749925Y-103683000D01*
X229592858Y-103651758D01*
X229444898Y-103590470D01*
X229311742Y-103501498D01*
X229198502Y-103388258D01*
X229109530Y-103255102D01*
X229048242Y-103107142D01*
X229017000Y-102950075D01*
X229017000Y-102789925D01*
X229048242Y-102632858D01*
X229109530Y-102484898D01*
X229198502Y-102351742D01*
X229311742Y-102238502D01*
X229444898Y-102149530D01*
X229592858Y-102088242D01*
X229749925Y-102057000D01*
X229910075Y-102057000D01*
X230067142Y-102088242D01*
X230067142Y-102088242D01*
G37*
G36*
X179307142Y-102088242D02*
X179455102Y-102149530D01*
X179588258Y-102238502D01*
X179701498Y-102351742D01*
X179790470Y-102484898D01*
X179851758Y-102632858D01*
X179883000Y-102789925D01*
X179883000Y-102950075D01*
X179851758Y-103107142D01*
X179790470Y-103255102D01*
X179701498Y-103388258D01*
X179588258Y-103501498D01*
X179455102Y-103590470D01*
X179307142Y-103651758D01*
X179150075Y-103683000D01*
X178989925Y-103683000D01*
X178832858Y-103651758D01*
X178684898Y-103590470D01*
X178551742Y-103501498D01*
X178438502Y-103388258D01*
X178349530Y-103255102D01*
X178288242Y-103107142D01*
X178257000Y-102950075D01*
X178257000Y-102789925D01*
X178288242Y-102632858D01*
X178349530Y-102484898D01*
X178438502Y-102351742D01*
X178551742Y-102238502D01*
X178684898Y-102149530D01*
X178832858Y-102088242D01*
X178989925Y-102057000D01*
X179150075Y-102057000D01*
X179307142Y-102088242D01*
X179307142Y-102088242D01*
G37*
G36*
X230067142Y-99548242D02*
X230215102Y-99609530D01*
X230348258Y-99698502D01*
X230461498Y-99811742D01*
X230550470Y-99944898D01*
X230611758Y-100092858D01*
X230643000Y-100249925D01*
X230643000Y-100410075D01*
X230611758Y-100567142D01*
X230550470Y-100715102D01*
X230461498Y-100848258D01*
X230348258Y-100961498D01*
X230215102Y-101050470D01*
X230067142Y-101111758D01*
X229910075Y-101143000D01*
X229749925Y-101143000D01*
X229592858Y-101111758D01*
X229444898Y-101050470D01*
X229311742Y-100961498D01*
X229198502Y-100848258D01*
X229109530Y-100715102D01*
X229048242Y-100567142D01*
X229017000Y-100410075D01*
X229017000Y-100249925D01*
X229048242Y-100092858D01*
X229109530Y-99944898D01*
X229198502Y-99811742D01*
X229311742Y-99698502D01*
X229444898Y-99609530D01*
X229592858Y-99548242D01*
X229749925Y-99517000D01*
X229910075Y-99517000D01*
X230067142Y-99548242D01*
X230067142Y-99548242D01*
G37*
G36*
X164067142Y-99548242D02*
X164215102Y-99609530D01*
X164348258Y-99698502D01*
X164461498Y-99811742D01*
X164550470Y-99944898D01*
X164611758Y-100092858D01*
X164643000Y-100249925D01*
X164643000Y-100410075D01*
X164611758Y-100567142D01*
X164550470Y-100715102D01*
X164461498Y-100848258D01*
X164348258Y-100961498D01*
X164215102Y-101050470D01*
X164067142Y-101111758D01*
X163910075Y-101143000D01*
X163749925Y-101143000D01*
X163592858Y-101111758D01*
X163444898Y-101050470D01*
X163311742Y-100961498D01*
X163198502Y-100848258D01*
X163109530Y-100715102D01*
X163048242Y-100567142D01*
X163017000Y-100410075D01*
X163017000Y-100249925D01*
X163048242Y-100092858D01*
X163109530Y-99944898D01*
X163198502Y-99811742D01*
X163311742Y-99698502D01*
X163444898Y-99609530D01*
X163592858Y-99548242D01*
X163749925Y-99517000D01*
X163910075Y-99517000D01*
X164067142Y-99548242D01*
X164067142Y-99548242D01*
G37*
G36*
X179307142Y-99548242D02*
X179455102Y-99609530D01*
X179588258Y-99698502D01*
X179701498Y-99811742D01*
X179790470Y-99944898D01*
X179851758Y-100092858D01*
X179883000Y-100249925D01*
X179883000Y-100410075D01*
X179851758Y-100567142D01*
X179790470Y-100715102D01*
X179701498Y-100848258D01*
X179588258Y-100961498D01*
X179455102Y-101050470D01*
X179307142Y-101111758D01*
X179150075Y-101143000D01*
X178989925Y-101143000D01*
X178832858Y-101111758D01*
X178684898Y-101050470D01*
X178551742Y-100961498D01*
X178438502Y-100848258D01*
X178349530Y-100715102D01*
X178288242Y-100567142D01*
X178257000Y-100410075D01*
X178257000Y-100249925D01*
X178288242Y-100092858D01*
X178349530Y-99944898D01*
X178438502Y-99811742D01*
X178551742Y-99698502D01*
X178684898Y-99609530D01*
X178832858Y-99548242D01*
X178989925Y-99517000D01*
X179150075Y-99517000D01*
X179307142Y-99548242D01*
X179307142Y-99548242D01*
G37*
G36*
X245307142Y-99548242D02*
X245455102Y-99609530D01*
X245588258Y-99698502D01*
X245701498Y-99811742D01*
X245790470Y-99944898D01*
X245851758Y-100092858D01*
X245883000Y-100249925D01*
X245883000Y-100410075D01*
X245851758Y-100567142D01*
X245790470Y-100715102D01*
X245701498Y-100848258D01*
X245588258Y-100961498D01*
X245455102Y-101050470D01*
X245307142Y-101111758D01*
X245150075Y-101143000D01*
X244989925Y-101143000D01*
X244832858Y-101111758D01*
X244684898Y-101050470D01*
X244551742Y-100961498D01*
X244438502Y-100848258D01*
X244349530Y-100715102D01*
X244288242Y-100567142D01*
X244257000Y-100410075D01*
X244257000Y-100249925D01*
X244288242Y-100092858D01*
X244349530Y-99944898D01*
X244438502Y-99811742D01*
X244551742Y-99698502D01*
X244684898Y-99609530D01*
X244832858Y-99548242D01*
X244989925Y-99517000D01*
X245150075Y-99517000D01*
X245307142Y-99548242D01*
X245307142Y-99548242D01*
G37*
G36*
X197067142Y-99548242D02*
X197215102Y-99609530D01*
X197348258Y-99698502D01*
X197461498Y-99811742D01*
X197550470Y-99944898D01*
X197611758Y-100092858D01*
X197643000Y-100249925D01*
X197643000Y-100410075D01*
X197611758Y-100567142D01*
X197550470Y-100715102D01*
X197461498Y-100848258D01*
X197348258Y-100961498D01*
X197215102Y-101050470D01*
X197067142Y-101111758D01*
X196910075Y-101143000D01*
X196749925Y-101143000D01*
X196592858Y-101111758D01*
X196444898Y-101050470D01*
X196311742Y-100961498D01*
X196198502Y-100848258D01*
X196109530Y-100715102D01*
X196048242Y-100567142D01*
X196017000Y-100410075D01*
X196017000Y-100249925D01*
X196048242Y-100092858D01*
X196109530Y-99944898D01*
X196198502Y-99811742D01*
X196311742Y-99698502D01*
X196444898Y-99609530D01*
X196592858Y-99548242D01*
X196749925Y-99517000D01*
X196910075Y-99517000D01*
X197067142Y-99548242D01*
X197067142Y-99548242D01*
G37*
G36*
X212307142Y-99548242D02*
X212455102Y-99609530D01*
X212588258Y-99698502D01*
X212701498Y-99811742D01*
X212790470Y-99944898D01*
X212851758Y-100092858D01*
X212883000Y-100249925D01*
X212883000Y-100410075D01*
X212851758Y-100567142D01*
X212790470Y-100715102D01*
X212701498Y-100848258D01*
X212588258Y-100961498D01*
X212455102Y-101050470D01*
X212307142Y-101111758D01*
X212150075Y-101143000D01*
X211989925Y-101143000D01*
X211832858Y-101111758D01*
X211684898Y-101050470D01*
X211551742Y-100961498D01*
X211438502Y-100848258D01*
X211349530Y-100715102D01*
X211288242Y-100567142D01*
X211257000Y-100410075D01*
X211257000Y-100249925D01*
X211288242Y-100092858D01*
X211349530Y-99944898D01*
X211438502Y-99811742D01*
X211551742Y-99698502D01*
X211684898Y-99609530D01*
X211832858Y-99548242D01*
X211989925Y-99517000D01*
X212150075Y-99517000D01*
X212307142Y-99548242D01*
X212307142Y-99548242D01*
G37*
G36*
X212307142Y-97008242D02*
X212455102Y-97069530D01*
X212588258Y-97158502D01*
X212701498Y-97271742D01*
X212790470Y-97404898D01*
X212851758Y-97552858D01*
X212883000Y-97709925D01*
X212883000Y-97870075D01*
X212851758Y-98027142D01*
X212790470Y-98175102D01*
X212701498Y-98308258D01*
X212588258Y-98421498D01*
X212455102Y-98510470D01*
X212307142Y-98571758D01*
X212150075Y-98603000D01*
X211989925Y-98603000D01*
X211832858Y-98571758D01*
X211684898Y-98510470D01*
X211551742Y-98421498D01*
X211438502Y-98308258D01*
X211349530Y-98175102D01*
X211288242Y-98027142D01*
X211257000Y-97870075D01*
X211257000Y-97709925D01*
X211288242Y-97552858D01*
X211349530Y-97404898D01*
X211438502Y-97271742D01*
X211551742Y-97158502D01*
X211684898Y-97069530D01*
X211832858Y-97008242D01*
X211989925Y-96977000D01*
X212150075Y-96977000D01*
X212307142Y-97008242D01*
X212307142Y-97008242D01*
G37*
G36*
X164067142Y-97008242D02*
X164215102Y-97069530D01*
X164348258Y-97158502D01*
X164461498Y-97271742D01*
X164550470Y-97404898D01*
X164611758Y-97552858D01*
X164643000Y-97709925D01*
X164643000Y-97870075D01*
X164611758Y-98027142D01*
X164550470Y-98175102D01*
X164461498Y-98308258D01*
X164348258Y-98421498D01*
X164215102Y-98510470D01*
X164067142Y-98571758D01*
X163910075Y-98603000D01*
X163749925Y-98603000D01*
X163592858Y-98571758D01*
X163444898Y-98510470D01*
X163311742Y-98421498D01*
X163198502Y-98308258D01*
X163109530Y-98175102D01*
X163048242Y-98027142D01*
X163017000Y-97870075D01*
X163017000Y-97709925D01*
X163048242Y-97552858D01*
X163109530Y-97404898D01*
X163198502Y-97271742D01*
X163311742Y-97158502D01*
X163444898Y-97069530D01*
X163592858Y-97008242D01*
X163749925Y-96977000D01*
X163910075Y-96977000D01*
X164067142Y-97008242D01*
X164067142Y-97008242D01*
G37*
G36*
X197067142Y-97008242D02*
X197215102Y-97069530D01*
X197348258Y-97158502D01*
X197461498Y-97271742D01*
X197550470Y-97404898D01*
X197611758Y-97552858D01*
X197643000Y-97709925D01*
X197643000Y-97870075D01*
X197611758Y-98027142D01*
X197550470Y-98175102D01*
X197461498Y-98308258D01*
X197348258Y-98421498D01*
X197215102Y-98510470D01*
X197067142Y-98571758D01*
X196910075Y-98603000D01*
X196749925Y-98603000D01*
X196592858Y-98571758D01*
X196444898Y-98510470D01*
X196311742Y-98421498D01*
X196198502Y-98308258D01*
X196109530Y-98175102D01*
X196048242Y-98027142D01*
X196017000Y-97870075D01*
X196017000Y-97709925D01*
X196048242Y-97552858D01*
X196109530Y-97404898D01*
X196198502Y-97271742D01*
X196311742Y-97158502D01*
X196444898Y-97069530D01*
X196592858Y-97008242D01*
X196749925Y-96977000D01*
X196910075Y-96977000D01*
X197067142Y-97008242D01*
X197067142Y-97008242D01*
G37*
G36*
X179307142Y-97008242D02*
X179455102Y-97069530D01*
X179588258Y-97158502D01*
X179701498Y-97271742D01*
X179790470Y-97404898D01*
X179851758Y-97552858D01*
X179883000Y-97709925D01*
X179883000Y-97870075D01*
X179851758Y-98027142D01*
X179790470Y-98175102D01*
X179701498Y-98308258D01*
X179588258Y-98421498D01*
X179455102Y-98510470D01*
X179307142Y-98571758D01*
X179150075Y-98603000D01*
X178989925Y-98603000D01*
X178832858Y-98571758D01*
X178684898Y-98510470D01*
X178551742Y-98421498D01*
X178438502Y-98308258D01*
X178349530Y-98175102D01*
X178288242Y-98027142D01*
X178257000Y-97870075D01*
X178257000Y-97709925D01*
X178288242Y-97552858D01*
X178349530Y-97404898D01*
X178438502Y-97271742D01*
X178551742Y-97158502D01*
X178684898Y-97069530D01*
X178832858Y-97008242D01*
X178989925Y-96977000D01*
X179150075Y-96977000D01*
X179307142Y-97008242D01*
X179307142Y-97008242D01*
G37*
G36*
X245307142Y-97008242D02*
X245455102Y-97069530D01*
X245588258Y-97158502D01*
X245701498Y-97271742D01*
X245790470Y-97404898D01*
X245851758Y-97552858D01*
X245883000Y-97709925D01*
X245883000Y-97870075D01*
X245851758Y-98027142D01*
X245790470Y-98175102D01*
X245701498Y-98308258D01*
X245588258Y-98421498D01*
X245455102Y-98510470D01*
X245307142Y-98571758D01*
X245150075Y-98603000D01*
X244989925Y-98603000D01*
X244832858Y-98571758D01*
X244684898Y-98510470D01*
X244551742Y-98421498D01*
X244438502Y-98308258D01*
X244349530Y-98175102D01*
X244288242Y-98027142D01*
X244257000Y-97870075D01*
X244257000Y-97709925D01*
X244288242Y-97552858D01*
X244349530Y-97404898D01*
X244438502Y-97271742D01*
X244551742Y-97158502D01*
X244684898Y-97069530D01*
X244832858Y-97008242D01*
X244989925Y-96977000D01*
X245150075Y-96977000D01*
X245307142Y-97008242D01*
X245307142Y-97008242D01*
G37*
G36*
X230067142Y-97008242D02*
X230215102Y-97069530D01*
X230348258Y-97158502D01*
X230461498Y-97271742D01*
X230550470Y-97404898D01*
X230611758Y-97552858D01*
X230643000Y-97709925D01*
X230643000Y-97870075D01*
X230611758Y-98027142D01*
X230550470Y-98175102D01*
X230461498Y-98308258D01*
X230348258Y-98421498D01*
X230215102Y-98510470D01*
X230067142Y-98571758D01*
X229910075Y-98603000D01*
X229749925Y-98603000D01*
X229592858Y-98571758D01*
X229444898Y-98510470D01*
X229311742Y-98421498D01*
X229198502Y-98308258D01*
X229109530Y-98175102D01*
X229048242Y-98027142D01*
X229017000Y-97870075D01*
X229017000Y-97709925D01*
X229048242Y-97552858D01*
X229109530Y-97404898D01*
X229198502Y-97271742D01*
X229311742Y-97158502D01*
X229444898Y-97069530D01*
X229592858Y-97008242D01*
X229749925Y-96977000D01*
X229910075Y-96977000D01*
X230067142Y-97008242D01*
X230067142Y-97008242D01*
G37*
G36*
X164067142Y-94468242D02*
X164215102Y-94529530D01*
X164348258Y-94618502D01*
X164461498Y-94731742D01*
X164550470Y-94864898D01*
X164611758Y-95012858D01*
X164643000Y-95169925D01*
X164643000Y-95330075D01*
X164611758Y-95487142D01*
X164550470Y-95635102D01*
X164461498Y-95768258D01*
X164348258Y-95881498D01*
X164215102Y-95970470D01*
X164067142Y-96031758D01*
X163910075Y-96063000D01*
X163749925Y-96063000D01*
X163592858Y-96031758D01*
X163444898Y-95970470D01*
X163311742Y-95881498D01*
X163198502Y-95768258D01*
X163109530Y-95635102D01*
X163048242Y-95487142D01*
X163017000Y-95330075D01*
X163017000Y-95169925D01*
X163048242Y-95012858D01*
X163109530Y-94864898D01*
X163198502Y-94731742D01*
X163311742Y-94618502D01*
X163444898Y-94529530D01*
X163592858Y-94468242D01*
X163749925Y-94437000D01*
X163910075Y-94437000D01*
X164067142Y-94468242D01*
X164067142Y-94468242D01*
G37*
G36*
X245307142Y-94468242D02*
X245455102Y-94529530D01*
X245588258Y-94618502D01*
X245701498Y-94731742D01*
X245790470Y-94864898D01*
X245851758Y-95012858D01*
X245883000Y-95169925D01*
X245883000Y-95330075D01*
X245851758Y-95487142D01*
X245790470Y-95635102D01*
X245701498Y-95768258D01*
X245588258Y-95881498D01*
X245455102Y-95970470D01*
X245307142Y-96031758D01*
X245150075Y-96063000D01*
X244989925Y-96063000D01*
X244832858Y-96031758D01*
X244684898Y-95970470D01*
X244551742Y-95881498D01*
X244438502Y-95768258D01*
X244349530Y-95635102D01*
X244288242Y-95487142D01*
X244257000Y-95330075D01*
X244257000Y-95169925D01*
X244288242Y-95012858D01*
X244349530Y-94864898D01*
X244438502Y-94731742D01*
X244551742Y-94618502D01*
X244684898Y-94529530D01*
X244832858Y-94468242D01*
X244989925Y-94437000D01*
X245150075Y-94437000D01*
X245307142Y-94468242D01*
X245307142Y-94468242D01*
G37*
G36*
X212307142Y-94468242D02*
X212455102Y-94529530D01*
X212588258Y-94618502D01*
X212701498Y-94731742D01*
X212790470Y-94864898D01*
X212851758Y-95012858D01*
X212883000Y-95169925D01*
X212883000Y-95330075D01*
X212851758Y-95487142D01*
X212790470Y-95635102D01*
X212701498Y-95768258D01*
X212588258Y-95881498D01*
X212455102Y-95970470D01*
X212307142Y-96031758D01*
X212150075Y-96063000D01*
X211989925Y-96063000D01*
X211832858Y-96031758D01*
X211684898Y-95970470D01*
X211551742Y-95881498D01*
X211438502Y-95768258D01*
X211349530Y-95635102D01*
X211288242Y-95487142D01*
X211257000Y-95330075D01*
X211257000Y-95169925D01*
X211288242Y-95012858D01*
X211349530Y-94864898D01*
X211438502Y-94731742D01*
X211551742Y-94618502D01*
X211684898Y-94529530D01*
X211832858Y-94468242D01*
X211989925Y-94437000D01*
X212150075Y-94437000D01*
X212307142Y-94468242D01*
X212307142Y-94468242D01*
G37*
G36*
X179307142Y-94468242D02*
X179455102Y-94529530D01*
X179588258Y-94618502D01*
X179701498Y-94731742D01*
X179790470Y-94864898D01*
X179851758Y-95012858D01*
X179883000Y-95169925D01*
X179883000Y-95330075D01*
X179851758Y-95487142D01*
X179790470Y-95635102D01*
X179701498Y-95768258D01*
X179588258Y-95881498D01*
X179455102Y-95970470D01*
X179307142Y-96031758D01*
X179150075Y-96063000D01*
X178989925Y-96063000D01*
X178832858Y-96031758D01*
X178684898Y-95970470D01*
X178551742Y-95881498D01*
X178438502Y-95768258D01*
X178349530Y-95635102D01*
X178288242Y-95487142D01*
X178257000Y-95330075D01*
X178257000Y-95169925D01*
X178288242Y-95012858D01*
X178349530Y-94864898D01*
X178438502Y-94731742D01*
X178551742Y-94618502D01*
X178684898Y-94529530D01*
X178832858Y-94468242D01*
X178989925Y-94437000D01*
X179150075Y-94437000D01*
X179307142Y-94468242D01*
X179307142Y-94468242D01*
G37*
G36*
X197067142Y-94468242D02*
X197215102Y-94529530D01*
X197348258Y-94618502D01*
X197461498Y-94731742D01*
X197550470Y-94864898D01*
X197611758Y-95012858D01*
X197643000Y-95169925D01*
X197643000Y-95330075D01*
X197611758Y-95487142D01*
X197550470Y-95635102D01*
X197461498Y-95768258D01*
X197348258Y-95881498D01*
X197215102Y-95970470D01*
X197067142Y-96031758D01*
X196910075Y-96063000D01*
X196749925Y-96063000D01*
X196592858Y-96031758D01*
X196444898Y-95970470D01*
X196311742Y-95881498D01*
X196198502Y-95768258D01*
X196109530Y-95635102D01*
X196048242Y-95487142D01*
X196017000Y-95330075D01*
X196017000Y-95169925D01*
X196048242Y-95012858D01*
X196109530Y-94864898D01*
X196198502Y-94731742D01*
X196311742Y-94618502D01*
X196444898Y-94529530D01*
X196592858Y-94468242D01*
X196749925Y-94437000D01*
X196910075Y-94437000D01*
X197067142Y-94468242D01*
X197067142Y-94468242D01*
G37*
G36*
X230067142Y-94468242D02*
X230215102Y-94529530D01*
X230348258Y-94618502D01*
X230461498Y-94731742D01*
X230550470Y-94864898D01*
X230611758Y-95012858D01*
X230643000Y-95169925D01*
X230643000Y-95330075D01*
X230611758Y-95487142D01*
X230550470Y-95635102D01*
X230461498Y-95768258D01*
X230348258Y-95881498D01*
X230215102Y-95970470D01*
X230067142Y-96031758D01*
X229910075Y-96063000D01*
X229749925Y-96063000D01*
X229592858Y-96031758D01*
X229444898Y-95970470D01*
X229311742Y-95881498D01*
X229198502Y-95768258D01*
X229109530Y-95635102D01*
X229048242Y-95487142D01*
X229017000Y-95330075D01*
X229017000Y-95169925D01*
X229048242Y-95012858D01*
X229109530Y-94864898D01*
X229198502Y-94731742D01*
X229311742Y-94618502D01*
X229444898Y-94529530D01*
X229592858Y-94468242D01*
X229749925Y-94437000D01*
X229910075Y-94437000D01*
X230067142Y-94468242D01*
X230067142Y-94468242D01*
G37*
G36*
X164067142Y-91928242D02*
X164215102Y-91989530D01*
X164348258Y-92078502D01*
X164461498Y-92191742D01*
X164550470Y-92324898D01*
X164611758Y-92472858D01*
X164643000Y-92629925D01*
X164643000Y-92790075D01*
X164611758Y-92947142D01*
X164550470Y-93095102D01*
X164461498Y-93228258D01*
X164348258Y-93341498D01*
X164215102Y-93430470D01*
X164067142Y-93491758D01*
X163910075Y-93523000D01*
X163749925Y-93523000D01*
X163592858Y-93491758D01*
X163444898Y-93430470D01*
X163311742Y-93341498D01*
X163198502Y-93228258D01*
X163109530Y-93095102D01*
X163048242Y-92947142D01*
X163017000Y-92790075D01*
X163017000Y-92629925D01*
X163048242Y-92472858D01*
X163109530Y-92324898D01*
X163198502Y-92191742D01*
X163311742Y-92078502D01*
X163444898Y-91989530D01*
X163592858Y-91928242D01*
X163749925Y-91897000D01*
X163910075Y-91897000D01*
X164067142Y-91928242D01*
X164067142Y-91928242D01*
G37*
G36*
X230067142Y-91928242D02*
X230215102Y-91989530D01*
X230348258Y-92078502D01*
X230461498Y-92191742D01*
X230550470Y-92324898D01*
X230611758Y-92472858D01*
X230643000Y-92629925D01*
X230643000Y-92790075D01*
X230611758Y-92947142D01*
X230550470Y-93095102D01*
X230461498Y-93228258D01*
X230348258Y-93341498D01*
X230215102Y-93430470D01*
X230067142Y-93491758D01*
X229910075Y-93523000D01*
X229749925Y-93523000D01*
X229592858Y-93491758D01*
X229444898Y-93430470D01*
X229311742Y-93341498D01*
X229198502Y-93228258D01*
X229109530Y-93095102D01*
X229048242Y-92947142D01*
X229017000Y-92790075D01*
X229017000Y-92629925D01*
X229048242Y-92472858D01*
X229109530Y-92324898D01*
X229198502Y-92191742D01*
X229311742Y-92078502D01*
X229444898Y-91989530D01*
X229592858Y-91928242D01*
X229749925Y-91897000D01*
X229910075Y-91897000D01*
X230067142Y-91928242D01*
X230067142Y-91928242D01*
G37*
G36*
X179307142Y-91928242D02*
X179455102Y-91989530D01*
X179588258Y-92078502D01*
X179701498Y-92191742D01*
X179790470Y-92324898D01*
X179851758Y-92472858D01*
X179883000Y-92629925D01*
X179883000Y-92790075D01*
X179851758Y-92947142D01*
X179790470Y-93095102D01*
X179701498Y-93228258D01*
X179588258Y-93341498D01*
X179455102Y-93430470D01*
X179307142Y-93491758D01*
X179150075Y-93523000D01*
X178989925Y-93523000D01*
X178832858Y-93491758D01*
X178684898Y-93430470D01*
X178551742Y-93341498D01*
X178438502Y-93228258D01*
X178349530Y-93095102D01*
X178288242Y-92947142D01*
X178257000Y-92790075D01*
X178257000Y-92629925D01*
X178288242Y-92472858D01*
X178349530Y-92324898D01*
X178438502Y-92191742D01*
X178551742Y-92078502D01*
X178684898Y-91989530D01*
X178832858Y-91928242D01*
X178989925Y-91897000D01*
X179150075Y-91897000D01*
X179307142Y-91928242D01*
X179307142Y-91928242D01*
G37*
G36*
X197067142Y-91928242D02*
X197215102Y-91989530D01*
X197348258Y-92078502D01*
X197461498Y-92191742D01*
X197550470Y-92324898D01*
X197611758Y-92472858D01*
X197643000Y-92629925D01*
X197643000Y-92790075D01*
X197611758Y-92947142D01*
X197550470Y-93095102D01*
X197461498Y-93228258D01*
X197348258Y-93341498D01*
X197215102Y-93430470D01*
X197067142Y-93491758D01*
X196910075Y-93523000D01*
X196749925Y-93523000D01*
X196592858Y-93491758D01*
X196444898Y-93430470D01*
X196311742Y-93341498D01*
X196198502Y-93228258D01*
X196109530Y-93095102D01*
X196048242Y-92947142D01*
X196017000Y-92790075D01*
X196017000Y-92629925D01*
X196048242Y-92472858D01*
X196109530Y-92324898D01*
X196198502Y-92191742D01*
X196311742Y-92078502D01*
X196444898Y-91989530D01*
X196592858Y-91928242D01*
X196749925Y-91897000D01*
X196910075Y-91897000D01*
X197067142Y-91928242D01*
X197067142Y-91928242D01*
G37*
G36*
X245307142Y-91928242D02*
X245455102Y-91989530D01*
X245588258Y-92078502D01*
X245701498Y-92191742D01*
X245790470Y-92324898D01*
X245851758Y-92472858D01*
X245883000Y-92629925D01*
X245883000Y-92790075D01*
X245851758Y-92947142D01*
X245790470Y-93095102D01*
X245701498Y-93228258D01*
X245588258Y-93341498D01*
X245455102Y-93430470D01*
X245307142Y-93491758D01*
X245150075Y-93523000D01*
X244989925Y-93523000D01*
X244832858Y-93491758D01*
X244684898Y-93430470D01*
X244551742Y-93341498D01*
X244438502Y-93228258D01*
X244349530Y-93095102D01*
X244288242Y-92947142D01*
X244257000Y-92790075D01*
X244257000Y-92629925D01*
X244288242Y-92472858D01*
X244349530Y-92324898D01*
X244438502Y-92191742D01*
X244551742Y-92078502D01*
X244684898Y-91989530D01*
X244832858Y-91928242D01*
X244989925Y-91897000D01*
X245150075Y-91897000D01*
X245307142Y-91928242D01*
X245307142Y-91928242D01*
G37*
G36*
X212307142Y-91928242D02*
X212455102Y-91989530D01*
X212588258Y-92078502D01*
X212701498Y-92191742D01*
X212790470Y-92324898D01*
X212851758Y-92472858D01*
X212883000Y-92629925D01*
X212883000Y-92790075D01*
X212851758Y-92947142D01*
X212790470Y-93095102D01*
X212701498Y-93228258D01*
X212588258Y-93341498D01*
X212455102Y-93430470D01*
X212307142Y-93491758D01*
X212150075Y-93523000D01*
X211989925Y-93523000D01*
X211832858Y-93491758D01*
X211684898Y-93430470D01*
X211551742Y-93341498D01*
X211438502Y-93228258D01*
X211349530Y-93095102D01*
X211288242Y-92947142D01*
X211257000Y-92790075D01*
X211257000Y-92629925D01*
X211288242Y-92472858D01*
X211349530Y-92324898D01*
X211438502Y-92191742D01*
X211551742Y-92078502D01*
X211684898Y-91989530D01*
X211832858Y-91928242D01*
X211989925Y-91897000D01*
X212150075Y-91897000D01*
X212307142Y-91928242D01*
X212307142Y-91928242D01*
G37*
G36*
X197067142Y-89388242D02*
X197215102Y-89449530D01*
X197348258Y-89538502D01*
X197461498Y-89651742D01*
X197550470Y-89784898D01*
X197611758Y-89932858D01*
X197643000Y-90089925D01*
X197643000Y-90250075D01*
X197611758Y-90407142D01*
X197550470Y-90555102D01*
X197461498Y-90688258D01*
X197348258Y-90801498D01*
X197215102Y-90890470D01*
X197067142Y-90951758D01*
X196910075Y-90983000D01*
X196749925Y-90983000D01*
X196592858Y-90951758D01*
X196444898Y-90890470D01*
X196311742Y-90801498D01*
X196198502Y-90688258D01*
X196109530Y-90555102D01*
X196048242Y-90407142D01*
X196017000Y-90250075D01*
X196017000Y-90089925D01*
X196048242Y-89932858D01*
X196109530Y-89784898D01*
X196198502Y-89651742D01*
X196311742Y-89538502D01*
X196444898Y-89449530D01*
X196592858Y-89388242D01*
X196749925Y-89357000D01*
X196910075Y-89357000D01*
X197067142Y-89388242D01*
X197067142Y-89388242D01*
G37*
G36*
X164067142Y-89388242D02*
X164215102Y-89449530D01*
X164348258Y-89538502D01*
X164461498Y-89651742D01*
X164550470Y-89784898D01*
X164611758Y-89932858D01*
X164643000Y-90089925D01*
X164643000Y-90250075D01*
X164611758Y-90407142D01*
X164550470Y-90555102D01*
X164461498Y-90688258D01*
X164348258Y-90801498D01*
X164215102Y-90890470D01*
X164067142Y-90951758D01*
X163910075Y-90983000D01*
X163749925Y-90983000D01*
X163592858Y-90951758D01*
X163444898Y-90890470D01*
X163311742Y-90801498D01*
X163198502Y-90688258D01*
X163109530Y-90555102D01*
X163048242Y-90407142D01*
X163017000Y-90250075D01*
X163017000Y-90089925D01*
X163048242Y-89932858D01*
X163109530Y-89784898D01*
X163198502Y-89651742D01*
X163311742Y-89538502D01*
X163444898Y-89449530D01*
X163592858Y-89388242D01*
X163749925Y-89357000D01*
X163910075Y-89357000D01*
X164067142Y-89388242D01*
X164067142Y-89388242D01*
G37*
G36*
X212307142Y-89388242D02*
X212455102Y-89449530D01*
X212588258Y-89538502D01*
X212701498Y-89651742D01*
X212790470Y-89784898D01*
X212851758Y-89932858D01*
X212883000Y-90089925D01*
X212883000Y-90250075D01*
X212851758Y-90407142D01*
X212790470Y-90555102D01*
X212701498Y-90688258D01*
X212588258Y-90801498D01*
X212455102Y-90890470D01*
X212307142Y-90951758D01*
X212150075Y-90983000D01*
X211989925Y-90983000D01*
X211832858Y-90951758D01*
X211684898Y-90890470D01*
X211551742Y-90801498D01*
X211438502Y-90688258D01*
X211349530Y-90555102D01*
X211288242Y-90407142D01*
X211257000Y-90250075D01*
X211257000Y-90089925D01*
X211288242Y-89932858D01*
X211349530Y-89784898D01*
X211438502Y-89651742D01*
X211551742Y-89538502D01*
X211684898Y-89449530D01*
X211832858Y-89388242D01*
X211989925Y-89357000D01*
X212150075Y-89357000D01*
X212307142Y-89388242D01*
X212307142Y-89388242D01*
G37*
G36*
X230067142Y-89388242D02*
X230215102Y-89449530D01*
X230348258Y-89538502D01*
X230461498Y-89651742D01*
X230550470Y-89784898D01*
X230611758Y-89932858D01*
X230643000Y-90089925D01*
X230643000Y-90250075D01*
X230611758Y-90407142D01*
X230550470Y-90555102D01*
X230461498Y-90688258D01*
X230348258Y-90801498D01*
X230215102Y-90890470D01*
X230067142Y-90951758D01*
X229910075Y-90983000D01*
X229749925Y-90983000D01*
X229592858Y-90951758D01*
X229444898Y-90890470D01*
X229311742Y-90801498D01*
X229198502Y-90688258D01*
X229109530Y-90555102D01*
X229048242Y-90407142D01*
X229017000Y-90250075D01*
X229017000Y-90089925D01*
X229048242Y-89932858D01*
X229109530Y-89784898D01*
X229198502Y-89651742D01*
X229311742Y-89538502D01*
X229444898Y-89449530D01*
X229592858Y-89388242D01*
X229749925Y-89357000D01*
X229910075Y-89357000D01*
X230067142Y-89388242D01*
X230067142Y-89388242D01*
G37*
G36*
X245307142Y-89388242D02*
X245455102Y-89449530D01*
X245588258Y-89538502D01*
X245701498Y-89651742D01*
X245790470Y-89784898D01*
X245851758Y-89932858D01*
X245883000Y-90089925D01*
X245883000Y-90250075D01*
X245851758Y-90407142D01*
X245790470Y-90555102D01*
X245701498Y-90688258D01*
X245588258Y-90801498D01*
X245455102Y-90890470D01*
X245307142Y-90951758D01*
X245150075Y-90983000D01*
X244989925Y-90983000D01*
X244832858Y-90951758D01*
X244684898Y-90890470D01*
X244551742Y-90801498D01*
X244438502Y-90688258D01*
X244349530Y-90555102D01*
X244288242Y-90407142D01*
X244257000Y-90250075D01*
X244257000Y-90089925D01*
X244288242Y-89932858D01*
X244349530Y-89784898D01*
X244438502Y-89651742D01*
X244551742Y-89538502D01*
X244684898Y-89449530D01*
X244832858Y-89388242D01*
X244989925Y-89357000D01*
X245150075Y-89357000D01*
X245307142Y-89388242D01*
X245307142Y-89388242D01*
G37*
G36*
X179307142Y-89388242D02*
X179455102Y-89449530D01*
X179588258Y-89538502D01*
X179701498Y-89651742D01*
X179790470Y-89784898D01*
X179851758Y-89932858D01*
X179883000Y-90089925D01*
X179883000Y-90250075D01*
X179851758Y-90407142D01*
X179790470Y-90555102D01*
X179701498Y-90688258D01*
X179588258Y-90801498D01*
X179455102Y-90890470D01*
X179307142Y-90951758D01*
X179150075Y-90983000D01*
X178989925Y-90983000D01*
X178832858Y-90951758D01*
X178684898Y-90890470D01*
X178551742Y-90801498D01*
X178438502Y-90688258D01*
X178349530Y-90555102D01*
X178288242Y-90407142D01*
X178257000Y-90250075D01*
X178257000Y-90089925D01*
X178288242Y-89932858D01*
X178349530Y-89784898D01*
X178438502Y-89651742D01*
X178551742Y-89538502D01*
X178684898Y-89449530D01*
X178832858Y-89388242D01*
X178989925Y-89357000D01*
X179150075Y-89357000D01*
X179307142Y-89388242D01*
X179307142Y-89388242D01*
G37*
G36*
X197067142Y-86848242D02*
X197215102Y-86909530D01*
X197348258Y-86998502D01*
X197461498Y-87111742D01*
X197550470Y-87244898D01*
X197611758Y-87392858D01*
X197643000Y-87549925D01*
X197643000Y-87710075D01*
X197611758Y-87867142D01*
X197550470Y-88015102D01*
X197461498Y-88148258D01*
X197348258Y-88261498D01*
X197215102Y-88350470D01*
X197067142Y-88411758D01*
X196910075Y-88443000D01*
X196749925Y-88443000D01*
X196592858Y-88411758D01*
X196444898Y-88350470D01*
X196311742Y-88261498D01*
X196198502Y-88148258D01*
X196109530Y-88015102D01*
X196048242Y-87867142D01*
X196017000Y-87710075D01*
X196017000Y-87549925D01*
X196048242Y-87392858D01*
X196109530Y-87244898D01*
X196198502Y-87111742D01*
X196311742Y-86998502D01*
X196444898Y-86909530D01*
X196592858Y-86848242D01*
X196749925Y-86817000D01*
X196910075Y-86817000D01*
X197067142Y-86848242D01*
X197067142Y-86848242D01*
G37*
G36*
X245307142Y-86848242D02*
X245455102Y-86909530D01*
X245588258Y-86998502D01*
X245701498Y-87111742D01*
X245790470Y-87244898D01*
X245851758Y-87392858D01*
X245883000Y-87549925D01*
X245883000Y-87710075D01*
X245851758Y-87867142D01*
X245790470Y-88015102D01*
X245701498Y-88148258D01*
X245588258Y-88261498D01*
X245455102Y-88350470D01*
X245307142Y-88411758D01*
X245150075Y-88443000D01*
X244989925Y-88443000D01*
X244832858Y-88411758D01*
X244684898Y-88350470D01*
X244551742Y-88261498D01*
X244438502Y-88148258D01*
X244349530Y-88015102D01*
X244288242Y-87867142D01*
X244257000Y-87710075D01*
X244257000Y-87549925D01*
X244288242Y-87392858D01*
X244349530Y-87244898D01*
X244438502Y-87111742D01*
X244551742Y-86998502D01*
X244684898Y-86909530D01*
X244832858Y-86848242D01*
X244989925Y-86817000D01*
X245150075Y-86817000D01*
X245307142Y-86848242D01*
X245307142Y-86848242D01*
G37*
G36*
X230067142Y-86848242D02*
X230215102Y-86909530D01*
X230348258Y-86998502D01*
X230461498Y-87111742D01*
X230550470Y-87244898D01*
X230611758Y-87392858D01*
X230643000Y-87549925D01*
X230643000Y-87710075D01*
X230611758Y-87867142D01*
X230550470Y-88015102D01*
X230461498Y-88148258D01*
X230348258Y-88261498D01*
X230215102Y-88350470D01*
X230067142Y-88411758D01*
X229910075Y-88443000D01*
X229749925Y-88443000D01*
X229592858Y-88411758D01*
X229444898Y-88350470D01*
X229311742Y-88261498D01*
X229198502Y-88148258D01*
X229109530Y-88015102D01*
X229048242Y-87867142D01*
X229017000Y-87710075D01*
X229017000Y-87549925D01*
X229048242Y-87392858D01*
X229109530Y-87244898D01*
X229198502Y-87111742D01*
X229311742Y-86998502D01*
X229444898Y-86909530D01*
X229592858Y-86848242D01*
X229749925Y-86817000D01*
X229910075Y-86817000D01*
X230067142Y-86848242D01*
X230067142Y-86848242D01*
G37*
G36*
X212307142Y-86848242D02*
X212455102Y-86909530D01*
X212588258Y-86998502D01*
X212701498Y-87111742D01*
X212790470Y-87244898D01*
X212851758Y-87392858D01*
X212883000Y-87549925D01*
X212883000Y-87710075D01*
X212851758Y-87867142D01*
X212790470Y-88015102D01*
X212701498Y-88148258D01*
X212588258Y-88261498D01*
X212455102Y-88350470D01*
X212307142Y-88411758D01*
X212150075Y-88443000D01*
X211989925Y-88443000D01*
X211832858Y-88411758D01*
X211684898Y-88350470D01*
X211551742Y-88261498D01*
X211438502Y-88148258D01*
X211349530Y-88015102D01*
X211288242Y-87867142D01*
X211257000Y-87710075D01*
X211257000Y-87549925D01*
X211288242Y-87392858D01*
X211349530Y-87244898D01*
X211438502Y-87111742D01*
X211551742Y-86998502D01*
X211684898Y-86909530D01*
X211832858Y-86848242D01*
X211989925Y-86817000D01*
X212150075Y-86817000D01*
X212307142Y-86848242D01*
X212307142Y-86848242D01*
G37*
G36*
X179307142Y-86848242D02*
X179455102Y-86909530D01*
X179588258Y-86998502D01*
X179701498Y-87111742D01*
X179790470Y-87244898D01*
X179851758Y-87392858D01*
X179883000Y-87549925D01*
X179883000Y-87710075D01*
X179851758Y-87867142D01*
X179790470Y-88015102D01*
X179701498Y-88148258D01*
X179588258Y-88261498D01*
X179455102Y-88350470D01*
X179307142Y-88411758D01*
X179150075Y-88443000D01*
X178989925Y-88443000D01*
X178832858Y-88411758D01*
X178684898Y-88350470D01*
X178551742Y-88261498D01*
X178438502Y-88148258D01*
X178349530Y-88015102D01*
X178288242Y-87867142D01*
X178257000Y-87710075D01*
X178257000Y-87549925D01*
X178288242Y-87392858D01*
X178349530Y-87244898D01*
X178438502Y-87111742D01*
X178551742Y-86998502D01*
X178684898Y-86909530D01*
X178832858Y-86848242D01*
X178989925Y-86817000D01*
X179150075Y-86817000D01*
X179307142Y-86848242D01*
X179307142Y-86848242D01*
G37*
G36*
X164067142Y-86848242D02*
X164215102Y-86909530D01*
X164348258Y-86998502D01*
X164461498Y-87111742D01*
X164550470Y-87244898D01*
X164611758Y-87392858D01*
X164643000Y-87549925D01*
X164643000Y-87710075D01*
X164611758Y-87867142D01*
X164550470Y-88015102D01*
X164461498Y-88148258D01*
X164348258Y-88261498D01*
X164215102Y-88350470D01*
X164067142Y-88411758D01*
X163910075Y-88443000D01*
X163749925Y-88443000D01*
X163592858Y-88411758D01*
X163444898Y-88350470D01*
X163311742Y-88261498D01*
X163198502Y-88148258D01*
X163109530Y-88015102D01*
X163048242Y-87867142D01*
X163017000Y-87710075D01*
X163017000Y-87549925D01*
X163048242Y-87392858D01*
X163109530Y-87244898D01*
X163198502Y-87111742D01*
X163311742Y-86998502D01*
X163444898Y-86909530D01*
X163592858Y-86848242D01*
X163749925Y-86817000D01*
X163910075Y-86817000D01*
X164067142Y-86848242D01*
X164067142Y-86848242D01*
G37*
G36*
X198337142Y-84308242D02*
X198485102Y-84369530D01*
X198618258Y-84458502D01*
X198731498Y-84571742D01*
X198820470Y-84704898D01*
X198881758Y-84852858D01*
X198913000Y-85009925D01*
X198913000Y-85170075D01*
X198881758Y-85327142D01*
X198820470Y-85475102D01*
X198731498Y-85608258D01*
X198618258Y-85721498D01*
X198485102Y-85810470D01*
X198337142Y-85871758D01*
X198180075Y-85903000D01*
X198019925Y-85903000D01*
X197862858Y-85871758D01*
X197714898Y-85810470D01*
X197581742Y-85721498D01*
X197468502Y-85608258D01*
X197379530Y-85475102D01*
X197318242Y-85327142D01*
X197287000Y-85170075D01*
X197287000Y-85009925D01*
X197318242Y-84852858D01*
X197379530Y-84704898D01*
X197468502Y-84571742D01*
X197581742Y-84458502D01*
X197714898Y-84369530D01*
X197862858Y-84308242D01*
X198019925Y-84277000D01*
X198180075Y-84277000D01*
X198337142Y-84308242D01*
X198337142Y-84308242D01*
G37*
G36*
X241497142Y-84308242D02*
X241645102Y-84369530D01*
X241778258Y-84458502D01*
X241891498Y-84571742D01*
X241980470Y-84704898D01*
X242041758Y-84852858D01*
X242073000Y-85009925D01*
X242073000Y-85170075D01*
X242041758Y-85327142D01*
X241980470Y-85475102D01*
X241891498Y-85608258D01*
X241778258Y-85721498D01*
X241645102Y-85810470D01*
X241497142Y-85871758D01*
X241340075Y-85903000D01*
X241179925Y-85903000D01*
X241022858Y-85871758D01*
X240874898Y-85810470D01*
X240741742Y-85721498D01*
X240628502Y-85608258D01*
X240539530Y-85475102D01*
X240478242Y-85327142D01*
X240447000Y-85170075D01*
X240447000Y-85009925D01*
X240478242Y-84852858D01*
X240539530Y-84704898D01*
X240628502Y-84571742D01*
X240741742Y-84458502D01*
X240874898Y-84369530D01*
X241022858Y-84308242D01*
X241179925Y-84277000D01*
X241340075Y-84277000D01*
X241497142Y-84308242D01*
X241497142Y-84308242D01*
G37*
G36*
X165337142Y-84308242D02*
X165485102Y-84369530D01*
X165618258Y-84458502D01*
X165731498Y-84571742D01*
X165820470Y-84704898D01*
X165881758Y-84852858D01*
X165913000Y-85009925D01*
X165913000Y-85170075D01*
X165881758Y-85327142D01*
X165820470Y-85475102D01*
X165731498Y-85608258D01*
X165618258Y-85721498D01*
X165485102Y-85810470D01*
X165337142Y-85871758D01*
X165180075Y-85903000D01*
X165019925Y-85903000D01*
X164862858Y-85871758D01*
X164714898Y-85810470D01*
X164581742Y-85721498D01*
X164468502Y-85608258D01*
X164379530Y-85475102D01*
X164318242Y-85327142D01*
X164287000Y-85170075D01*
X164287000Y-85009925D01*
X164318242Y-84852858D01*
X164379530Y-84704898D01*
X164468502Y-84571742D01*
X164581742Y-84458502D01*
X164714898Y-84369530D01*
X164862858Y-84308242D01*
X165019925Y-84277000D01*
X165180075Y-84277000D01*
X165337142Y-84308242D01*
X165337142Y-84308242D01*
G37*
G36*
X231337142Y-84308242D02*
X231485102Y-84369530D01*
X231618258Y-84458502D01*
X231731498Y-84571742D01*
X231820470Y-84704898D01*
X231881758Y-84852858D01*
X231913000Y-85009925D01*
X231913000Y-85170075D01*
X231881758Y-85327142D01*
X231820470Y-85475102D01*
X231731498Y-85608258D01*
X231618258Y-85721498D01*
X231485102Y-85810470D01*
X231337142Y-85871758D01*
X231180075Y-85903000D01*
X231019925Y-85903000D01*
X230862858Y-85871758D01*
X230714898Y-85810470D01*
X230581742Y-85721498D01*
X230468502Y-85608258D01*
X230379530Y-85475102D01*
X230318242Y-85327142D01*
X230287000Y-85170075D01*
X230287000Y-85009925D01*
X230318242Y-84852858D01*
X230379530Y-84704898D01*
X230468502Y-84571742D01*
X230581742Y-84458502D01*
X230714898Y-84369530D01*
X230862858Y-84308242D01*
X231019925Y-84277000D01*
X231180075Y-84277000D01*
X231337142Y-84308242D01*
X231337142Y-84308242D01*
G37*
G36*
X244037142Y-84308242D02*
X244185102Y-84369530D01*
X244318258Y-84458502D01*
X244431498Y-84571742D01*
X244520470Y-84704898D01*
X244581758Y-84852858D01*
X244613000Y-85009925D01*
X244613000Y-85170075D01*
X244581758Y-85327142D01*
X244520470Y-85475102D01*
X244431498Y-85608258D01*
X244318258Y-85721498D01*
X244185102Y-85810470D01*
X244037142Y-85871758D01*
X243880075Y-85903000D01*
X243719925Y-85903000D01*
X243562858Y-85871758D01*
X243414898Y-85810470D01*
X243281742Y-85721498D01*
X243168502Y-85608258D01*
X243079530Y-85475102D01*
X243018242Y-85327142D01*
X242987000Y-85170075D01*
X242987000Y-85009925D01*
X243018242Y-84852858D01*
X243079530Y-84704898D01*
X243168502Y-84571742D01*
X243281742Y-84458502D01*
X243414898Y-84369530D01*
X243562858Y-84308242D01*
X243719925Y-84277000D01*
X243880075Y-84277000D01*
X244037142Y-84308242D01*
X244037142Y-84308242D01*
G37*
G36*
X238957142Y-84308242D02*
X239105102Y-84369530D01*
X239238258Y-84458502D01*
X239351498Y-84571742D01*
X239440470Y-84704898D01*
X239501758Y-84852858D01*
X239533000Y-85009925D01*
X239533000Y-85170075D01*
X239501758Y-85327142D01*
X239440470Y-85475102D01*
X239351498Y-85608258D01*
X239238258Y-85721498D01*
X239105102Y-85810470D01*
X238957142Y-85871758D01*
X238800075Y-85903000D01*
X238639925Y-85903000D01*
X238482858Y-85871758D01*
X238334898Y-85810470D01*
X238201742Y-85721498D01*
X238088502Y-85608258D01*
X237999530Y-85475102D01*
X237938242Y-85327142D01*
X237907000Y-85170075D01*
X237907000Y-85009925D01*
X237938242Y-84852858D01*
X237999530Y-84704898D01*
X238088502Y-84571742D01*
X238201742Y-84458502D01*
X238334898Y-84369530D01*
X238482858Y-84308242D01*
X238639925Y-84277000D01*
X238800075Y-84277000D01*
X238957142Y-84308242D01*
X238957142Y-84308242D01*
G37*
G36*
X236417142Y-84308242D02*
X236565102Y-84369530D01*
X236698258Y-84458502D01*
X236811498Y-84571742D01*
X236900470Y-84704898D01*
X236961758Y-84852858D01*
X236993000Y-85009925D01*
X236993000Y-85170075D01*
X236961758Y-85327142D01*
X236900470Y-85475102D01*
X236811498Y-85608258D01*
X236698258Y-85721498D01*
X236565102Y-85810470D01*
X236417142Y-85871758D01*
X236260075Y-85903000D01*
X236099925Y-85903000D01*
X235942858Y-85871758D01*
X235794898Y-85810470D01*
X235661742Y-85721498D01*
X235548502Y-85608258D01*
X235459530Y-85475102D01*
X235398242Y-85327142D01*
X235367000Y-85170075D01*
X235367000Y-85009925D01*
X235398242Y-84852858D01*
X235459530Y-84704898D01*
X235548502Y-84571742D01*
X235661742Y-84458502D01*
X235794898Y-84369530D01*
X235942858Y-84308242D01*
X236099925Y-84277000D01*
X236260075Y-84277000D01*
X236417142Y-84308242D01*
X236417142Y-84308242D01*
G37*
G36*
X233877142Y-84308242D02*
X234025102Y-84369530D01*
X234158258Y-84458502D01*
X234271498Y-84571742D01*
X234360470Y-84704898D01*
X234421758Y-84852858D01*
X234453000Y-85009925D01*
X234453000Y-85170075D01*
X234421758Y-85327142D01*
X234360470Y-85475102D01*
X234271498Y-85608258D01*
X234158258Y-85721498D01*
X234025102Y-85810470D01*
X233877142Y-85871758D01*
X233720075Y-85903000D01*
X233559925Y-85903000D01*
X233402858Y-85871758D01*
X233254898Y-85810470D01*
X233121742Y-85721498D01*
X233008502Y-85608258D01*
X232919530Y-85475102D01*
X232858242Y-85327142D01*
X232827000Y-85170075D01*
X232827000Y-85009925D01*
X232858242Y-84852858D01*
X232919530Y-84704898D01*
X233008502Y-84571742D01*
X233121742Y-84458502D01*
X233254898Y-84369530D01*
X233402858Y-84308242D01*
X233559925Y-84277000D01*
X233720075Y-84277000D01*
X233877142Y-84308242D01*
X233877142Y-84308242D01*
G37*
G36*
X178037142Y-84308242D02*
X178185102Y-84369530D01*
X178318258Y-84458502D01*
X178431498Y-84571742D01*
X178520470Y-84704898D01*
X178581758Y-84852858D01*
X178613000Y-85009925D01*
X178613000Y-85170075D01*
X178581758Y-85327142D01*
X178520470Y-85475102D01*
X178431498Y-85608258D01*
X178318258Y-85721498D01*
X178185102Y-85810470D01*
X178037142Y-85871758D01*
X177880075Y-85903000D01*
X177719925Y-85903000D01*
X177562858Y-85871758D01*
X177414898Y-85810470D01*
X177281742Y-85721498D01*
X177168502Y-85608258D01*
X177079530Y-85475102D01*
X177018242Y-85327142D01*
X176987000Y-85170075D01*
X176987000Y-85009925D01*
X177018242Y-84852858D01*
X177079530Y-84704898D01*
X177168502Y-84571742D01*
X177281742Y-84458502D01*
X177414898Y-84369530D01*
X177562858Y-84308242D01*
X177719925Y-84277000D01*
X177880075Y-84277000D01*
X178037142Y-84308242D01*
X178037142Y-84308242D01*
G37*
G36*
X203417142Y-84308242D02*
X203565102Y-84369530D01*
X203698258Y-84458502D01*
X203811498Y-84571742D01*
X203900470Y-84704898D01*
X203961758Y-84852858D01*
X203993000Y-85009925D01*
X203993000Y-85170075D01*
X203961758Y-85327142D01*
X203900470Y-85475102D01*
X203811498Y-85608258D01*
X203698258Y-85721498D01*
X203565102Y-85810470D01*
X203417142Y-85871758D01*
X203260075Y-85903000D01*
X203099925Y-85903000D01*
X202942858Y-85871758D01*
X202794898Y-85810470D01*
X202661742Y-85721498D01*
X202548502Y-85608258D01*
X202459530Y-85475102D01*
X202398242Y-85327142D01*
X202367000Y-85170075D01*
X202367000Y-85009925D01*
X202398242Y-84852858D01*
X202459530Y-84704898D01*
X202548502Y-84571742D01*
X202661742Y-84458502D01*
X202794898Y-84369530D01*
X202942858Y-84308242D01*
X203099925Y-84277000D01*
X203260075Y-84277000D01*
X203417142Y-84308242D01*
X203417142Y-84308242D01*
G37*
G36*
X200877142Y-84308242D02*
X201025102Y-84369530D01*
X201158258Y-84458502D01*
X201271498Y-84571742D01*
X201360470Y-84704898D01*
X201421758Y-84852858D01*
X201453000Y-85009925D01*
X201453000Y-85170075D01*
X201421758Y-85327142D01*
X201360470Y-85475102D01*
X201271498Y-85608258D01*
X201158258Y-85721498D01*
X201025102Y-85810470D01*
X200877142Y-85871758D01*
X200720075Y-85903000D01*
X200559925Y-85903000D01*
X200402858Y-85871758D01*
X200254898Y-85810470D01*
X200121742Y-85721498D01*
X200008502Y-85608258D01*
X199919530Y-85475102D01*
X199858242Y-85327142D01*
X199827000Y-85170075D01*
X199827000Y-85009925D01*
X199858242Y-84852858D01*
X199919530Y-84704898D01*
X200008502Y-84571742D01*
X200121742Y-84458502D01*
X200254898Y-84369530D01*
X200402858Y-84308242D01*
X200559925Y-84277000D01*
X200720075Y-84277000D01*
X200877142Y-84308242D01*
X200877142Y-84308242D01*
G37*
G36*
X167877142Y-84308242D02*
X168025102Y-84369530D01*
X168158258Y-84458502D01*
X168271498Y-84571742D01*
X168360470Y-84704898D01*
X168421758Y-84852858D01*
X168453000Y-85009925D01*
X168453000Y-85170075D01*
X168421758Y-85327142D01*
X168360470Y-85475102D01*
X168271498Y-85608258D01*
X168158258Y-85721498D01*
X168025102Y-85810470D01*
X167877142Y-85871758D01*
X167720075Y-85903000D01*
X167559925Y-85903000D01*
X167402858Y-85871758D01*
X167254898Y-85810470D01*
X167121742Y-85721498D01*
X167008502Y-85608258D01*
X166919530Y-85475102D01*
X166858242Y-85327142D01*
X166827000Y-85170075D01*
X166827000Y-85009925D01*
X166858242Y-84852858D01*
X166919530Y-84704898D01*
X167008502Y-84571742D01*
X167121742Y-84458502D01*
X167254898Y-84369530D01*
X167402858Y-84308242D01*
X167559925Y-84277000D01*
X167720075Y-84277000D01*
X167877142Y-84308242D01*
X167877142Y-84308242D01*
G37*
G36*
X175497142Y-84308242D02*
X175645102Y-84369530D01*
X175778258Y-84458502D01*
X175891498Y-84571742D01*
X175980470Y-84704898D01*
X176041758Y-84852858D01*
X176073000Y-85009925D01*
X176073000Y-85170075D01*
X176041758Y-85327142D01*
X175980470Y-85475102D01*
X175891498Y-85608258D01*
X175778258Y-85721498D01*
X175645102Y-85810470D01*
X175497142Y-85871758D01*
X175340075Y-85903000D01*
X175179925Y-85903000D01*
X175022858Y-85871758D01*
X174874898Y-85810470D01*
X174741742Y-85721498D01*
X174628502Y-85608258D01*
X174539530Y-85475102D01*
X174478242Y-85327142D01*
X174447000Y-85170075D01*
X174447000Y-85009925D01*
X174478242Y-84852858D01*
X174539530Y-84704898D01*
X174628502Y-84571742D01*
X174741742Y-84458502D01*
X174874898Y-84369530D01*
X175022858Y-84308242D01*
X175179925Y-84277000D01*
X175340075Y-84277000D01*
X175497142Y-84308242D01*
X175497142Y-84308242D01*
G37*
G36*
X172957142Y-84308242D02*
X173105102Y-84369530D01*
X173238258Y-84458502D01*
X173351498Y-84571742D01*
X173440470Y-84704898D01*
X173501758Y-84852858D01*
X173533000Y-85009925D01*
X173533000Y-85170075D01*
X173501758Y-85327142D01*
X173440470Y-85475102D01*
X173351498Y-85608258D01*
X173238258Y-85721498D01*
X173105102Y-85810470D01*
X172957142Y-85871758D01*
X172800075Y-85903000D01*
X172639925Y-85903000D01*
X172482858Y-85871758D01*
X172334898Y-85810470D01*
X172201742Y-85721498D01*
X172088502Y-85608258D01*
X171999530Y-85475102D01*
X171938242Y-85327142D01*
X171907000Y-85170075D01*
X171907000Y-85009925D01*
X171938242Y-84852858D01*
X171999530Y-84704898D01*
X172088502Y-84571742D01*
X172201742Y-84458502D01*
X172334898Y-84369530D01*
X172482858Y-84308242D01*
X172639925Y-84277000D01*
X172800075Y-84277000D01*
X172957142Y-84308242D01*
X172957142Y-84308242D01*
G37*
G36*
X170417142Y-84308242D02*
X170565102Y-84369530D01*
X170698258Y-84458502D01*
X170811498Y-84571742D01*
X170900470Y-84704898D01*
X170961758Y-84852858D01*
X170993000Y-85009925D01*
X170993000Y-85170075D01*
X170961758Y-85327142D01*
X170900470Y-85475102D01*
X170811498Y-85608258D01*
X170698258Y-85721498D01*
X170565102Y-85810470D01*
X170417142Y-85871758D01*
X170260075Y-85903000D01*
X170099925Y-85903000D01*
X169942858Y-85871758D01*
X169794898Y-85810470D01*
X169661742Y-85721498D01*
X169548502Y-85608258D01*
X169459530Y-85475102D01*
X169398242Y-85327142D01*
X169367000Y-85170075D01*
X169367000Y-85009925D01*
X169398242Y-84852858D01*
X169459530Y-84704898D01*
X169548502Y-84571742D01*
X169661742Y-84458502D01*
X169794898Y-84369530D01*
X169942858Y-84308242D01*
X170099925Y-84277000D01*
X170260075Y-84277000D01*
X170417142Y-84308242D01*
X170417142Y-84308242D01*
G37*
G36*
X211037142Y-84308242D02*
X211185102Y-84369530D01*
X211318258Y-84458502D01*
X211431498Y-84571742D01*
X211520470Y-84704898D01*
X211581758Y-84852858D01*
X211613000Y-85009925D01*
X211613000Y-85170075D01*
X211581758Y-85327142D01*
X211520470Y-85475102D01*
X211431498Y-85608258D01*
X211318258Y-85721498D01*
X211185102Y-85810470D01*
X211037142Y-85871758D01*
X210880075Y-85903000D01*
X210719925Y-85903000D01*
X210562858Y-85871758D01*
X210414898Y-85810470D01*
X210281742Y-85721498D01*
X210168502Y-85608258D01*
X210079530Y-85475102D01*
X210018242Y-85327142D01*
X209987000Y-85170075D01*
X209987000Y-85009925D01*
X210018242Y-84852858D01*
X210079530Y-84704898D01*
X210168502Y-84571742D01*
X210281742Y-84458502D01*
X210414898Y-84369530D01*
X210562858Y-84308242D01*
X210719925Y-84277000D01*
X210880075Y-84277000D01*
X211037142Y-84308242D01*
X211037142Y-84308242D01*
G37*
G36*
X208497142Y-84308242D02*
X208645102Y-84369530D01*
X208778258Y-84458502D01*
X208891498Y-84571742D01*
X208980470Y-84704898D01*
X209041758Y-84852858D01*
X209073000Y-85009925D01*
X209073000Y-85170075D01*
X209041758Y-85327142D01*
X208980470Y-85475102D01*
X208891498Y-85608258D01*
X208778258Y-85721498D01*
X208645102Y-85810470D01*
X208497142Y-85871758D01*
X208340075Y-85903000D01*
X208179925Y-85903000D01*
X208022858Y-85871758D01*
X207874898Y-85810470D01*
X207741742Y-85721498D01*
X207628502Y-85608258D01*
X207539530Y-85475102D01*
X207478242Y-85327142D01*
X207447000Y-85170075D01*
X207447000Y-85009925D01*
X207478242Y-84852858D01*
X207539530Y-84704898D01*
X207628502Y-84571742D01*
X207741742Y-84458502D01*
X207874898Y-84369530D01*
X208022858Y-84308242D01*
X208179925Y-84277000D01*
X208340075Y-84277000D01*
X208497142Y-84308242D01*
X208497142Y-84308242D01*
G37*
G36*
X205957142Y-84308242D02*
X206105102Y-84369530D01*
X206238258Y-84458502D01*
X206351498Y-84571742D01*
X206440470Y-84704898D01*
X206501758Y-84852858D01*
X206533000Y-85009925D01*
X206533000Y-85170075D01*
X206501758Y-85327142D01*
X206440470Y-85475102D01*
X206351498Y-85608258D01*
X206238258Y-85721498D01*
X206105102Y-85810470D01*
X205957142Y-85871758D01*
X205800075Y-85903000D01*
X205639925Y-85903000D01*
X205482858Y-85871758D01*
X205334898Y-85810470D01*
X205201742Y-85721498D01*
X205088502Y-85608258D01*
X204999530Y-85475102D01*
X204938242Y-85327142D01*
X204907000Y-85170075D01*
X204907000Y-85009925D01*
X204938242Y-84852858D01*
X204999530Y-84704898D01*
X205088502Y-84571742D01*
X205201742Y-84458502D01*
X205334898Y-84369530D01*
X205482858Y-84308242D01*
X205639925Y-84277000D01*
X205800075Y-84277000D01*
X205957142Y-84308242D01*
X205957142Y-84308242D01*
G37*
G36*
X198314795Y-37020156D02*
X198421150Y-37041311D01*
X198491990Y-37070654D01*
X198621516Y-37124305D01*
X198801850Y-37244801D01*
X198955199Y-37398150D01*
X199075695Y-37578484D01*
X199158689Y-37778851D01*
X199201000Y-37991560D01*
X199201000Y-38208440D01*
X199158689Y-38421149D01*
X199075695Y-38621516D01*
X198955199Y-38801850D01*
X198801850Y-38955199D01*
X198621516Y-39075695D01*
X198491990Y-39129346D01*
X198421150Y-39158689D01*
X198314795Y-39179844D01*
X198208440Y-39201000D01*
X197991560Y-39201000D01*
X197885205Y-39179844D01*
X197778850Y-39158689D01*
X197708010Y-39129346D01*
X197578484Y-39075695D01*
X197398150Y-38955199D01*
X197244801Y-38801850D01*
X197124305Y-38621516D01*
X197041311Y-38421149D01*
X196999000Y-38208440D01*
X196999000Y-37991560D01*
X197041311Y-37778851D01*
X197124305Y-37578484D01*
X197244801Y-37398150D01*
X197398150Y-37244801D01*
X197578484Y-37124305D01*
X197708010Y-37070654D01*
X197778850Y-37041311D01*
X197885206Y-37020155D01*
X197991560Y-36999000D01*
X198208440Y-36999000D01*
X198314795Y-37020156D01*
X198314795Y-37020156D01*
G37*
G36*
X200854795Y-37020156D02*
X200961150Y-37041311D01*
X201031990Y-37070654D01*
X201161516Y-37124305D01*
X201341850Y-37244801D01*
X201495199Y-37398150D01*
X201615695Y-37578484D01*
X201698689Y-37778851D01*
X201741000Y-37991560D01*
X201741000Y-38208440D01*
X201698689Y-38421149D01*
X201615695Y-38621516D01*
X201495199Y-38801850D01*
X201341850Y-38955199D01*
X201161516Y-39075695D01*
X201031990Y-39129346D01*
X200961150Y-39158689D01*
X200854795Y-39179844D01*
X200748440Y-39201000D01*
X200531560Y-39201000D01*
X200425205Y-39179844D01*
X200318850Y-39158689D01*
X200248010Y-39129346D01*
X200118484Y-39075695D01*
X199938150Y-38955199D01*
X199784801Y-38801850D01*
X199664305Y-38621516D01*
X199581311Y-38421149D01*
X199539000Y-38208440D01*
X199539000Y-37991560D01*
X199581311Y-37778851D01*
X199664305Y-37578484D01*
X199784801Y-37398150D01*
X199938150Y-37244801D01*
X200118484Y-37124305D01*
X200248010Y-37070654D01*
X200318850Y-37041311D01*
X200425206Y-37020155D01*
X200531560Y-36999000D01*
X200748440Y-36999000D01*
X200854795Y-37020156D01*
X200854795Y-37020156D01*
G37*
G36*
X203394795Y-37020156D02*
X203501150Y-37041311D01*
X203571990Y-37070654D01*
X203701516Y-37124305D01*
X203881850Y-37244801D01*
X204035199Y-37398150D01*
X204155695Y-37578484D01*
X204238689Y-37778851D01*
X204281000Y-37991560D01*
X204281000Y-38208440D01*
X204238689Y-38421149D01*
X204155695Y-38621516D01*
X204035199Y-38801850D01*
X203881850Y-38955199D01*
X203701516Y-39075695D01*
X203571990Y-39129346D01*
X203501150Y-39158689D01*
X203394795Y-39179844D01*
X203288440Y-39201000D01*
X203071560Y-39201000D01*
X202965205Y-39179844D01*
X202858850Y-39158689D01*
X202788010Y-39129346D01*
X202658484Y-39075695D01*
X202478150Y-38955199D01*
X202324801Y-38801850D01*
X202204305Y-38621516D01*
X202121311Y-38421149D01*
X202079000Y-38208440D01*
X202079000Y-37991560D01*
X202121311Y-37778851D01*
X202204305Y-37578484D01*
X202324801Y-37398150D01*
X202478150Y-37244801D01*
X202658484Y-37124305D01*
X202788010Y-37070654D01*
X202858850Y-37041311D01*
X202965206Y-37020155D01*
X203071560Y-36999000D01*
X203288440Y-36999000D01*
X203394795Y-37020156D01*
X203394795Y-37020156D01*
G37*
G36*
X205934795Y-37020156D02*
X206041150Y-37041311D01*
X206111990Y-37070654D01*
X206241516Y-37124305D01*
X206421850Y-37244801D01*
X206575199Y-37398150D01*
X206695695Y-37578484D01*
X206778689Y-37778851D01*
X206821000Y-37991560D01*
X206821000Y-38208440D01*
X206778689Y-38421149D01*
X206695695Y-38621516D01*
X206575199Y-38801850D01*
X206421850Y-38955199D01*
X206241516Y-39075695D01*
X206111990Y-39129346D01*
X206041150Y-39158689D01*
X205934795Y-39179844D01*
X205828440Y-39201000D01*
X205611560Y-39201000D01*
X205505205Y-39179844D01*
X205398850Y-39158689D01*
X205328010Y-39129346D01*
X205198484Y-39075695D01*
X205018150Y-38955199D01*
X204864801Y-38801850D01*
X204744305Y-38621516D01*
X204661311Y-38421149D01*
X204619000Y-38208440D01*
X204619000Y-37991560D01*
X204661311Y-37778851D01*
X204744305Y-37578484D01*
X204864801Y-37398150D01*
X205018150Y-37244801D01*
X205198484Y-37124305D01*
X205328010Y-37070654D01*
X205398850Y-37041311D01*
X205505206Y-37020155D01*
X205611560Y-36999000D01*
X205828440Y-36999000D01*
X205934795Y-37020156D01*
X205934795Y-37020156D01*
G37*
G36*
X208474795Y-37020156D02*
X208581150Y-37041311D01*
X208651990Y-37070654D01*
X208781516Y-37124305D01*
X208961850Y-37244801D01*
X209115199Y-37398150D01*
X209235695Y-37578484D01*
X209318689Y-37778851D01*
X209361000Y-37991560D01*
X209361000Y-38208440D01*
X209318689Y-38421149D01*
X209235695Y-38621516D01*
X209115199Y-38801850D01*
X208961850Y-38955199D01*
X208781516Y-39075695D01*
X208651990Y-39129346D01*
X208581150Y-39158689D01*
X208474795Y-39179844D01*
X208368440Y-39201000D01*
X208151560Y-39201000D01*
X208045205Y-39179844D01*
X207938850Y-39158689D01*
X207868010Y-39129346D01*
X207738484Y-39075695D01*
X207558150Y-38955199D01*
X207404801Y-38801850D01*
X207284305Y-38621516D01*
X207201311Y-38421149D01*
X207159000Y-38208440D01*
X207159000Y-37991560D01*
X207201311Y-37778851D01*
X207284305Y-37578484D01*
X207404801Y-37398150D01*
X207558150Y-37244801D01*
X207738484Y-37124305D01*
X207868010Y-37070654D01*
X207938850Y-37041311D01*
X208045206Y-37020155D01*
X208151560Y-36999000D01*
X208368440Y-36999000D01*
X208474795Y-37020156D01*
X208474795Y-37020156D01*
G37*
G36*
X211014795Y-37020156D02*
X211121150Y-37041311D01*
X211191990Y-37070654D01*
X211321516Y-37124305D01*
X211501850Y-37244801D01*
X211655199Y-37398150D01*
X211775695Y-37578484D01*
X211858689Y-37778851D01*
X211901000Y-37991560D01*
X211901000Y-38208440D01*
X211858689Y-38421149D01*
X211775695Y-38621516D01*
X211655199Y-38801850D01*
X211501850Y-38955199D01*
X211321516Y-39075695D01*
X211191990Y-39129346D01*
X211121150Y-39158689D01*
X211014795Y-39179844D01*
X210908440Y-39201000D01*
X210691560Y-39201000D01*
X210585205Y-39179844D01*
X210478850Y-39158689D01*
X210408010Y-39129346D01*
X210278484Y-39075695D01*
X210098150Y-38955199D01*
X209944801Y-38801850D01*
X209824305Y-38621516D01*
X209741311Y-38421149D01*
X209699000Y-38208440D01*
X209699000Y-37991560D01*
X209741311Y-37778851D01*
X209824305Y-37578484D01*
X209944801Y-37398150D01*
X210098150Y-37244801D01*
X210278484Y-37124305D01*
X210408010Y-37070654D01*
X210478850Y-37041311D01*
X210585206Y-37020155D01*
X210691560Y-36999000D01*
X210908440Y-36999000D01*
X211014795Y-37020156D01*
X211014795Y-37020156D01*
G37*
G36*
X231314795Y-37020156D02*
X231421150Y-37041311D01*
X231491990Y-37070654D01*
X231621516Y-37124305D01*
X231801850Y-37244801D01*
X231955199Y-37398150D01*
X232075695Y-37578484D01*
X232158689Y-37778851D01*
X232201000Y-37991560D01*
X232201000Y-38208440D01*
X232158689Y-38421149D01*
X232075695Y-38621516D01*
X231955199Y-38801850D01*
X231801850Y-38955199D01*
X231621516Y-39075695D01*
X231491990Y-39129346D01*
X231421150Y-39158689D01*
X231314795Y-39179844D01*
X231208440Y-39201000D01*
X230991560Y-39201000D01*
X230885205Y-39179844D01*
X230778850Y-39158689D01*
X230708010Y-39129346D01*
X230578484Y-39075695D01*
X230398150Y-38955199D01*
X230244801Y-38801850D01*
X230124305Y-38621516D01*
X230041311Y-38421149D01*
X229999000Y-38208440D01*
X229999000Y-37991560D01*
X230041311Y-37778851D01*
X230124305Y-37578484D01*
X230244801Y-37398150D01*
X230398150Y-37244801D01*
X230578484Y-37124305D01*
X230708010Y-37070654D01*
X230778850Y-37041311D01*
X230885206Y-37020155D01*
X230991560Y-36999000D01*
X231208440Y-36999000D01*
X231314795Y-37020156D01*
X231314795Y-37020156D01*
G37*
G36*
X233854795Y-37020156D02*
X233961150Y-37041311D01*
X234031990Y-37070654D01*
X234161516Y-37124305D01*
X234341850Y-37244801D01*
X234495199Y-37398150D01*
X234615695Y-37578484D01*
X234698689Y-37778851D01*
X234741000Y-37991560D01*
X234741000Y-38208440D01*
X234698689Y-38421149D01*
X234615695Y-38621516D01*
X234495199Y-38801850D01*
X234341850Y-38955199D01*
X234161516Y-39075695D01*
X234031990Y-39129346D01*
X233961150Y-39158689D01*
X233854795Y-39179844D01*
X233748440Y-39201000D01*
X233531560Y-39201000D01*
X233425205Y-39179844D01*
X233318850Y-39158689D01*
X233248010Y-39129346D01*
X233118484Y-39075695D01*
X232938150Y-38955199D01*
X232784801Y-38801850D01*
X232664305Y-38621516D01*
X232581311Y-38421149D01*
X232539000Y-38208440D01*
X232539000Y-37991560D01*
X232581311Y-37778851D01*
X232664305Y-37578484D01*
X232784801Y-37398150D01*
X232938150Y-37244801D01*
X233118484Y-37124305D01*
X233248010Y-37070654D01*
X233318850Y-37041311D01*
X233425206Y-37020155D01*
X233531560Y-36999000D01*
X233748440Y-36999000D01*
X233854795Y-37020156D01*
X233854795Y-37020156D01*
G37*
G36*
X236394795Y-37020156D02*
X236501150Y-37041311D01*
X236571990Y-37070654D01*
X236701516Y-37124305D01*
X236881850Y-37244801D01*
X237035199Y-37398150D01*
X237155695Y-37578484D01*
X237238689Y-37778851D01*
X237281000Y-37991560D01*
X237281000Y-38208440D01*
X237238689Y-38421149D01*
X237155695Y-38621516D01*
X237035199Y-38801850D01*
X236881850Y-38955199D01*
X236701516Y-39075695D01*
X236571990Y-39129346D01*
X236501150Y-39158689D01*
X236394795Y-39179844D01*
X236288440Y-39201000D01*
X236071560Y-39201000D01*
X235965205Y-39179844D01*
X235858850Y-39158689D01*
X235788010Y-39129346D01*
X235658484Y-39075695D01*
X235478150Y-38955199D01*
X235324801Y-38801850D01*
X235204305Y-38621516D01*
X235121311Y-38421149D01*
X235079000Y-38208440D01*
X235079000Y-37991560D01*
X235121311Y-37778851D01*
X235204305Y-37578484D01*
X235324801Y-37398150D01*
X235478150Y-37244801D01*
X235658484Y-37124305D01*
X235788010Y-37070654D01*
X235858850Y-37041311D01*
X235965206Y-37020155D01*
X236071560Y-36999000D01*
X236288440Y-36999000D01*
X236394795Y-37020156D01*
X236394795Y-37020156D01*
G37*
G36*
X238934795Y-37020156D02*
X239041150Y-37041311D01*
X239111990Y-37070654D01*
X239241516Y-37124305D01*
X239421850Y-37244801D01*
X239575199Y-37398150D01*
X239695695Y-37578484D01*
X239778689Y-37778851D01*
X239821000Y-37991560D01*
X239821000Y-38208440D01*
X239778689Y-38421149D01*
X239695695Y-38621516D01*
X239575199Y-38801850D01*
X239421850Y-38955199D01*
X239241516Y-39075695D01*
X239111990Y-39129346D01*
X239041150Y-39158689D01*
X238934795Y-39179844D01*
X238828440Y-39201000D01*
X238611560Y-39201000D01*
X238505205Y-39179844D01*
X238398850Y-39158689D01*
X238328010Y-39129346D01*
X238198484Y-39075695D01*
X238018150Y-38955199D01*
X237864801Y-38801850D01*
X237744305Y-38621516D01*
X237661311Y-38421149D01*
X237619000Y-38208440D01*
X237619000Y-37991560D01*
X237661311Y-37778851D01*
X237744305Y-37578484D01*
X237864801Y-37398150D01*
X238018150Y-37244801D01*
X238198484Y-37124305D01*
X238328010Y-37070654D01*
X238398850Y-37041311D01*
X238505206Y-37020155D01*
X238611560Y-36999000D01*
X238828440Y-36999000D01*
X238934795Y-37020156D01*
X238934795Y-37020156D01*
G37*
G36*
X241474795Y-37020156D02*
X241581150Y-37041311D01*
X241651990Y-37070654D01*
X241781516Y-37124305D01*
X241961850Y-37244801D01*
X242115199Y-37398150D01*
X242235695Y-37578484D01*
X242318689Y-37778851D01*
X242361000Y-37991560D01*
X242361000Y-38208440D01*
X242318689Y-38421149D01*
X242235695Y-38621516D01*
X242115199Y-38801850D01*
X241961850Y-38955199D01*
X241781516Y-39075695D01*
X241651990Y-39129346D01*
X241581150Y-39158689D01*
X241474795Y-39179844D01*
X241368440Y-39201000D01*
X241151560Y-39201000D01*
X241045205Y-39179844D01*
X240938850Y-39158689D01*
X240868010Y-39129346D01*
X240738484Y-39075695D01*
X240558150Y-38955199D01*
X240404801Y-38801850D01*
X240284305Y-38621516D01*
X240201311Y-38421149D01*
X240159000Y-38208440D01*
X240159000Y-37991560D01*
X240201311Y-37778851D01*
X240284305Y-37578484D01*
X240404801Y-37398150D01*
X240558150Y-37244801D01*
X240738484Y-37124305D01*
X240868010Y-37070654D01*
X240938850Y-37041311D01*
X241045206Y-37020155D01*
X241151560Y-36999000D01*
X241368440Y-36999000D01*
X241474795Y-37020156D01*
X241474795Y-37020156D01*
G37*
G36*
X244014795Y-37020156D02*
X244121150Y-37041311D01*
X244191990Y-37070654D01*
X244321516Y-37124305D01*
X244501850Y-37244801D01*
X244655199Y-37398150D01*
X244775695Y-37578484D01*
X244858689Y-37778851D01*
X244901000Y-37991560D01*
X244901000Y-38208440D01*
X244858689Y-38421149D01*
X244775695Y-38621516D01*
X244655199Y-38801850D01*
X244501850Y-38955199D01*
X244321516Y-39075695D01*
X244191990Y-39129346D01*
X244121150Y-39158689D01*
X244014795Y-39179844D01*
X243908440Y-39201000D01*
X243691560Y-39201000D01*
X243585205Y-39179844D01*
X243478850Y-39158689D01*
X243408010Y-39129346D01*
X243278484Y-39075695D01*
X243098150Y-38955199D01*
X242944801Y-38801850D01*
X242824305Y-38621516D01*
X242741311Y-38421149D01*
X242699000Y-38208440D01*
X242699000Y-37991560D01*
X242741311Y-37778851D01*
X242824305Y-37578484D01*
X242944801Y-37398150D01*
X243098150Y-37244801D01*
X243278484Y-37124305D01*
X243408010Y-37070654D01*
X243478850Y-37041311D01*
X243585206Y-37020155D01*
X243691560Y-36999000D01*
X243908440Y-36999000D01*
X244014795Y-37020156D01*
X244014795Y-37020156D01*
G37*
G36*
X178014795Y-37020156D02*
X178121150Y-37041311D01*
X178191990Y-37070654D01*
X178321516Y-37124305D01*
X178501850Y-37244801D01*
X178655199Y-37398150D01*
X178775695Y-37578484D01*
X178858689Y-37778851D01*
X178901000Y-37991560D01*
X178901000Y-38208440D01*
X178858689Y-38421149D01*
X178775695Y-38621516D01*
X178655199Y-38801850D01*
X178501850Y-38955199D01*
X178321516Y-39075695D01*
X178191990Y-39129346D01*
X178121150Y-39158689D01*
X178014795Y-39179844D01*
X177908440Y-39201000D01*
X177691560Y-39201000D01*
X177585205Y-39179844D01*
X177478850Y-39158689D01*
X177408010Y-39129346D01*
X177278484Y-39075695D01*
X177098150Y-38955199D01*
X176944801Y-38801850D01*
X176824305Y-38621516D01*
X176741311Y-38421149D01*
X176699000Y-38208440D01*
X176699000Y-37991560D01*
X176741311Y-37778851D01*
X176824305Y-37578484D01*
X176944801Y-37398150D01*
X177098150Y-37244801D01*
X177278484Y-37124305D01*
X177408010Y-37070654D01*
X177478850Y-37041311D01*
X177585206Y-37020155D01*
X177691560Y-36999000D01*
X177908440Y-36999000D01*
X178014795Y-37020156D01*
X178014795Y-37020156D01*
G37*
G36*
X165314795Y-37020156D02*
X165421150Y-37041311D01*
X165491990Y-37070654D01*
X165621516Y-37124305D01*
X165801850Y-37244801D01*
X165955199Y-37398150D01*
X166075695Y-37578484D01*
X166158689Y-37778851D01*
X166201000Y-37991560D01*
X166201000Y-38208440D01*
X166158689Y-38421149D01*
X166075695Y-38621516D01*
X165955199Y-38801850D01*
X165801850Y-38955199D01*
X165621516Y-39075695D01*
X165491990Y-39129346D01*
X165421150Y-39158689D01*
X165314795Y-39179844D01*
X165208440Y-39201000D01*
X164991560Y-39201000D01*
X164885205Y-39179844D01*
X164778850Y-39158689D01*
X164708010Y-39129346D01*
X164578484Y-39075695D01*
X164398150Y-38955199D01*
X164244801Y-38801850D01*
X164124305Y-38621516D01*
X164041311Y-38421149D01*
X163999000Y-38208440D01*
X163999000Y-37991560D01*
X164041311Y-37778851D01*
X164124305Y-37578484D01*
X164244801Y-37398150D01*
X164398150Y-37244801D01*
X164578484Y-37124305D01*
X164708010Y-37070654D01*
X164778850Y-37041311D01*
X164885206Y-37020155D01*
X164991560Y-36999000D01*
X165208440Y-36999000D01*
X165314795Y-37020156D01*
X165314795Y-37020156D01*
G37*
G36*
X167854795Y-37020156D02*
X167961150Y-37041311D01*
X168031990Y-37070654D01*
X168161516Y-37124305D01*
X168341850Y-37244801D01*
X168495199Y-37398150D01*
X168615695Y-37578484D01*
X168698689Y-37778851D01*
X168741000Y-37991560D01*
X168741000Y-38208440D01*
X168698689Y-38421149D01*
X168615695Y-38621516D01*
X168495199Y-38801850D01*
X168341850Y-38955199D01*
X168161516Y-39075695D01*
X168031990Y-39129346D01*
X167961150Y-39158689D01*
X167854795Y-39179844D01*
X167748440Y-39201000D01*
X167531560Y-39201000D01*
X167425205Y-39179844D01*
X167318850Y-39158689D01*
X167248010Y-39129346D01*
X167118484Y-39075695D01*
X166938150Y-38955199D01*
X166784801Y-38801850D01*
X166664305Y-38621516D01*
X166581311Y-38421149D01*
X166539000Y-38208440D01*
X166539000Y-37991560D01*
X166581311Y-37778851D01*
X166664305Y-37578484D01*
X166784801Y-37398150D01*
X166938150Y-37244801D01*
X167118484Y-37124305D01*
X167248010Y-37070654D01*
X167318850Y-37041311D01*
X167425206Y-37020155D01*
X167531560Y-36999000D01*
X167748440Y-36999000D01*
X167854795Y-37020156D01*
X167854795Y-37020156D01*
G37*
G36*
X170394795Y-37020156D02*
X170501150Y-37041311D01*
X170571990Y-37070654D01*
X170701516Y-37124305D01*
X170881850Y-37244801D01*
X171035199Y-37398150D01*
X171155695Y-37578484D01*
X171238689Y-37778851D01*
X171281000Y-37991560D01*
X171281000Y-38208440D01*
X171238689Y-38421149D01*
X171155695Y-38621516D01*
X171035199Y-38801850D01*
X170881850Y-38955199D01*
X170701516Y-39075695D01*
X170571990Y-39129346D01*
X170501150Y-39158689D01*
X170394795Y-39179844D01*
X170288440Y-39201000D01*
X170071560Y-39201000D01*
X169965205Y-39179844D01*
X169858850Y-39158689D01*
X169788010Y-39129346D01*
X169658484Y-39075695D01*
X169478150Y-38955199D01*
X169324801Y-38801850D01*
X169204305Y-38621516D01*
X169121311Y-38421149D01*
X169079000Y-38208440D01*
X169079000Y-37991560D01*
X169121311Y-37778851D01*
X169204305Y-37578484D01*
X169324801Y-37398150D01*
X169478150Y-37244801D01*
X169658484Y-37124305D01*
X169788010Y-37070654D01*
X169858850Y-37041311D01*
X169965206Y-37020155D01*
X170071560Y-36999000D01*
X170288440Y-36999000D01*
X170394795Y-37020156D01*
X170394795Y-37020156D01*
G37*
G36*
X172934795Y-37020156D02*
X173041150Y-37041311D01*
X173111990Y-37070654D01*
X173241516Y-37124305D01*
X173421850Y-37244801D01*
X173575199Y-37398150D01*
X173695695Y-37578484D01*
X173778689Y-37778851D01*
X173821000Y-37991560D01*
X173821000Y-38208440D01*
X173778689Y-38421149D01*
X173695695Y-38621516D01*
X173575199Y-38801850D01*
X173421850Y-38955199D01*
X173241516Y-39075695D01*
X173111990Y-39129346D01*
X173041150Y-39158689D01*
X172934795Y-39179844D01*
X172828440Y-39201000D01*
X172611560Y-39201000D01*
X172505205Y-39179844D01*
X172398850Y-39158689D01*
X172328010Y-39129346D01*
X172198484Y-39075695D01*
X172018150Y-38955199D01*
X171864801Y-38801850D01*
X171744305Y-38621516D01*
X171661311Y-38421149D01*
X171619000Y-38208440D01*
X171619000Y-37991560D01*
X171661311Y-37778851D01*
X171744305Y-37578484D01*
X171864801Y-37398150D01*
X172018150Y-37244801D01*
X172198484Y-37124305D01*
X172328010Y-37070654D01*
X172398850Y-37041311D01*
X172505206Y-37020155D01*
X172611560Y-36999000D01*
X172828440Y-36999000D01*
X172934795Y-37020156D01*
X172934795Y-37020156D01*
G37*
G36*
X175474795Y-37020156D02*
X175581150Y-37041311D01*
X175651990Y-37070654D01*
X175781516Y-37124305D01*
X175961850Y-37244801D01*
X176115199Y-37398150D01*
X176235695Y-37578484D01*
X176318689Y-37778851D01*
X176361000Y-37991560D01*
X176361000Y-38208440D01*
X176318689Y-38421149D01*
X176235695Y-38621516D01*
X176115199Y-38801850D01*
X175961850Y-38955199D01*
X175781516Y-39075695D01*
X175651990Y-39129346D01*
X175581150Y-39158689D01*
X175474795Y-39179844D01*
X175368440Y-39201000D01*
X175151560Y-39201000D01*
X175045205Y-39179844D01*
X174938850Y-39158689D01*
X174868010Y-39129346D01*
X174738484Y-39075695D01*
X174558150Y-38955199D01*
X174404801Y-38801850D01*
X174284305Y-38621516D01*
X174201311Y-38421149D01*
X174159000Y-38208440D01*
X174159000Y-37991560D01*
X174201311Y-37778851D01*
X174284305Y-37578484D01*
X174404801Y-37398150D01*
X174558150Y-37244801D01*
X174738484Y-37124305D01*
X174868010Y-37070654D01*
X174938850Y-37041311D01*
X175045206Y-37020155D01*
X175151560Y-36999000D01*
X175368440Y-36999000D01*
X175474795Y-37020156D01*
X175474795Y-37020156D01*
G37*
M02*
