M48
;DRILL file {KiCad 5.0.2+dfsg1-1} date Sun 23 Aug 2020 12:27:07 PM CEST
;FORMAT={3:3/ absolute / metric / suppress leading zeros}
FMAT,2
METRIC,TZ
T1C0.400
T2C0.762
T3C1.100
T4C1.000
%
G90
G05
T1
X163830Y-71755
X163830Y-74930
X165735Y-104775
X167640Y-88900
X167640Y-118364
X169545Y-102870
X170180Y-95090
X170460Y-92990
X171028Y-97536
X171450Y-90170
X171615Y-91827
X171704Y-94996
X172212Y-118872
X172212Y-120396
X172250Y-54864
X172250Y-56464
X172720Y-97790
X173355Y-93345
X173736Y-99060
X173990Y-96520
X175260Y-74930
X175776Y-116840
X176530Y-88265
X177165Y-101600
X177165Y-104140
X177800Y-96520
X177800Y-99060
X177800Y-115570
X196830Y-71755
X196830Y-74930
X198735Y-104775
X200640Y-88900
X200640Y-118364
X202545Y-102870
X203180Y-95090
X203460Y-92990
X204028Y-97536
X204450Y-90170
X204615Y-91827
X204704Y-94996
X205212Y-118872
X205212Y-120396
X205250Y-54864
X205250Y-56464
X205720Y-97790
X206355Y-93345
X206736Y-99060
X206990Y-96520
X208260Y-74930
X208776Y-116840
X209530Y-88265
X210165Y-101600
X210165Y-104140
X210800Y-96520
X210800Y-99060
X210800Y-115570
X229830Y-71755
X229830Y-74930
X231735Y-104775
X233640Y-88900
X233640Y-118364
X235545Y-102870
X236180Y-95090
X236460Y-92990
X237028Y-97536
X237450Y-90170
X237615Y-91827
X237704Y-94996
X238212Y-118872
X238212Y-120396
X238250Y-54864
X238250Y-56464
X238720Y-97790
X239355Y-93345
X239736Y-99060
X239990Y-96520
X241260Y-74930
X241776Y-116840
X242530Y-88265
X243165Y-101600
X243165Y-104140
X243800Y-96520
X243800Y-99060
X243800Y-115570
T2
X196830Y-87630
X196830Y-90170
X196830Y-92710
X196830Y-95250
X196830Y-97790
X196830Y-100330
X196830Y-102870
X196830Y-105410
X196830Y-107950
X198100Y-85090
X200640Y-85090
X203180Y-85090
X205720Y-85090
X208260Y-85090
X210800Y-85090
X212070Y-87630
X212070Y-90170
X212070Y-92710
X212070Y-95250
X212070Y-97790
X212070Y-100330
X212070Y-102870
X212070Y-105410
X212070Y-107950
X163830Y-87630
X163830Y-90170
X163830Y-92710
X163830Y-95250
X163830Y-97790
X163830Y-100330
X163830Y-102870
X163830Y-105410
X163830Y-107950
X165100Y-85090
X167640Y-85090
X170180Y-85090
X172720Y-85090
X175260Y-85090
X177800Y-85090
X179070Y-87630
X179070Y-90170
X179070Y-92710
X179070Y-95250
X179070Y-97790
X179070Y-100330
X179070Y-102870
X179070Y-105410
X179070Y-107950
X229830Y-87630
X229830Y-90170
X229830Y-92710
X229830Y-95250
X229830Y-97790
X229830Y-100330
X229830Y-102870
X229830Y-105410
X229830Y-107950
X231100Y-85090
X233640Y-85090
X236180Y-85090
X238720Y-85090
X241260Y-85090
X243800Y-85090
X245070Y-87630
X245070Y-90170
X245070Y-92710
X245070Y-95250
X245070Y-97790
X245070Y-100330
X245070Y-102870
X245070Y-105410
X245070Y-107950
T3
X165100Y-38100
X167640Y-38100
X170180Y-38100
X172720Y-38100
X175260Y-38100
X177800Y-38100
X231100Y-38100
X233640Y-38100
X236180Y-38100
X238720Y-38100
X241260Y-38100
X243800Y-38100
X198100Y-38100
X200640Y-38100
X203180Y-38100
X205720Y-38100
X208260Y-38100
X210800Y-38100
T4
X235250Y-128230
X239650Y-128230
X202250Y-128230
X206650Y-128230
X169250Y-128230
X173650Y-128230
T0
M30
