G04 #@! TF.GenerationSoftware,KiCad,Pcbnew,5.0.2+dfsg1-1*
G04 #@! TF.CreationDate,2020-08-23T12:27:17+02:00*
G04 #@! TF.ProjectId,programmer,70726f67-7261-46d6-9d65-722e6b696361,rev?*
G04 #@! TF.SameCoordinates,Original*
G04 #@! TF.FileFunction,Copper,L2,Bot*
G04 #@! TF.FilePolarity,Positive*
%FSLAX46Y46*%
G04 Gerber Fmt 4.6, Leading zero omitted, Abs format (unit mm)*
G04 Created by KiCad (PCBNEW 5.0.2+dfsg1-1) date Sun 23 Aug 2020 12:27:17 PM CEST*
%MOMM*%
%LPD*%
G01*
G04 APERTURE LIST*
G04 #@! TA.AperFunction,NonConductor*
%ADD10C,0.300000*%
G04 #@! TD*
G04 #@! TA.AperFunction,ComponentPad*
%ADD11C,2.100000*%
G04 #@! TD*
G04 #@! TA.AperFunction,ComponentPad*
%ADD12C,1.524000*%
G04 #@! TD*
G04 #@! TA.AperFunction,ViaPad*
%ADD13C,0.800000*%
G04 #@! TD*
G04 #@! TA.AperFunction,Conductor*
%ADD14C,0.600000*%
G04 #@! TD*
G04 #@! TA.AperFunction,Conductor*
%ADD15C,0.400000*%
G04 #@! TD*
G04 #@! TA.AperFunction,Conductor*
%ADD16C,0.254000*%
G04 #@! TD*
G04 #@! TA.AperFunction,NonConductor*
%ADD17C,0.254000*%
G04 #@! TD*
G04 APERTURE END LIST*
D10*
X245045000Y-58579285D02*
X244973571Y-58507857D01*
X244759285Y-58365000D01*
X244616428Y-58293571D01*
X244402142Y-58222142D01*
X244045000Y-58150714D01*
X243759285Y-58150714D01*
X243402142Y-58222142D01*
X243187857Y-58293571D01*
X243045000Y-58365000D01*
X242830714Y-58507857D01*
X242759285Y-58579285D01*
X244402142Y-59793571D02*
X244473571Y-59650714D01*
X244473571Y-59365000D01*
X244402142Y-59222142D01*
X244330714Y-59150714D01*
X244187857Y-59079285D01*
X243759285Y-59079285D01*
X243616428Y-59150714D01*
X243545000Y-59222142D01*
X243473571Y-59365000D01*
X243473571Y-59650714D01*
X243545000Y-59793571D01*
X245045000Y-60293571D02*
X244973571Y-60365000D01*
X244759285Y-60507857D01*
X244616428Y-60579285D01*
X244402142Y-60650714D01*
X244045000Y-60722142D01*
X243759285Y-60722142D01*
X243402142Y-60650714D01*
X243187857Y-60579285D01*
X243045000Y-60507857D01*
X242830714Y-60365000D01*
X242759285Y-60293571D01*
X243116428Y-62507857D02*
X243045000Y-62579285D01*
X242973571Y-62722142D01*
X242973571Y-63079285D01*
X243045000Y-63222142D01*
X243116428Y-63293571D01*
X243259285Y-63365000D01*
X243402142Y-63365000D01*
X243616428Y-63293571D01*
X244473571Y-62436428D01*
X244473571Y-63365000D01*
X242973571Y-64293571D02*
X242973571Y-64436428D01*
X243045000Y-64579285D01*
X243116428Y-64650714D01*
X243259285Y-64722142D01*
X243545000Y-64793571D01*
X243902142Y-64793571D01*
X244187857Y-64722142D01*
X244330714Y-64650714D01*
X244402142Y-64579285D01*
X244473571Y-64436428D01*
X244473571Y-64293571D01*
X244402142Y-64150714D01*
X244330714Y-64079285D01*
X244187857Y-64007857D01*
X243902142Y-63936428D01*
X243545000Y-63936428D01*
X243259285Y-64007857D01*
X243116428Y-64079285D01*
X243045000Y-64150714D01*
X242973571Y-64293571D01*
X243116428Y-65365000D02*
X243045000Y-65436428D01*
X242973571Y-65579285D01*
X242973571Y-65936428D01*
X243045000Y-66079285D01*
X243116428Y-66150714D01*
X243259285Y-66222142D01*
X243402142Y-66222142D01*
X243616428Y-66150714D01*
X244473571Y-65293571D01*
X244473571Y-66222142D01*
X242973571Y-67150714D02*
X242973571Y-67293571D01*
X243045000Y-67436428D01*
X243116428Y-67507857D01*
X243259285Y-67579285D01*
X243545000Y-67650714D01*
X243902142Y-67650714D01*
X244187857Y-67579285D01*
X244330714Y-67507857D01*
X244402142Y-67436428D01*
X244473571Y-67293571D01*
X244473571Y-67150714D01*
X244402142Y-67007857D01*
X244330714Y-66936428D01*
X244187857Y-66865000D01*
X243902142Y-66793571D01*
X243545000Y-66793571D01*
X243259285Y-66865000D01*
X243116428Y-66936428D01*
X243045000Y-67007857D01*
X242973571Y-67150714D01*
X245523571Y-59186428D02*
X245523571Y-60043571D01*
X247023571Y-59615000D02*
X245523571Y-59615000D01*
X246880714Y-60543571D02*
X246952142Y-60615000D01*
X247023571Y-60543571D01*
X246952142Y-60472142D01*
X246880714Y-60543571D01*
X247023571Y-60543571D01*
X246237857Y-61757857D02*
X246309285Y-61972142D01*
X246380714Y-62043571D01*
X246523571Y-62115000D01*
X246737857Y-62115000D01*
X246880714Y-62043571D01*
X246952142Y-61972142D01*
X247023571Y-61829285D01*
X247023571Y-61257857D01*
X245523571Y-61257857D01*
X245523571Y-61757857D01*
X245595000Y-61900714D01*
X245666428Y-61972142D01*
X245809285Y-62043571D01*
X245952142Y-62043571D01*
X246095000Y-61972142D01*
X246166428Y-61900714D01*
X246237857Y-61757857D01*
X246237857Y-61257857D01*
X247023571Y-62972142D02*
X246952142Y-62829285D01*
X246880714Y-62757857D01*
X246737857Y-62686428D01*
X246309285Y-62686428D01*
X246166428Y-62757857D01*
X246095000Y-62829285D01*
X246023571Y-62972142D01*
X246023571Y-63186428D01*
X246095000Y-63329285D01*
X246166428Y-63400714D01*
X246309285Y-63472142D01*
X246737857Y-63472142D01*
X246880714Y-63400714D01*
X246952142Y-63329285D01*
X247023571Y-63186428D01*
X247023571Y-62972142D01*
X247023571Y-64115000D02*
X246023571Y-64115000D01*
X246309285Y-64115000D02*
X246166428Y-64186428D01*
X246095000Y-64257857D01*
X246023571Y-64400714D01*
X246023571Y-64543571D01*
X247023571Y-65043571D02*
X246023571Y-65043571D01*
X246166428Y-65043571D02*
X246095000Y-65115000D01*
X246023571Y-65257857D01*
X246023571Y-65472142D01*
X246095000Y-65615000D01*
X246237857Y-65686428D01*
X247023571Y-65686428D01*
X246237857Y-65686428D02*
X246095000Y-65757857D01*
X246023571Y-65900714D01*
X246023571Y-66115000D01*
X246095000Y-66257857D01*
X246237857Y-66329285D01*
X247023571Y-66329285D01*
X227963571Y-57170571D02*
X226463571Y-57170571D01*
X227177857Y-57170571D02*
X227177857Y-58027714D01*
X227963571Y-58027714D02*
X226463571Y-58027714D01*
X227963571Y-59384857D02*
X227177857Y-59384857D01*
X227035000Y-59313428D01*
X226963571Y-59170571D01*
X226963571Y-58884857D01*
X227035000Y-58742000D01*
X227892142Y-59384857D02*
X227963571Y-59242000D01*
X227963571Y-58884857D01*
X227892142Y-58742000D01*
X227749285Y-58670571D01*
X227606428Y-58670571D01*
X227463571Y-58742000D01*
X227392142Y-58884857D01*
X227392142Y-59242000D01*
X227320714Y-59384857D01*
X227892142Y-60742000D02*
X227963571Y-60599142D01*
X227963571Y-60313428D01*
X227892142Y-60170571D01*
X227820714Y-60099142D01*
X227677857Y-60027714D01*
X227249285Y-60027714D01*
X227106428Y-60099142D01*
X227035000Y-60170571D01*
X226963571Y-60313428D01*
X226963571Y-60599142D01*
X227035000Y-60742000D01*
X227963571Y-61384857D02*
X226463571Y-61384857D01*
X227392142Y-61527714D02*
X227963571Y-61956285D01*
X226963571Y-61956285D02*
X227535000Y-61384857D01*
X226963571Y-62456285D02*
X227963571Y-62742000D01*
X227249285Y-63027714D01*
X227963571Y-63313428D01*
X226963571Y-63599142D01*
X227963571Y-64170571D02*
X226963571Y-64170571D01*
X226463571Y-64170571D02*
X226535000Y-64099142D01*
X226606428Y-64170571D01*
X226535000Y-64242000D01*
X226463571Y-64170571D01*
X226606428Y-64170571D01*
X226963571Y-64884857D02*
X227963571Y-64884857D01*
X227106428Y-64884857D02*
X227035000Y-64956285D01*
X226963571Y-65099142D01*
X226963571Y-65313428D01*
X227035000Y-65456285D01*
X227177857Y-65527714D01*
X227963571Y-65527714D01*
X227963571Y-66242000D02*
X226463571Y-66242000D01*
X227392142Y-66384857D02*
X227963571Y-66813428D01*
X226963571Y-66813428D02*
X227535000Y-66242000D01*
X227892142Y-68027714D02*
X227963571Y-67884857D01*
X227963571Y-67599142D01*
X227892142Y-67456285D01*
X227749285Y-67384857D01*
X227177857Y-67384857D01*
X227035000Y-67456285D01*
X226963571Y-67599142D01*
X226963571Y-67884857D01*
X227035000Y-68027714D01*
X227177857Y-68099142D01*
X227320714Y-68099142D01*
X227463571Y-67384857D01*
X227963571Y-68956285D02*
X227892142Y-68813428D01*
X227749285Y-68742000D01*
X226463571Y-68742000D01*
X229513571Y-56599142D02*
X231013571Y-56599142D01*
X229585000Y-56599142D02*
X229513571Y-56742000D01*
X229513571Y-57027714D01*
X229585000Y-57170571D01*
X229656428Y-57242000D01*
X229799285Y-57313428D01*
X230227857Y-57313428D01*
X230370714Y-57242000D01*
X230442142Y-57170571D01*
X230513571Y-57027714D01*
X230513571Y-56742000D01*
X230442142Y-56599142D01*
X230513571Y-57956285D02*
X229513571Y-57956285D01*
X229799285Y-57956285D02*
X229656428Y-58027714D01*
X229585000Y-58099142D01*
X229513571Y-58242000D01*
X229513571Y-58384857D01*
X230513571Y-59099142D02*
X230442142Y-58956285D01*
X230370714Y-58884857D01*
X230227857Y-58813428D01*
X229799285Y-58813428D01*
X229656428Y-58884857D01*
X229585000Y-58956285D01*
X229513571Y-59099142D01*
X229513571Y-59313428D01*
X229585000Y-59456285D01*
X229656428Y-59527714D01*
X229799285Y-59599142D01*
X230227857Y-59599142D01*
X230370714Y-59527714D01*
X230442142Y-59456285D01*
X230513571Y-59313428D01*
X230513571Y-59099142D01*
X229513571Y-60884857D02*
X230727857Y-60884857D01*
X230870714Y-60813428D01*
X230942142Y-60742000D01*
X231013571Y-60599142D01*
X231013571Y-60384857D01*
X230942142Y-60242000D01*
X230442142Y-60884857D02*
X230513571Y-60742000D01*
X230513571Y-60456285D01*
X230442142Y-60313428D01*
X230370714Y-60242000D01*
X230227857Y-60170571D01*
X229799285Y-60170571D01*
X229656428Y-60242000D01*
X229585000Y-60313428D01*
X229513571Y-60456285D01*
X229513571Y-60742000D01*
X229585000Y-60884857D01*
X230513571Y-61599142D02*
X229513571Y-61599142D01*
X229799285Y-61599142D02*
X229656428Y-61670571D01*
X229585000Y-61742000D01*
X229513571Y-61884857D01*
X229513571Y-62027714D01*
X230513571Y-63170571D02*
X229727857Y-63170571D01*
X229585000Y-63099142D01*
X229513571Y-62956285D01*
X229513571Y-62670571D01*
X229585000Y-62527714D01*
X230442142Y-63170571D02*
X230513571Y-63027714D01*
X230513571Y-62670571D01*
X230442142Y-62527714D01*
X230299285Y-62456285D01*
X230156428Y-62456285D01*
X230013571Y-62527714D01*
X229942142Y-62670571D01*
X229942142Y-63027714D01*
X229870714Y-63170571D01*
X230513571Y-63884857D02*
X229513571Y-63884857D01*
X229656428Y-63884857D02*
X229585000Y-63956285D01*
X229513571Y-64099142D01*
X229513571Y-64313428D01*
X229585000Y-64456285D01*
X229727857Y-64527714D01*
X230513571Y-64527714D01*
X229727857Y-64527714D02*
X229585000Y-64599142D01*
X229513571Y-64742000D01*
X229513571Y-64956285D01*
X229585000Y-65099142D01*
X229727857Y-65170571D01*
X230513571Y-65170571D01*
X230513571Y-65884857D02*
X229513571Y-65884857D01*
X229656428Y-65884857D02*
X229585000Y-65956285D01*
X229513571Y-66099142D01*
X229513571Y-66313428D01*
X229585000Y-66456285D01*
X229727857Y-66527714D01*
X230513571Y-66527714D01*
X229727857Y-66527714D02*
X229585000Y-66599142D01*
X229513571Y-66742000D01*
X229513571Y-66956285D01*
X229585000Y-67099142D01*
X229727857Y-67170571D01*
X230513571Y-67170571D01*
X230442142Y-68456285D02*
X230513571Y-68313428D01*
X230513571Y-68027714D01*
X230442142Y-67884857D01*
X230299285Y-67813428D01*
X229727857Y-67813428D01*
X229585000Y-67884857D01*
X229513571Y-68027714D01*
X229513571Y-68313428D01*
X229585000Y-68456285D01*
X229727857Y-68527714D01*
X229870714Y-68527714D01*
X230013571Y-67813428D01*
X230513571Y-69170571D02*
X229513571Y-69170571D01*
X229799285Y-69170571D02*
X229656428Y-69242000D01*
X229585000Y-69313428D01*
X229513571Y-69456285D01*
X229513571Y-69599142D01*
X212045000Y-58579285D02*
X211973571Y-58507857D01*
X211759285Y-58365000D01*
X211616428Y-58293571D01*
X211402142Y-58222142D01*
X211045000Y-58150714D01*
X210759285Y-58150714D01*
X210402142Y-58222142D01*
X210187857Y-58293571D01*
X210045000Y-58365000D01*
X209830714Y-58507857D01*
X209759285Y-58579285D01*
X211402142Y-59793571D02*
X211473571Y-59650714D01*
X211473571Y-59365000D01*
X211402142Y-59222142D01*
X211330714Y-59150714D01*
X211187857Y-59079285D01*
X210759285Y-59079285D01*
X210616428Y-59150714D01*
X210545000Y-59222142D01*
X210473571Y-59365000D01*
X210473571Y-59650714D01*
X210545000Y-59793571D01*
X212045000Y-60293571D02*
X211973571Y-60365000D01*
X211759285Y-60507857D01*
X211616428Y-60579285D01*
X211402142Y-60650714D01*
X211045000Y-60722142D01*
X210759285Y-60722142D01*
X210402142Y-60650714D01*
X210187857Y-60579285D01*
X210045000Y-60507857D01*
X209830714Y-60365000D01*
X209759285Y-60293571D01*
X210116428Y-62507857D02*
X210045000Y-62579285D01*
X209973571Y-62722142D01*
X209973571Y-63079285D01*
X210045000Y-63222142D01*
X210116428Y-63293571D01*
X210259285Y-63365000D01*
X210402142Y-63365000D01*
X210616428Y-63293571D01*
X211473571Y-62436428D01*
X211473571Y-63365000D01*
X209973571Y-64293571D02*
X209973571Y-64436428D01*
X210045000Y-64579285D01*
X210116428Y-64650714D01*
X210259285Y-64722142D01*
X210545000Y-64793571D01*
X210902142Y-64793571D01*
X211187857Y-64722142D01*
X211330714Y-64650714D01*
X211402142Y-64579285D01*
X211473571Y-64436428D01*
X211473571Y-64293571D01*
X211402142Y-64150714D01*
X211330714Y-64079285D01*
X211187857Y-64007857D01*
X210902142Y-63936428D01*
X210545000Y-63936428D01*
X210259285Y-64007857D01*
X210116428Y-64079285D01*
X210045000Y-64150714D01*
X209973571Y-64293571D01*
X210116428Y-65365000D02*
X210045000Y-65436428D01*
X209973571Y-65579285D01*
X209973571Y-65936428D01*
X210045000Y-66079285D01*
X210116428Y-66150714D01*
X210259285Y-66222142D01*
X210402142Y-66222142D01*
X210616428Y-66150714D01*
X211473571Y-65293571D01*
X211473571Y-66222142D01*
X209973571Y-67150714D02*
X209973571Y-67293571D01*
X210045000Y-67436428D01*
X210116428Y-67507857D01*
X210259285Y-67579285D01*
X210545000Y-67650714D01*
X210902142Y-67650714D01*
X211187857Y-67579285D01*
X211330714Y-67507857D01*
X211402142Y-67436428D01*
X211473571Y-67293571D01*
X211473571Y-67150714D01*
X211402142Y-67007857D01*
X211330714Y-66936428D01*
X211187857Y-66865000D01*
X210902142Y-66793571D01*
X210545000Y-66793571D01*
X210259285Y-66865000D01*
X210116428Y-66936428D01*
X210045000Y-67007857D01*
X209973571Y-67150714D01*
X212523571Y-59186428D02*
X212523571Y-60043571D01*
X214023571Y-59615000D02*
X212523571Y-59615000D01*
X213880714Y-60543571D02*
X213952142Y-60615000D01*
X214023571Y-60543571D01*
X213952142Y-60472142D01*
X213880714Y-60543571D01*
X214023571Y-60543571D01*
X213237857Y-61757857D02*
X213309285Y-61972142D01*
X213380714Y-62043571D01*
X213523571Y-62115000D01*
X213737857Y-62115000D01*
X213880714Y-62043571D01*
X213952142Y-61972142D01*
X214023571Y-61829285D01*
X214023571Y-61257857D01*
X212523571Y-61257857D01*
X212523571Y-61757857D01*
X212595000Y-61900714D01*
X212666428Y-61972142D01*
X212809285Y-62043571D01*
X212952142Y-62043571D01*
X213095000Y-61972142D01*
X213166428Y-61900714D01*
X213237857Y-61757857D01*
X213237857Y-61257857D01*
X214023571Y-62972142D02*
X213952142Y-62829285D01*
X213880714Y-62757857D01*
X213737857Y-62686428D01*
X213309285Y-62686428D01*
X213166428Y-62757857D01*
X213095000Y-62829285D01*
X213023571Y-62972142D01*
X213023571Y-63186428D01*
X213095000Y-63329285D01*
X213166428Y-63400714D01*
X213309285Y-63472142D01*
X213737857Y-63472142D01*
X213880714Y-63400714D01*
X213952142Y-63329285D01*
X214023571Y-63186428D01*
X214023571Y-62972142D01*
X214023571Y-64115000D02*
X213023571Y-64115000D01*
X213309285Y-64115000D02*
X213166428Y-64186428D01*
X213095000Y-64257857D01*
X213023571Y-64400714D01*
X213023571Y-64543571D01*
X214023571Y-65043571D02*
X213023571Y-65043571D01*
X213166428Y-65043571D02*
X213095000Y-65115000D01*
X213023571Y-65257857D01*
X213023571Y-65472142D01*
X213095000Y-65615000D01*
X213237857Y-65686428D01*
X214023571Y-65686428D01*
X213237857Y-65686428D02*
X213095000Y-65757857D01*
X213023571Y-65900714D01*
X213023571Y-66115000D01*
X213095000Y-66257857D01*
X213237857Y-66329285D01*
X214023571Y-66329285D01*
X194963571Y-57170571D02*
X193463571Y-57170571D01*
X194177857Y-57170571D02*
X194177857Y-58027714D01*
X194963571Y-58027714D02*
X193463571Y-58027714D01*
X194963571Y-59384857D02*
X194177857Y-59384857D01*
X194035000Y-59313428D01*
X193963571Y-59170571D01*
X193963571Y-58884857D01*
X194035000Y-58742000D01*
X194892142Y-59384857D02*
X194963571Y-59242000D01*
X194963571Y-58884857D01*
X194892142Y-58742000D01*
X194749285Y-58670571D01*
X194606428Y-58670571D01*
X194463571Y-58742000D01*
X194392142Y-58884857D01*
X194392142Y-59242000D01*
X194320714Y-59384857D01*
X194892142Y-60742000D02*
X194963571Y-60599142D01*
X194963571Y-60313428D01*
X194892142Y-60170571D01*
X194820714Y-60099142D01*
X194677857Y-60027714D01*
X194249285Y-60027714D01*
X194106428Y-60099142D01*
X194035000Y-60170571D01*
X193963571Y-60313428D01*
X193963571Y-60599142D01*
X194035000Y-60742000D01*
X194963571Y-61384857D02*
X193463571Y-61384857D01*
X194392142Y-61527714D02*
X194963571Y-61956285D01*
X193963571Y-61956285D02*
X194535000Y-61384857D01*
X193963571Y-62456285D02*
X194963571Y-62742000D01*
X194249285Y-63027714D01*
X194963571Y-63313428D01*
X193963571Y-63599142D01*
X194963571Y-64170571D02*
X193963571Y-64170571D01*
X193463571Y-64170571D02*
X193535000Y-64099142D01*
X193606428Y-64170571D01*
X193535000Y-64242000D01*
X193463571Y-64170571D01*
X193606428Y-64170571D01*
X193963571Y-64884857D02*
X194963571Y-64884857D01*
X194106428Y-64884857D02*
X194035000Y-64956285D01*
X193963571Y-65099142D01*
X193963571Y-65313428D01*
X194035000Y-65456285D01*
X194177857Y-65527714D01*
X194963571Y-65527714D01*
X194963571Y-66242000D02*
X193463571Y-66242000D01*
X194392142Y-66384857D02*
X194963571Y-66813428D01*
X193963571Y-66813428D02*
X194535000Y-66242000D01*
X194892142Y-68027714D02*
X194963571Y-67884857D01*
X194963571Y-67599142D01*
X194892142Y-67456285D01*
X194749285Y-67384857D01*
X194177857Y-67384857D01*
X194035000Y-67456285D01*
X193963571Y-67599142D01*
X193963571Y-67884857D01*
X194035000Y-68027714D01*
X194177857Y-68099142D01*
X194320714Y-68099142D01*
X194463571Y-67384857D01*
X194963571Y-68956285D02*
X194892142Y-68813428D01*
X194749285Y-68742000D01*
X193463571Y-68742000D01*
X196513571Y-56599142D02*
X198013571Y-56599142D01*
X196585000Y-56599142D02*
X196513571Y-56742000D01*
X196513571Y-57027714D01*
X196585000Y-57170571D01*
X196656428Y-57242000D01*
X196799285Y-57313428D01*
X197227857Y-57313428D01*
X197370714Y-57242000D01*
X197442142Y-57170571D01*
X197513571Y-57027714D01*
X197513571Y-56742000D01*
X197442142Y-56599142D01*
X197513571Y-57956285D02*
X196513571Y-57956285D01*
X196799285Y-57956285D02*
X196656428Y-58027714D01*
X196585000Y-58099142D01*
X196513571Y-58242000D01*
X196513571Y-58384857D01*
X197513571Y-59099142D02*
X197442142Y-58956285D01*
X197370714Y-58884857D01*
X197227857Y-58813428D01*
X196799285Y-58813428D01*
X196656428Y-58884857D01*
X196585000Y-58956285D01*
X196513571Y-59099142D01*
X196513571Y-59313428D01*
X196585000Y-59456285D01*
X196656428Y-59527714D01*
X196799285Y-59599142D01*
X197227857Y-59599142D01*
X197370714Y-59527714D01*
X197442142Y-59456285D01*
X197513571Y-59313428D01*
X197513571Y-59099142D01*
X196513571Y-60884857D02*
X197727857Y-60884857D01*
X197870714Y-60813428D01*
X197942142Y-60742000D01*
X198013571Y-60599142D01*
X198013571Y-60384857D01*
X197942142Y-60242000D01*
X197442142Y-60884857D02*
X197513571Y-60742000D01*
X197513571Y-60456285D01*
X197442142Y-60313428D01*
X197370714Y-60242000D01*
X197227857Y-60170571D01*
X196799285Y-60170571D01*
X196656428Y-60242000D01*
X196585000Y-60313428D01*
X196513571Y-60456285D01*
X196513571Y-60742000D01*
X196585000Y-60884857D01*
X197513571Y-61599142D02*
X196513571Y-61599142D01*
X196799285Y-61599142D02*
X196656428Y-61670571D01*
X196585000Y-61742000D01*
X196513571Y-61884857D01*
X196513571Y-62027714D01*
X197513571Y-63170571D02*
X196727857Y-63170571D01*
X196585000Y-63099142D01*
X196513571Y-62956285D01*
X196513571Y-62670571D01*
X196585000Y-62527714D01*
X197442142Y-63170571D02*
X197513571Y-63027714D01*
X197513571Y-62670571D01*
X197442142Y-62527714D01*
X197299285Y-62456285D01*
X197156428Y-62456285D01*
X197013571Y-62527714D01*
X196942142Y-62670571D01*
X196942142Y-63027714D01*
X196870714Y-63170571D01*
X197513571Y-63884857D02*
X196513571Y-63884857D01*
X196656428Y-63884857D02*
X196585000Y-63956285D01*
X196513571Y-64099142D01*
X196513571Y-64313428D01*
X196585000Y-64456285D01*
X196727857Y-64527714D01*
X197513571Y-64527714D01*
X196727857Y-64527714D02*
X196585000Y-64599142D01*
X196513571Y-64742000D01*
X196513571Y-64956285D01*
X196585000Y-65099142D01*
X196727857Y-65170571D01*
X197513571Y-65170571D01*
X197513571Y-65884857D02*
X196513571Y-65884857D01*
X196656428Y-65884857D02*
X196585000Y-65956285D01*
X196513571Y-66099142D01*
X196513571Y-66313428D01*
X196585000Y-66456285D01*
X196727857Y-66527714D01*
X197513571Y-66527714D01*
X196727857Y-66527714D02*
X196585000Y-66599142D01*
X196513571Y-66742000D01*
X196513571Y-66956285D01*
X196585000Y-67099142D01*
X196727857Y-67170571D01*
X197513571Y-67170571D01*
X197442142Y-68456285D02*
X197513571Y-68313428D01*
X197513571Y-68027714D01*
X197442142Y-67884857D01*
X197299285Y-67813428D01*
X196727857Y-67813428D01*
X196585000Y-67884857D01*
X196513571Y-68027714D01*
X196513571Y-68313428D01*
X196585000Y-68456285D01*
X196727857Y-68527714D01*
X196870714Y-68527714D01*
X197013571Y-67813428D01*
X197513571Y-69170571D02*
X196513571Y-69170571D01*
X196799285Y-69170571D02*
X196656428Y-69242000D01*
X196585000Y-69313428D01*
X196513571Y-69456285D01*
X196513571Y-69599142D01*
X179045000Y-58579285D02*
X178973571Y-58507857D01*
X178759285Y-58365000D01*
X178616428Y-58293571D01*
X178402142Y-58222142D01*
X178045000Y-58150714D01*
X177759285Y-58150714D01*
X177402142Y-58222142D01*
X177187857Y-58293571D01*
X177045000Y-58365000D01*
X176830714Y-58507857D01*
X176759285Y-58579285D01*
X178402142Y-59793571D02*
X178473571Y-59650714D01*
X178473571Y-59365000D01*
X178402142Y-59222142D01*
X178330714Y-59150714D01*
X178187857Y-59079285D01*
X177759285Y-59079285D01*
X177616428Y-59150714D01*
X177545000Y-59222142D01*
X177473571Y-59365000D01*
X177473571Y-59650714D01*
X177545000Y-59793571D01*
X179045000Y-60293571D02*
X178973571Y-60365000D01*
X178759285Y-60507857D01*
X178616428Y-60579285D01*
X178402142Y-60650714D01*
X178045000Y-60722142D01*
X177759285Y-60722142D01*
X177402142Y-60650714D01*
X177187857Y-60579285D01*
X177045000Y-60507857D01*
X176830714Y-60365000D01*
X176759285Y-60293571D01*
X177116428Y-62507857D02*
X177045000Y-62579285D01*
X176973571Y-62722142D01*
X176973571Y-63079285D01*
X177045000Y-63222142D01*
X177116428Y-63293571D01*
X177259285Y-63365000D01*
X177402142Y-63365000D01*
X177616428Y-63293571D01*
X178473571Y-62436428D01*
X178473571Y-63365000D01*
X176973571Y-64293571D02*
X176973571Y-64436428D01*
X177045000Y-64579285D01*
X177116428Y-64650714D01*
X177259285Y-64722142D01*
X177545000Y-64793571D01*
X177902142Y-64793571D01*
X178187857Y-64722142D01*
X178330714Y-64650714D01*
X178402142Y-64579285D01*
X178473571Y-64436428D01*
X178473571Y-64293571D01*
X178402142Y-64150714D01*
X178330714Y-64079285D01*
X178187857Y-64007857D01*
X177902142Y-63936428D01*
X177545000Y-63936428D01*
X177259285Y-64007857D01*
X177116428Y-64079285D01*
X177045000Y-64150714D01*
X176973571Y-64293571D01*
X177116428Y-65365000D02*
X177045000Y-65436428D01*
X176973571Y-65579285D01*
X176973571Y-65936428D01*
X177045000Y-66079285D01*
X177116428Y-66150714D01*
X177259285Y-66222142D01*
X177402142Y-66222142D01*
X177616428Y-66150714D01*
X178473571Y-65293571D01*
X178473571Y-66222142D01*
X176973571Y-67150714D02*
X176973571Y-67293571D01*
X177045000Y-67436428D01*
X177116428Y-67507857D01*
X177259285Y-67579285D01*
X177545000Y-67650714D01*
X177902142Y-67650714D01*
X178187857Y-67579285D01*
X178330714Y-67507857D01*
X178402142Y-67436428D01*
X178473571Y-67293571D01*
X178473571Y-67150714D01*
X178402142Y-67007857D01*
X178330714Y-66936428D01*
X178187857Y-66865000D01*
X177902142Y-66793571D01*
X177545000Y-66793571D01*
X177259285Y-66865000D01*
X177116428Y-66936428D01*
X177045000Y-67007857D01*
X176973571Y-67150714D01*
X179523571Y-59186428D02*
X179523571Y-60043571D01*
X181023571Y-59615000D02*
X179523571Y-59615000D01*
X180880714Y-60543571D02*
X180952142Y-60615000D01*
X181023571Y-60543571D01*
X180952142Y-60472142D01*
X180880714Y-60543571D01*
X181023571Y-60543571D01*
X180237857Y-61757857D02*
X180309285Y-61972142D01*
X180380714Y-62043571D01*
X180523571Y-62115000D01*
X180737857Y-62115000D01*
X180880714Y-62043571D01*
X180952142Y-61972142D01*
X181023571Y-61829285D01*
X181023571Y-61257857D01*
X179523571Y-61257857D01*
X179523571Y-61757857D01*
X179595000Y-61900714D01*
X179666428Y-61972142D01*
X179809285Y-62043571D01*
X179952142Y-62043571D01*
X180095000Y-61972142D01*
X180166428Y-61900714D01*
X180237857Y-61757857D01*
X180237857Y-61257857D01*
X181023571Y-62972142D02*
X180952142Y-62829285D01*
X180880714Y-62757857D01*
X180737857Y-62686428D01*
X180309285Y-62686428D01*
X180166428Y-62757857D01*
X180095000Y-62829285D01*
X180023571Y-62972142D01*
X180023571Y-63186428D01*
X180095000Y-63329285D01*
X180166428Y-63400714D01*
X180309285Y-63472142D01*
X180737857Y-63472142D01*
X180880714Y-63400714D01*
X180952142Y-63329285D01*
X181023571Y-63186428D01*
X181023571Y-62972142D01*
X181023571Y-64115000D02*
X180023571Y-64115000D01*
X180309285Y-64115000D02*
X180166428Y-64186428D01*
X180095000Y-64257857D01*
X180023571Y-64400714D01*
X180023571Y-64543571D01*
X181023571Y-65043571D02*
X180023571Y-65043571D01*
X180166428Y-65043571D02*
X180095000Y-65115000D01*
X180023571Y-65257857D01*
X180023571Y-65472142D01*
X180095000Y-65615000D01*
X180237857Y-65686428D01*
X181023571Y-65686428D01*
X180237857Y-65686428D02*
X180095000Y-65757857D01*
X180023571Y-65900714D01*
X180023571Y-66115000D01*
X180095000Y-66257857D01*
X180237857Y-66329285D01*
X181023571Y-66329285D01*
X161963571Y-57170571D02*
X160463571Y-57170571D01*
X161177857Y-57170571D02*
X161177857Y-58027714D01*
X161963571Y-58027714D02*
X160463571Y-58027714D01*
X161963571Y-59384857D02*
X161177857Y-59384857D01*
X161035000Y-59313428D01*
X160963571Y-59170571D01*
X160963571Y-58884857D01*
X161035000Y-58742000D01*
X161892142Y-59384857D02*
X161963571Y-59242000D01*
X161963571Y-58884857D01*
X161892142Y-58742000D01*
X161749285Y-58670571D01*
X161606428Y-58670571D01*
X161463571Y-58742000D01*
X161392142Y-58884857D01*
X161392142Y-59242000D01*
X161320714Y-59384857D01*
X161892142Y-60742000D02*
X161963571Y-60599142D01*
X161963571Y-60313428D01*
X161892142Y-60170571D01*
X161820714Y-60099142D01*
X161677857Y-60027714D01*
X161249285Y-60027714D01*
X161106428Y-60099142D01*
X161035000Y-60170571D01*
X160963571Y-60313428D01*
X160963571Y-60599142D01*
X161035000Y-60742000D01*
X161963571Y-61384857D02*
X160463571Y-61384857D01*
X161392142Y-61527714D02*
X161963571Y-61956285D01*
X160963571Y-61956285D02*
X161535000Y-61384857D01*
X160963571Y-62456285D02*
X161963571Y-62742000D01*
X161249285Y-63027714D01*
X161963571Y-63313428D01*
X160963571Y-63599142D01*
X161963571Y-64170571D02*
X160963571Y-64170571D01*
X160463571Y-64170571D02*
X160535000Y-64099142D01*
X160606428Y-64170571D01*
X160535000Y-64242000D01*
X160463571Y-64170571D01*
X160606428Y-64170571D01*
X160963571Y-64884857D02*
X161963571Y-64884857D01*
X161106428Y-64884857D02*
X161035000Y-64956285D01*
X160963571Y-65099142D01*
X160963571Y-65313428D01*
X161035000Y-65456285D01*
X161177857Y-65527714D01*
X161963571Y-65527714D01*
X161963571Y-66242000D02*
X160463571Y-66242000D01*
X161392142Y-66384857D02*
X161963571Y-66813428D01*
X160963571Y-66813428D02*
X161535000Y-66242000D01*
X161892142Y-68027714D02*
X161963571Y-67884857D01*
X161963571Y-67599142D01*
X161892142Y-67456285D01*
X161749285Y-67384857D01*
X161177857Y-67384857D01*
X161035000Y-67456285D01*
X160963571Y-67599142D01*
X160963571Y-67884857D01*
X161035000Y-68027714D01*
X161177857Y-68099142D01*
X161320714Y-68099142D01*
X161463571Y-67384857D01*
X161963571Y-68956285D02*
X161892142Y-68813428D01*
X161749285Y-68742000D01*
X160463571Y-68742000D01*
X163513571Y-56599142D02*
X165013571Y-56599142D01*
X163585000Y-56599142D02*
X163513571Y-56742000D01*
X163513571Y-57027714D01*
X163585000Y-57170571D01*
X163656428Y-57242000D01*
X163799285Y-57313428D01*
X164227857Y-57313428D01*
X164370714Y-57242000D01*
X164442142Y-57170571D01*
X164513571Y-57027714D01*
X164513571Y-56742000D01*
X164442142Y-56599142D01*
X164513571Y-57956285D02*
X163513571Y-57956285D01*
X163799285Y-57956285D02*
X163656428Y-58027714D01*
X163585000Y-58099142D01*
X163513571Y-58242000D01*
X163513571Y-58384857D01*
X164513571Y-59099142D02*
X164442142Y-58956285D01*
X164370714Y-58884857D01*
X164227857Y-58813428D01*
X163799285Y-58813428D01*
X163656428Y-58884857D01*
X163585000Y-58956285D01*
X163513571Y-59099142D01*
X163513571Y-59313428D01*
X163585000Y-59456285D01*
X163656428Y-59527714D01*
X163799285Y-59599142D01*
X164227857Y-59599142D01*
X164370714Y-59527714D01*
X164442142Y-59456285D01*
X164513571Y-59313428D01*
X164513571Y-59099142D01*
X163513571Y-60884857D02*
X164727857Y-60884857D01*
X164870714Y-60813428D01*
X164942142Y-60742000D01*
X165013571Y-60599142D01*
X165013571Y-60384857D01*
X164942142Y-60242000D01*
X164442142Y-60884857D02*
X164513571Y-60742000D01*
X164513571Y-60456285D01*
X164442142Y-60313428D01*
X164370714Y-60242000D01*
X164227857Y-60170571D01*
X163799285Y-60170571D01*
X163656428Y-60242000D01*
X163585000Y-60313428D01*
X163513571Y-60456285D01*
X163513571Y-60742000D01*
X163585000Y-60884857D01*
X164513571Y-61599142D02*
X163513571Y-61599142D01*
X163799285Y-61599142D02*
X163656428Y-61670571D01*
X163585000Y-61742000D01*
X163513571Y-61884857D01*
X163513571Y-62027714D01*
X164513571Y-63170571D02*
X163727857Y-63170571D01*
X163585000Y-63099142D01*
X163513571Y-62956285D01*
X163513571Y-62670571D01*
X163585000Y-62527714D01*
X164442142Y-63170571D02*
X164513571Y-63027714D01*
X164513571Y-62670571D01*
X164442142Y-62527714D01*
X164299285Y-62456285D01*
X164156428Y-62456285D01*
X164013571Y-62527714D01*
X163942142Y-62670571D01*
X163942142Y-63027714D01*
X163870714Y-63170571D01*
X164513571Y-63884857D02*
X163513571Y-63884857D01*
X163656428Y-63884857D02*
X163585000Y-63956285D01*
X163513571Y-64099142D01*
X163513571Y-64313428D01*
X163585000Y-64456285D01*
X163727857Y-64527714D01*
X164513571Y-64527714D01*
X163727857Y-64527714D02*
X163585000Y-64599142D01*
X163513571Y-64742000D01*
X163513571Y-64956285D01*
X163585000Y-65099142D01*
X163727857Y-65170571D01*
X164513571Y-65170571D01*
X164513571Y-65884857D02*
X163513571Y-65884857D01*
X163656428Y-65884857D02*
X163585000Y-65956285D01*
X163513571Y-66099142D01*
X163513571Y-66313428D01*
X163585000Y-66456285D01*
X163727857Y-66527714D01*
X164513571Y-66527714D01*
X163727857Y-66527714D02*
X163585000Y-66599142D01*
X163513571Y-66742000D01*
X163513571Y-66956285D01*
X163585000Y-67099142D01*
X163727857Y-67170571D01*
X164513571Y-67170571D01*
X164442142Y-68456285D02*
X164513571Y-68313428D01*
X164513571Y-68027714D01*
X164442142Y-67884857D01*
X164299285Y-67813428D01*
X163727857Y-67813428D01*
X163585000Y-67884857D01*
X163513571Y-68027714D01*
X163513571Y-68313428D01*
X163585000Y-68456285D01*
X163727857Y-68527714D01*
X163870714Y-68527714D01*
X164013571Y-67813428D01*
X164513571Y-69170571D02*
X163513571Y-69170571D01*
X163799285Y-69170571D02*
X163656428Y-69242000D01*
X163585000Y-69313428D01*
X163513571Y-69456285D01*
X163513571Y-69599142D01*
D11*
G04 #@! TO.P,U3,1*
G04 #@! TO.N,N/C*
X243800000Y-38100000D03*
G04 #@! TO.P,U3,2*
X241260000Y-38100000D03*
G04 #@! TO.P,U3,3*
X238720000Y-38100000D03*
G04 #@! TO.P,U3,4*
X236180000Y-38100000D03*
G04 #@! TO.P,U3,5*
X233640000Y-38100000D03*
G04 #@! TO.P,U3,6*
X231100000Y-38100000D03*
G04 #@! TD*
D12*
G04 #@! TO.P,U6,1*
G04 #@! TO.N,N/C*
X229830000Y-87630000D03*
G04 #@! TO.P,U6,2*
X229830000Y-90170000D03*
G04 #@! TO.P,U6,3*
X229830000Y-92710000D03*
G04 #@! TO.P,U6,4*
X229830000Y-95250000D03*
G04 #@! TO.P,U6,5*
X229830000Y-97790000D03*
G04 #@! TO.P,U6,6*
X229830000Y-100330000D03*
G04 #@! TO.P,U6,7*
X229830000Y-102870000D03*
G04 #@! TO.P,U6,8*
X229830000Y-105410000D03*
G04 #@! TO.P,U6,9*
X229830000Y-107950000D03*
G04 #@! TO.P,U6,10*
X245070000Y-107950000D03*
G04 #@! TO.P,U6,11*
X245070000Y-105410000D03*
G04 #@! TO.P,U6,12*
X245070000Y-102870000D03*
G04 #@! TO.P,U6,13*
X245070000Y-100330000D03*
G04 #@! TO.P,U6,14*
X245070000Y-97790000D03*
G04 #@! TO.P,U6,15*
X245070000Y-95250000D03*
G04 #@! TO.P,U6,16*
X245070000Y-92710000D03*
G04 #@! TO.P,U6,17*
X245070000Y-90170000D03*
G04 #@! TO.P,U6,18*
X245070000Y-87630000D03*
G04 #@! TO.P,U6,19*
X243800000Y-85090000D03*
G04 #@! TO.P,U6,20*
X241260000Y-85090000D03*
G04 #@! TO.P,U6,21*
X238720000Y-85090000D03*
G04 #@! TO.P,U6,22*
X236180000Y-85090000D03*
G04 #@! TO.P,U6,23*
X233640000Y-85090000D03*
G04 #@! TO.P,U6,24*
X231100000Y-85090000D03*
G04 #@! TD*
D11*
G04 #@! TO.P,U3,1*
G04 #@! TO.N,N/C*
X210800000Y-38100000D03*
G04 #@! TO.P,U3,2*
X208260000Y-38100000D03*
G04 #@! TO.P,U3,3*
X205720000Y-38100000D03*
G04 #@! TO.P,U3,4*
X203180000Y-38100000D03*
G04 #@! TO.P,U3,5*
X200640000Y-38100000D03*
G04 #@! TO.P,U3,6*
X198100000Y-38100000D03*
G04 #@! TD*
D12*
G04 #@! TO.P,U6,1*
G04 #@! TO.N,N/C*
X196830000Y-87630000D03*
G04 #@! TO.P,U6,2*
X196830000Y-90170000D03*
G04 #@! TO.P,U6,3*
X196830000Y-92710000D03*
G04 #@! TO.P,U6,4*
X196830000Y-95250000D03*
G04 #@! TO.P,U6,5*
X196830000Y-97790000D03*
G04 #@! TO.P,U6,6*
X196830000Y-100330000D03*
G04 #@! TO.P,U6,7*
X196830000Y-102870000D03*
G04 #@! TO.P,U6,8*
X196830000Y-105410000D03*
G04 #@! TO.P,U6,9*
X196830000Y-107950000D03*
G04 #@! TO.P,U6,10*
X212070000Y-107950000D03*
G04 #@! TO.P,U6,11*
X212070000Y-105410000D03*
G04 #@! TO.P,U6,12*
X212070000Y-102870000D03*
G04 #@! TO.P,U6,13*
X212070000Y-100330000D03*
G04 #@! TO.P,U6,14*
X212070000Y-97790000D03*
G04 #@! TO.P,U6,15*
X212070000Y-95250000D03*
G04 #@! TO.P,U6,16*
X212070000Y-92710000D03*
G04 #@! TO.P,U6,17*
X212070000Y-90170000D03*
G04 #@! TO.P,U6,18*
X212070000Y-87630000D03*
G04 #@! TO.P,U6,19*
X210800000Y-85090000D03*
G04 #@! TO.P,U6,20*
X208260000Y-85090000D03*
G04 #@! TO.P,U6,21*
X205720000Y-85090000D03*
G04 #@! TO.P,U6,22*
X203180000Y-85090000D03*
G04 #@! TO.P,U6,23*
X200640000Y-85090000D03*
G04 #@! TO.P,U6,24*
X198100000Y-85090000D03*
G04 #@! TD*
G04 #@! TO.P,U6,24*
G04 #@! TO.N,GND*
X165100000Y-85090000D03*
G04 #@! TO.P,U6,23*
G04 #@! TO.N,Net-(U1-Pad11)*
X167640000Y-85090000D03*
G04 #@! TO.P,U6,22*
G04 #@! TO.N,Net-(C6-Pad1)*
X170180000Y-85090000D03*
G04 #@! TO.P,U6,21*
G04 #@! TO.N,Net-(U1-Pad1)*
X172720000Y-85090000D03*
G04 #@! TO.P,U6,20*
G04 #@! TO.N,Net-(U1-Pad5)*
X175260000Y-85090000D03*
G04 #@! TO.P,U6,19*
G04 #@! TO.N,Net-(Q2-Pad2)*
X177800000Y-85090000D03*
G04 #@! TO.P,U6,18*
G04 #@! TO.N,GND*
X179070000Y-87630000D03*
G04 #@! TO.P,U6,17*
G04 #@! TO.N,Net-(R4-Pad2)*
X179070000Y-90170000D03*
G04 #@! TO.P,U6,16*
G04 #@! TO.N,Net-(R5-Pad2)*
X179070000Y-92710000D03*
G04 #@! TO.P,U6,15*
G04 #@! TO.N,+5V*
X179070000Y-95250000D03*
G04 #@! TO.P,U6,14*
G04 #@! TO.N,+3V3*
X179070000Y-97790000D03*
G04 #@! TO.P,U6,13*
G04 #@! TO.N,Net-(U1-Pad11)*
X179070000Y-100330000D03*
G04 #@! TO.P,U6,12*
G04 #@! TO.N,Net-(U1-Pad12)*
X179070000Y-102870000D03*
G04 #@! TO.P,U6,11*
G04 #@! TO.N,Net-(U1-Pad13)*
X179070000Y-105410000D03*
G04 #@! TO.P,U6,10*
G04 #@! TO.N,Net-(R3-Pad2)*
X179070000Y-107950000D03*
G04 #@! TO.P,U6,9*
G04 #@! TO.N,Net-(U1-Pad10)*
X163830000Y-107950000D03*
G04 #@! TO.P,U6,8*
G04 #@! TO.N,Net-(U1-Pad9)*
X163830000Y-105410000D03*
G04 #@! TO.P,U6,7*
G04 #@! TO.N,GND*
X163830000Y-102870000D03*
G04 #@! TO.P,U6,6*
G04 #@! TO.N,Net-(U1-Pad6)*
X163830000Y-100330000D03*
G04 #@! TO.P,U6,5*
G04 #@! TO.N,Net-(U1-Pad5)*
X163830000Y-97790000D03*
G04 #@! TO.P,U6,4*
G04 #@! TO.N,+3V3*
X163830000Y-95250000D03*
G04 #@! TO.P,U6,3*
G04 #@! TO.N,Net-(Q1-Pad2)*
X163830000Y-92710000D03*
G04 #@! TO.P,U6,2*
G04 #@! TO.N,Net-(Q2-Pad2)*
X163830000Y-90170000D03*
G04 #@! TO.P,U6,1*
G04 #@! TO.N,Net-(U1-Pad1)*
X163830000Y-87630000D03*
G04 #@! TD*
D11*
G04 #@! TO.P,U3,6*
G04 #@! TO.N,Net-(Q1-Pad3)*
X165100000Y-38100000D03*
G04 #@! TO.P,U3,5*
G04 #@! TO.N,Net-(U1-Pad5)*
X167640000Y-38100000D03*
G04 #@! TO.P,U3,4*
G04 #@! TO.N,Net-(U1-Pad1)*
X170180000Y-38100000D03*
G04 #@! TO.P,U3,3*
G04 #@! TO.N,Net-(C6-Pad1)*
X172720000Y-38100000D03*
G04 #@! TO.P,U3,2*
G04 #@! TO.N,Net-(Q2-Pad3)*
X175260000Y-38100000D03*
G04 #@! TO.P,U3,1*
G04 #@! TO.N,GND*
X177800000Y-38100000D03*
G04 #@! TD*
D13*
G04 #@! TO.N,*
X210800000Y-115570000D03*
X198735000Y-104775000D03*
X210165000Y-104140000D03*
X210165000Y-101600000D03*
X210800000Y-99060000D03*
X202545000Y-102870000D03*
X196830000Y-71755000D03*
X206990000Y-96520000D03*
X210800000Y-96520000D03*
X206355000Y-93345000D03*
X200640000Y-88900000D03*
X209530000Y-88265000D03*
X208260000Y-74930000D03*
X196830000Y-74930000D03*
X208776000Y-116840000D03*
X205250010Y-54864000D03*
X205250010Y-56464011D03*
X204450000Y-90170000D03*
X203460003Y-92989997D03*
X203180000Y-95090010D03*
X204615010Y-91826590D03*
X204027996Y-97536000D03*
X204704000Y-94996000D03*
X200640000Y-118363998D03*
X205212000Y-118872000D03*
X205720000Y-97790006D03*
X206735988Y-99060000D03*
X205212000Y-120396000D03*
X243800000Y-115570000D03*
X231735000Y-104775000D03*
X243165000Y-104140000D03*
X243165000Y-101600000D03*
X243800000Y-99060000D03*
X235545000Y-102870000D03*
X229830000Y-71755000D03*
X239990000Y-96520000D03*
X243800000Y-96520000D03*
X239355000Y-93345000D03*
X233640000Y-88900000D03*
X242530000Y-88265000D03*
X241260000Y-74930000D03*
X229830000Y-74930000D03*
X241776000Y-116840000D03*
X238250010Y-54864000D03*
X238250010Y-56464011D03*
X237450000Y-90170000D03*
X236460003Y-92989997D03*
X236180000Y-95090010D03*
X237615010Y-91826590D03*
X237027996Y-97536000D03*
X237704000Y-94996000D03*
X233640000Y-118363998D03*
X238212000Y-118872000D03*
X238720000Y-97790006D03*
X239735988Y-99060000D03*
X238212000Y-120396000D03*
G04 #@! TO.N,GND*
X175260000Y-74930000D03*
X163830000Y-74930000D03*
X177800000Y-115570000D03*
X165735000Y-104775000D03*
X177165000Y-104140000D03*
X177165000Y-101600000D03*
X177800000Y-99060000D03*
X177800000Y-96520000D03*
X173355000Y-93345000D03*
X167640000Y-88900000D03*
X176530000Y-88265000D03*
X169545000Y-102870000D03*
X163830000Y-71755000D03*
X173990000Y-96520000D03*
G04 #@! TO.N,Net-(C6-Pad1)*
X175776000Y-116840000D03*
G04 #@! TO.N,Net-(U1-Pad1)*
X172250010Y-54864000D03*
G04 #@! TO.N,Net-(U1-Pad5)*
X170460003Y-92989997D03*
X171450000Y-90170000D03*
X172250010Y-56464011D03*
G04 #@! TO.N,+3V3*
X171615010Y-91826590D03*
X170180000Y-95090010D03*
G04 #@! TO.N,Net-(U1-Pad11)*
X171027996Y-97536000D03*
G04 #@! TO.N,+5V*
X171704000Y-94996000D03*
X167640000Y-118363998D03*
G04 #@! TO.N,Net-(J1-Pad2)*
X172212000Y-118872000D03*
X172720000Y-97790006D03*
G04 #@! TO.N,Net-(J1-Pad3)*
X172212000Y-120396000D03*
X173735988Y-99060000D03*
G04 #@! TD*
D14*
G04 #@! TO.N,*
X208776000Y-92236038D02*
X208776000Y-116840000D01*
X208776000Y-90686000D02*
X208776000Y-92236038D01*
X203180000Y-85090000D02*
X208776000Y-90686000D01*
X205720000Y-50927000D02*
X205720000Y-38100000D01*
X203180000Y-85090000D02*
X203180000Y-53467000D01*
X203180000Y-53467000D02*
X205720000Y-50927000D01*
D15*
X204119989Y-55994021D02*
X204850011Y-55263999D01*
X204850011Y-55263999D02*
X205250010Y-54864000D01*
X205720000Y-85090000D02*
X204119989Y-83489989D01*
X204119989Y-83489989D02*
X204119989Y-55994021D01*
X205250010Y-82080010D02*
X205250010Y-57029696D01*
X205250010Y-57029696D02*
X205250010Y-56464011D01*
X198660000Y-97790000D02*
X203060004Y-93389996D01*
X204050001Y-90569999D02*
X204450000Y-90170000D01*
X196830000Y-97790000D02*
X198660000Y-97790000D01*
X203060004Y-93389996D02*
X203460003Y-92989997D01*
X203460003Y-92989997D02*
X203460003Y-91159997D01*
X203460003Y-91159997D02*
X204050001Y-90569999D01*
X208260000Y-85090000D02*
X205250010Y-82080010D01*
X204615010Y-91826590D02*
X204615010Y-93392988D01*
X203180000Y-94827998D02*
X203180000Y-95090010D01*
X204615010Y-93392988D02*
X203180000Y-94827998D01*
X201401999Y-85851999D02*
X200640000Y-85090000D01*
X205504001Y-89954001D02*
X201401999Y-85851999D01*
X205504001Y-96059995D02*
X205504001Y-89954001D01*
X204027996Y-97536000D02*
X205504001Y-96059995D01*
D14*
X204704000Y-94996000D02*
X200640000Y-99060000D01*
X200640000Y-117798313D02*
X200640000Y-118363998D01*
X200640000Y-99060000D02*
X200640000Y-117798313D01*
D15*
X205720000Y-98355691D02*
X205720000Y-97790006D01*
X205720000Y-118364000D02*
X205720000Y-98355691D01*
X205212000Y-118872000D02*
X205720000Y-118364000D01*
X206735988Y-99625685D02*
X206735988Y-99060000D01*
X205212000Y-120396000D02*
X206735988Y-118872012D01*
X206735988Y-118872012D02*
X206735988Y-99625685D01*
D14*
X241776000Y-92236038D02*
X241776000Y-116840000D01*
X241776000Y-90686000D02*
X241776000Y-92236038D01*
X236180000Y-85090000D02*
X241776000Y-90686000D01*
X238720000Y-50927000D02*
X238720000Y-38100000D01*
X236180000Y-85090000D02*
X236180000Y-53467000D01*
X236180000Y-53467000D02*
X238720000Y-50927000D01*
D15*
X237119989Y-55994021D02*
X237850011Y-55263999D01*
X237850011Y-55263999D02*
X238250010Y-54864000D01*
X238720000Y-85090000D02*
X237119989Y-83489989D01*
X237119989Y-83489989D02*
X237119989Y-55994021D01*
X238250010Y-82080010D02*
X238250010Y-57029696D01*
X238250010Y-57029696D02*
X238250010Y-56464011D01*
X231660000Y-97790000D02*
X236060004Y-93389996D01*
X237050001Y-90569999D02*
X237450000Y-90170000D01*
X229830000Y-97790000D02*
X231660000Y-97790000D01*
X236060004Y-93389996D02*
X236460003Y-92989997D01*
X236460003Y-92989997D02*
X236460003Y-91159997D01*
X236460003Y-91159997D02*
X237050001Y-90569999D01*
X241260000Y-85090000D02*
X238250010Y-82080010D01*
X237615010Y-91826590D02*
X237615010Y-93392988D01*
X236180000Y-94827998D02*
X236180000Y-95090010D01*
X237615010Y-93392988D02*
X236180000Y-94827998D01*
X234401999Y-85851999D02*
X233640000Y-85090000D01*
X238504001Y-89954001D02*
X234401999Y-85851999D01*
X238504001Y-96059995D02*
X238504001Y-89954001D01*
X237027996Y-97536000D02*
X238504001Y-96059995D01*
D14*
X237704000Y-94996000D02*
X233640000Y-99060000D01*
X233640000Y-117798313D02*
X233640000Y-118363998D01*
X233640000Y-99060000D02*
X233640000Y-117798313D01*
D15*
X238720000Y-98355691D02*
X238720000Y-97790006D01*
X238720000Y-118364000D02*
X238720000Y-98355691D01*
X238212000Y-118872000D02*
X238720000Y-118364000D01*
X239735988Y-99625685D02*
X239735988Y-99060000D01*
X238212000Y-120396000D02*
X239735988Y-118872012D01*
X239735988Y-118872012D02*
X239735988Y-99625685D01*
D14*
G04 #@! TO.N,Net-(C6-Pad1)*
X175776000Y-92236038D02*
X175776000Y-116840000D01*
X175776000Y-90686000D02*
X175776000Y-92236038D01*
X170180000Y-85090000D02*
X175776000Y-90686000D01*
X172720000Y-50927000D02*
X172720000Y-38100000D01*
X170180000Y-85090000D02*
X170180000Y-53467000D01*
X170180000Y-53467000D02*
X172720000Y-50927000D01*
D15*
G04 #@! TO.N,Net-(U1-Pad1)*
X171119989Y-55994021D02*
X171850011Y-55263999D01*
X171850011Y-55263999D02*
X172250010Y-54864000D01*
X172720000Y-85090000D02*
X171119989Y-83489989D01*
X171119989Y-83489989D02*
X171119989Y-55994021D01*
G04 #@! TO.N,Net-(U1-Pad5)*
X163830000Y-97790000D02*
X165660000Y-97790000D01*
X170060004Y-93389996D02*
X170460003Y-92989997D01*
X165660000Y-97790000D02*
X170060004Y-93389996D01*
X171050001Y-90569999D02*
X171450000Y-90170000D01*
X170460003Y-92989997D02*
X170460003Y-91159997D01*
X170460003Y-91159997D02*
X171050001Y-90569999D01*
X175260000Y-85090000D02*
X172250010Y-82080010D01*
X172250010Y-82080010D02*
X172250010Y-57029696D01*
X172250010Y-57029696D02*
X172250010Y-56464011D01*
G04 #@! TO.N,+3V3*
X171615010Y-91826590D02*
X171615010Y-93392988D01*
X170180000Y-94827998D02*
X170180000Y-95090010D01*
X171615010Y-93392988D02*
X170180000Y-94827998D01*
G04 #@! TO.N,Net-(U1-Pad11)*
X168401999Y-85851999D02*
X167640000Y-85090000D01*
X172504001Y-89954001D02*
X168401999Y-85851999D01*
X172504001Y-96059995D02*
X172504001Y-89954001D01*
X171027996Y-97536000D02*
X172504001Y-96059995D01*
D14*
G04 #@! TO.N,+5V*
X171704000Y-94996000D02*
X167640000Y-99060000D01*
X167640000Y-117798313D02*
X167640000Y-118363998D01*
X167640000Y-99060000D02*
X167640000Y-117798313D01*
D15*
G04 #@! TO.N,Net-(J1-Pad2)*
X172720000Y-98355691D02*
X172720000Y-97790006D01*
X172720000Y-118364000D02*
X172720000Y-98355691D01*
X172212000Y-118872000D02*
X172720000Y-118364000D01*
G04 #@! TO.N,Net-(J1-Pad3)*
X173735988Y-99625685D02*
X173735988Y-99060000D01*
X172212000Y-120396000D02*
X173735988Y-118872012D01*
X173735988Y-118872012D02*
X173735988Y-99625685D01*
G04 #@! TD*
D16*
G04 #@! TO.N,GND*
G36*
X164927612Y-34735000D02*
X178072388Y-34735000D01*
X178118959Y-34725736D01*
X178660809Y-34780776D01*
X179294631Y-34979404D01*
X179875562Y-35301418D01*
X180379879Y-35733670D01*
X180786981Y-36258503D01*
X181080234Y-36854473D01*
X181249868Y-37505707D01*
X181290001Y-38027282D01*
X181290000Y-46069925D01*
X181331195Y-46277027D01*
X181488119Y-46511880D01*
X181722972Y-46668805D01*
X182000000Y-46723909D01*
X182038476Y-46716256D01*
X182759192Y-46780578D01*
X183494389Y-46981705D01*
X184182351Y-47309846D01*
X184801331Y-47754628D01*
X185331761Y-48301988D01*
X185756884Y-48934639D01*
X186063251Y-49632561D01*
X186242499Y-50379183D01*
X186277981Y-50862359D01*
X186265001Y-50927612D01*
X186265000Y-128572387D01*
X186275850Y-128626932D01*
X186219422Y-129259193D01*
X186018295Y-129994389D01*
X185690152Y-130682355D01*
X185245374Y-131301328D01*
X184698012Y-131831761D01*
X184065362Y-132256883D01*
X183367439Y-132563251D01*
X182620819Y-132742499D01*
X182137645Y-132777980D01*
X182072388Y-132765000D01*
X160927612Y-132765000D01*
X160873067Y-132775850D01*
X160240807Y-132719422D01*
X159505611Y-132518295D01*
X158817645Y-132190152D01*
X158198672Y-131745374D01*
X157668239Y-131198012D01*
X157243117Y-130565362D01*
X156936749Y-129867439D01*
X156757501Y-129120819D01*
X156722020Y-128637645D01*
X156735000Y-128572388D01*
X156735000Y-128150126D01*
X158230459Y-128150126D01*
X158238394Y-128907799D01*
X158449789Y-129635427D01*
X158849071Y-130279403D01*
X159406823Y-130792282D01*
X160081951Y-131136277D01*
X160824717Y-131286045D01*
X161580397Y-131230551D01*
X162293315Y-130973884D01*
X162910950Y-130534955D01*
X163387795Y-129946100D01*
X163688719Y-129250704D01*
X163791553Y-128500000D01*
X163790941Y-128441538D01*
X163721679Y-128004234D01*
X168115000Y-128004234D01*
X168115000Y-128455766D01*
X168287793Y-128872926D01*
X168607074Y-129192207D01*
X169024234Y-129365000D01*
X169475766Y-129365000D01*
X169892926Y-129192207D01*
X170212207Y-128872926D01*
X170385000Y-128455766D01*
X170385000Y-128004234D01*
X172515000Y-128004234D01*
X172515000Y-128455766D01*
X172687793Y-128872926D01*
X173007074Y-129192207D01*
X173424234Y-129365000D01*
X173875766Y-129365000D01*
X174292926Y-129192207D01*
X174612207Y-128872926D01*
X174752736Y-128533658D01*
X179245206Y-128533658D01*
X179365380Y-129305484D01*
X179697351Y-130012558D01*
X180214430Y-130598038D01*
X180875050Y-131014858D01*
X181626104Y-131229510D01*
X182407215Y-131224739D01*
X183155590Y-131000927D01*
X183811069Y-130576067D01*
X184320956Y-129984314D01*
X184644264Y-129273237D01*
X184755000Y-128500000D01*
X184754178Y-128432689D01*
X184624582Y-127662389D01*
X184283999Y-126959424D01*
X183759805Y-126380304D01*
X183094142Y-125971586D01*
X182340522Y-125766126D01*
X181559527Y-125780440D01*
X180813942Y-126013378D01*
X180163703Y-126446214D01*
X179661083Y-127044152D01*
X179346487Y-127759126D01*
X179245206Y-128533658D01*
X174752736Y-128533658D01*
X174785000Y-128455766D01*
X174785000Y-128004234D01*
X174612207Y-127587074D01*
X174292926Y-127267793D01*
X173875766Y-127095000D01*
X173424234Y-127095000D01*
X173007074Y-127267793D01*
X172687793Y-127587074D01*
X172515000Y-128004234D01*
X170385000Y-128004234D01*
X170212207Y-127587074D01*
X169892926Y-127267793D01*
X169475766Y-127095000D01*
X169024234Y-127095000D01*
X168607074Y-127267793D01*
X168287793Y-127587074D01*
X168115000Y-128004234D01*
X163721679Y-128004234D01*
X163672408Y-127693152D01*
X163356986Y-127004211D01*
X162867914Y-126425472D01*
X162241223Y-125999573D01*
X161523085Y-125757893D01*
X160766409Y-125718237D01*
X160026943Y-125883528D01*
X159359166Y-126241586D01*
X158812278Y-126766033D01*
X158426570Y-127418230D01*
X158230459Y-128150126D01*
X156735000Y-128150126D01*
X156735000Y-105132119D01*
X162433000Y-105132119D01*
X162433000Y-105687881D01*
X162645680Y-106201337D01*
X163038663Y-106594320D01*
X163245513Y-106680000D01*
X163038663Y-106765680D01*
X162645680Y-107158663D01*
X162433000Y-107672119D01*
X162433000Y-108227881D01*
X162645680Y-108741337D01*
X163038663Y-109134320D01*
X163552119Y-109347000D01*
X164107881Y-109347000D01*
X164621337Y-109134320D01*
X165014320Y-108741337D01*
X165227000Y-108227881D01*
X165227000Y-107672119D01*
X165014320Y-107158663D01*
X164621337Y-106765680D01*
X164414487Y-106680000D01*
X164621337Y-106594320D01*
X165014320Y-106201337D01*
X165227000Y-105687881D01*
X165227000Y-105132119D01*
X165014320Y-104618663D01*
X164621337Y-104225680D01*
X164430353Y-104146572D01*
X164561143Y-104092397D01*
X164630608Y-103850213D01*
X163830000Y-103049605D01*
X163029392Y-103850213D01*
X163098857Y-104092397D01*
X163239393Y-104142535D01*
X163038663Y-104225680D01*
X162645680Y-104618663D01*
X162433000Y-105132119D01*
X156735000Y-105132119D01*
X156735000Y-102662302D01*
X162420856Y-102662302D01*
X162448638Y-103217368D01*
X162607603Y-103601143D01*
X162849787Y-103670608D01*
X163650395Y-102870000D01*
X164009605Y-102870000D01*
X164810213Y-103670608D01*
X165052397Y-103601143D01*
X165239144Y-103077698D01*
X165211362Y-102522632D01*
X165052397Y-102138857D01*
X164810213Y-102069392D01*
X164009605Y-102870000D01*
X163650395Y-102870000D01*
X162849787Y-102069392D01*
X162607603Y-102138857D01*
X162420856Y-102662302D01*
X156735000Y-102662302D01*
X156735000Y-87352119D01*
X162433000Y-87352119D01*
X162433000Y-87907881D01*
X162645680Y-88421337D01*
X163038663Y-88814320D01*
X163245513Y-88900000D01*
X163038663Y-88985680D01*
X162645680Y-89378663D01*
X162433000Y-89892119D01*
X162433000Y-90447881D01*
X162645680Y-90961337D01*
X163038663Y-91354320D01*
X163245513Y-91440000D01*
X163038663Y-91525680D01*
X162645680Y-91918663D01*
X162433000Y-92432119D01*
X162433000Y-92987881D01*
X162645680Y-93501337D01*
X163038663Y-93894320D01*
X163245513Y-93980000D01*
X163038663Y-94065680D01*
X162645680Y-94458663D01*
X162433000Y-94972119D01*
X162433000Y-95527881D01*
X162645680Y-96041337D01*
X163038663Y-96434320D01*
X163245513Y-96520000D01*
X163038663Y-96605680D01*
X162645680Y-96998663D01*
X162433000Y-97512119D01*
X162433000Y-98067881D01*
X162645680Y-98581337D01*
X163038663Y-98974320D01*
X163245513Y-99060000D01*
X163038663Y-99145680D01*
X162645680Y-99538663D01*
X162433000Y-100052119D01*
X162433000Y-100607881D01*
X162645680Y-101121337D01*
X163038663Y-101514320D01*
X163229647Y-101593428D01*
X163098857Y-101647603D01*
X163029392Y-101889787D01*
X163830000Y-102690395D01*
X164630608Y-101889787D01*
X164561143Y-101647603D01*
X164420607Y-101597465D01*
X164621337Y-101514320D01*
X165014320Y-101121337D01*
X165227000Y-100607881D01*
X165227000Y-100052119D01*
X165014320Y-99538663D01*
X164621337Y-99145680D01*
X164414487Y-99060000D01*
X164621337Y-98974320D01*
X164970657Y-98625000D01*
X165577767Y-98625000D01*
X165660000Y-98641357D01*
X165742233Y-98625000D01*
X165742237Y-98625000D01*
X165985801Y-98576552D01*
X166262001Y-98392001D01*
X166308587Y-98322280D01*
X169200645Y-95430223D01*
X169302569Y-95676290D01*
X169501995Y-95875716D01*
X167043972Y-98333739D01*
X166965903Y-98385903D01*
X166907226Y-98473720D01*
X166759250Y-98695182D01*
X166686683Y-99060000D01*
X166705000Y-99152086D01*
X166705001Y-117706223D01*
X166705000Y-117706228D01*
X166705000Y-117916702D01*
X166605000Y-118158124D01*
X166605000Y-118569872D01*
X166762569Y-118950278D01*
X167053720Y-119241429D01*
X167434126Y-119398998D01*
X167845874Y-119398998D01*
X168226280Y-119241429D01*
X168517431Y-118950278D01*
X168675000Y-118569872D01*
X168675000Y-118158124D01*
X168575000Y-117916702D01*
X168575000Y-99447289D01*
X170077179Y-97945110D01*
X170150565Y-98122280D01*
X170441716Y-98413431D01*
X170822122Y-98571000D01*
X171233870Y-98571000D01*
X171614276Y-98413431D01*
X171786583Y-98241124D01*
X171842569Y-98376286D01*
X171885000Y-98418717D01*
X171885000Y-98437927D01*
X171885001Y-98437932D01*
X171885000Y-117887172D01*
X171625720Y-117994569D01*
X171334569Y-118285720D01*
X171177000Y-118666126D01*
X171177000Y-119077874D01*
X171334569Y-119458280D01*
X171510289Y-119634000D01*
X171334569Y-119809720D01*
X171177000Y-120190126D01*
X171177000Y-120601874D01*
X171334569Y-120982280D01*
X171625720Y-121273431D01*
X172006126Y-121431000D01*
X172417874Y-121431000D01*
X172798280Y-121273431D01*
X173089431Y-120982280D01*
X173247000Y-120601874D01*
X173247000Y-120541868D01*
X174268274Y-119520595D01*
X174337989Y-119474013D01*
X174388113Y-119398998D01*
X174442691Y-119317315D01*
X174522540Y-119197813D01*
X174570988Y-118954249D01*
X174570988Y-118954245D01*
X174587345Y-118872013D01*
X174570988Y-118789781D01*
X174570988Y-99688711D01*
X174613419Y-99646280D01*
X174770988Y-99265874D01*
X174770988Y-98854126D01*
X174613419Y-98473720D01*
X174322268Y-98182569D01*
X173941862Y-98025000D01*
X173742938Y-98025000D01*
X173755000Y-97995880D01*
X173755000Y-97584132D01*
X173597431Y-97203726D01*
X173306280Y-96912575D01*
X172971118Y-96773747D01*
X173036287Y-96708578D01*
X173106002Y-96661996D01*
X173290553Y-96385796D01*
X173339001Y-96142232D01*
X173339001Y-96142229D01*
X173355358Y-96059996D01*
X173339001Y-95977763D01*
X173339001Y-90036238D01*
X173355359Y-89954001D01*
X173290553Y-89628200D01*
X173152585Y-89421717D01*
X173106002Y-89352000D01*
X173036284Y-89305416D01*
X170217867Y-86487000D01*
X170254711Y-86487000D01*
X174841000Y-91073290D01*
X174841001Y-92143949D01*
X174841000Y-92143953D01*
X174841001Y-116392702D01*
X174741000Y-116634126D01*
X174741000Y-117045874D01*
X174898569Y-117426280D01*
X175189720Y-117717431D01*
X175570126Y-117875000D01*
X175981874Y-117875000D01*
X176362280Y-117717431D01*
X176653431Y-117426280D01*
X176811000Y-117045874D01*
X176811000Y-116634126D01*
X176711000Y-116392704D01*
X176711000Y-90778085D01*
X176729317Y-90685999D01*
X176656750Y-90321181D01*
X176502259Y-90089969D01*
X176450097Y-90011903D01*
X176372031Y-89959741D01*
X176304409Y-89892119D01*
X177673000Y-89892119D01*
X177673000Y-90447881D01*
X177885680Y-90961337D01*
X178278663Y-91354320D01*
X178485513Y-91440000D01*
X178278663Y-91525680D01*
X177885680Y-91918663D01*
X177673000Y-92432119D01*
X177673000Y-92987881D01*
X177885680Y-93501337D01*
X178278663Y-93894320D01*
X178485513Y-93980000D01*
X178278663Y-94065680D01*
X177885680Y-94458663D01*
X177673000Y-94972119D01*
X177673000Y-95527881D01*
X177885680Y-96041337D01*
X178278663Y-96434320D01*
X178485513Y-96520000D01*
X178278663Y-96605680D01*
X177885680Y-96998663D01*
X177673000Y-97512119D01*
X177673000Y-98067881D01*
X177885680Y-98581337D01*
X178278663Y-98974320D01*
X178485513Y-99060000D01*
X178278663Y-99145680D01*
X177885680Y-99538663D01*
X177673000Y-100052119D01*
X177673000Y-100607881D01*
X177885680Y-101121337D01*
X178278663Y-101514320D01*
X178485513Y-101600000D01*
X178278663Y-101685680D01*
X177885680Y-102078663D01*
X177673000Y-102592119D01*
X177673000Y-103147881D01*
X177885680Y-103661337D01*
X178278663Y-104054320D01*
X178485513Y-104140000D01*
X178278663Y-104225680D01*
X177885680Y-104618663D01*
X177673000Y-105132119D01*
X177673000Y-105687881D01*
X177885680Y-106201337D01*
X178278663Y-106594320D01*
X178485513Y-106680000D01*
X178278663Y-106765680D01*
X177885680Y-107158663D01*
X177673000Y-107672119D01*
X177673000Y-108227881D01*
X177885680Y-108741337D01*
X178278663Y-109134320D01*
X178792119Y-109347000D01*
X179347881Y-109347000D01*
X179861337Y-109134320D01*
X180254320Y-108741337D01*
X180467000Y-108227881D01*
X180467000Y-107672119D01*
X180254320Y-107158663D01*
X179861337Y-106765680D01*
X179654487Y-106680000D01*
X179861337Y-106594320D01*
X180254320Y-106201337D01*
X180467000Y-105687881D01*
X180467000Y-105132119D01*
X180254320Y-104618663D01*
X179861337Y-104225680D01*
X179654487Y-104140000D01*
X179861337Y-104054320D01*
X180254320Y-103661337D01*
X180467000Y-103147881D01*
X180467000Y-102592119D01*
X180254320Y-102078663D01*
X179861337Y-101685680D01*
X179654487Y-101600000D01*
X179861337Y-101514320D01*
X180254320Y-101121337D01*
X180467000Y-100607881D01*
X180467000Y-100052119D01*
X180254320Y-99538663D01*
X179861337Y-99145680D01*
X179654487Y-99060000D01*
X179861337Y-98974320D01*
X180254320Y-98581337D01*
X180467000Y-98067881D01*
X180467000Y-97512119D01*
X180254320Y-96998663D01*
X179861337Y-96605680D01*
X179654487Y-96520000D01*
X179861337Y-96434320D01*
X180254320Y-96041337D01*
X180467000Y-95527881D01*
X180467000Y-94972119D01*
X180254320Y-94458663D01*
X179861337Y-94065680D01*
X179654487Y-93980000D01*
X179861337Y-93894320D01*
X180254320Y-93501337D01*
X180467000Y-92987881D01*
X180467000Y-92432119D01*
X180254320Y-91918663D01*
X179861337Y-91525680D01*
X179654487Y-91440000D01*
X179861337Y-91354320D01*
X180254320Y-90961337D01*
X180467000Y-90447881D01*
X180467000Y-89892119D01*
X180254320Y-89378663D01*
X179861337Y-88985680D01*
X179670353Y-88906572D01*
X179801143Y-88852397D01*
X179870608Y-88610213D01*
X179070000Y-87809605D01*
X178269392Y-88610213D01*
X178338857Y-88852397D01*
X178479393Y-88902535D01*
X178278663Y-88985680D01*
X177885680Y-89378663D01*
X177673000Y-89892119D01*
X176304409Y-89892119D01*
X173834592Y-87422302D01*
X177660856Y-87422302D01*
X177688638Y-87977368D01*
X177847603Y-88361143D01*
X178089787Y-88430608D01*
X178890395Y-87630000D01*
X179249605Y-87630000D01*
X180050213Y-88430608D01*
X180292397Y-88361143D01*
X180479144Y-87837698D01*
X180451362Y-87282632D01*
X180292397Y-86898857D01*
X180050213Y-86829392D01*
X179249605Y-87630000D01*
X178890395Y-87630000D01*
X178089787Y-86829392D01*
X177847603Y-86898857D01*
X177660856Y-87422302D01*
X173834592Y-87422302D01*
X173062077Y-86649787D01*
X178269392Y-86649787D01*
X179070000Y-87450395D01*
X179870608Y-86649787D01*
X179801143Y-86407603D01*
X179277698Y-86220856D01*
X178722632Y-86248638D01*
X178338857Y-86407603D01*
X178269392Y-86649787D01*
X173062077Y-86649787D01*
X172899289Y-86487000D01*
X172997881Y-86487000D01*
X173511337Y-86274320D01*
X173904320Y-85881337D01*
X173990000Y-85674487D01*
X174075680Y-85881337D01*
X174468663Y-86274320D01*
X174982119Y-86487000D01*
X175537881Y-86487000D01*
X176051337Y-86274320D01*
X176444320Y-85881337D01*
X176530000Y-85674487D01*
X176615680Y-85881337D01*
X177008663Y-86274320D01*
X177522119Y-86487000D01*
X178077881Y-86487000D01*
X178591337Y-86274320D01*
X178984320Y-85881337D01*
X179197000Y-85367881D01*
X179197000Y-84812119D01*
X178984320Y-84298663D01*
X178591337Y-83905680D01*
X178077881Y-83693000D01*
X177522119Y-83693000D01*
X177008663Y-83905680D01*
X176615680Y-84298663D01*
X176530000Y-84505513D01*
X176444320Y-84298663D01*
X176051337Y-83905680D01*
X175537881Y-83693000D01*
X175043868Y-83693000D01*
X173085010Y-81734143D01*
X173085010Y-57092722D01*
X173127441Y-57050291D01*
X173144721Y-57008571D01*
X176005000Y-57008571D01*
X176005000Y-68721428D01*
X182375000Y-68721428D01*
X182375000Y-57008571D01*
X176005000Y-57008571D01*
X173144721Y-57008571D01*
X173285010Y-56669885D01*
X173285010Y-56258137D01*
X173127441Y-55877731D01*
X172913716Y-55664006D01*
X173127441Y-55450280D01*
X173285010Y-55069874D01*
X173285010Y-54658126D01*
X173127441Y-54277720D01*
X172836290Y-53986569D01*
X172455884Y-53829000D01*
X172044136Y-53829000D01*
X171663730Y-53986569D01*
X171372579Y-54277720D01*
X171215010Y-54658126D01*
X171215010Y-54718132D01*
X171115000Y-54818142D01*
X171115000Y-53854289D01*
X173316031Y-51653259D01*
X173394097Y-51601097D01*
X173600750Y-51291819D01*
X173652162Y-51033352D01*
X179270204Y-51033352D01*
X179389288Y-51798175D01*
X179718246Y-52498832D01*
X180230633Y-53079000D01*
X180885258Y-53492037D01*
X181629496Y-53704742D01*
X182403520Y-53700013D01*
X183145104Y-53478233D01*
X183794634Y-53057228D01*
X184299895Y-52470844D01*
X184620268Y-51766220D01*
X184730000Y-51000000D01*
X184729185Y-50933300D01*
X184600766Y-50169990D01*
X184263273Y-49473403D01*
X183743836Y-48899539D01*
X183084214Y-48494530D01*
X182337432Y-48290934D01*
X181563524Y-48305118D01*
X180824705Y-48535942D01*
X180180366Y-48964851D01*
X179682307Y-49557363D01*
X179370566Y-50265849D01*
X179270204Y-51033352D01*
X173652162Y-51033352D01*
X173655000Y-51019086D01*
X173655000Y-51019082D01*
X173673316Y-50927001D01*
X173655000Y-50834920D01*
X173655000Y-39536541D01*
X173674476Y-39528474D01*
X173990000Y-39212950D01*
X174305524Y-39528474D01*
X174924833Y-39785000D01*
X175595167Y-39785000D01*
X176214476Y-39528474D01*
X176454247Y-39288703D01*
X176790902Y-39288703D01*
X176895687Y-39560745D01*
X177523526Y-39795619D01*
X178193456Y-39772349D01*
X178704313Y-39560745D01*
X178809098Y-39288703D01*
X177800000Y-38279605D01*
X176790902Y-39288703D01*
X176454247Y-39288703D01*
X176688474Y-39054476D01*
X176704423Y-39015972D01*
X177620395Y-38100000D01*
X177979605Y-38100000D01*
X178988703Y-39109098D01*
X179260745Y-39004313D01*
X179495619Y-38376474D01*
X179472349Y-37706544D01*
X179260745Y-37195687D01*
X178988703Y-37090902D01*
X177979605Y-38100000D01*
X177620395Y-38100000D01*
X176704423Y-37184028D01*
X176688474Y-37145524D01*
X176454247Y-36911297D01*
X176790902Y-36911297D01*
X177800000Y-37920395D01*
X178809098Y-36911297D01*
X178704313Y-36639255D01*
X178076474Y-36404381D01*
X177406544Y-36427651D01*
X176895687Y-36639255D01*
X176790902Y-36911297D01*
X176454247Y-36911297D01*
X176214476Y-36671526D01*
X175595167Y-36415000D01*
X174924833Y-36415000D01*
X174305524Y-36671526D01*
X173990000Y-36987050D01*
X173674476Y-36671526D01*
X173055167Y-36415000D01*
X172384833Y-36415000D01*
X171765524Y-36671526D01*
X171450000Y-36987050D01*
X171134476Y-36671526D01*
X170515167Y-36415000D01*
X169844833Y-36415000D01*
X169225524Y-36671526D01*
X168910000Y-36987050D01*
X168594476Y-36671526D01*
X167975167Y-36415000D01*
X167304833Y-36415000D01*
X166685524Y-36671526D01*
X166370000Y-36987050D01*
X166054476Y-36671526D01*
X165435167Y-36415000D01*
X164764833Y-36415000D01*
X164145524Y-36671526D01*
X163671526Y-37145524D01*
X163415000Y-37764833D01*
X163415000Y-38435167D01*
X163671526Y-39054476D01*
X164145524Y-39528474D01*
X164764833Y-39785000D01*
X165435167Y-39785000D01*
X166054476Y-39528474D01*
X166370000Y-39212950D01*
X166685524Y-39528474D01*
X167304833Y-39785000D01*
X167975167Y-39785000D01*
X168594476Y-39528474D01*
X168910000Y-39212950D01*
X169225524Y-39528474D01*
X169844833Y-39785000D01*
X170515167Y-39785000D01*
X171134476Y-39528474D01*
X171450000Y-39212950D01*
X171765524Y-39528474D01*
X171785001Y-39536542D01*
X171785000Y-50539710D01*
X169583970Y-52740741D01*
X169505904Y-52792903D01*
X169453742Y-52870969D01*
X169453741Y-52870970D01*
X169299250Y-53102182D01*
X169226683Y-53467000D01*
X169245001Y-53559091D01*
X169245000Y-84049343D01*
X168995680Y-84298663D01*
X168910000Y-84505513D01*
X168824320Y-84298663D01*
X168431337Y-83905680D01*
X167917881Y-83693000D01*
X167362119Y-83693000D01*
X166848663Y-83905680D01*
X166455680Y-84298663D01*
X166376572Y-84489647D01*
X166322397Y-84358857D01*
X166080213Y-84289392D01*
X165279605Y-85090000D01*
X166080213Y-85890608D01*
X166322397Y-85821143D01*
X166372535Y-85680607D01*
X166455680Y-85881337D01*
X166848663Y-86274320D01*
X167362119Y-86487000D01*
X167856131Y-86487000D01*
X167869714Y-86500583D01*
X167869720Y-86500587D01*
X170762711Y-89393578D01*
X170572569Y-89583720D01*
X170415000Y-89964126D01*
X170415000Y-90024132D01*
X169927721Y-90511412D01*
X169858003Y-90557996D01*
X169811419Y-90627714D01*
X169673451Y-90834197D01*
X169608646Y-91159997D01*
X169625004Y-91242235D01*
X169625003Y-92361286D01*
X169582572Y-92403717D01*
X169425003Y-92784123D01*
X169425003Y-92844128D01*
X165314133Y-96955000D01*
X164970657Y-96955000D01*
X164621337Y-96605680D01*
X164414487Y-96520000D01*
X164621337Y-96434320D01*
X165014320Y-96041337D01*
X165227000Y-95527881D01*
X165227000Y-94972119D01*
X165014320Y-94458663D01*
X164621337Y-94065680D01*
X164414487Y-93980000D01*
X164621337Y-93894320D01*
X165014320Y-93501337D01*
X165227000Y-92987881D01*
X165227000Y-92432119D01*
X165014320Y-91918663D01*
X164621337Y-91525680D01*
X164414487Y-91440000D01*
X164621337Y-91354320D01*
X165014320Y-90961337D01*
X165227000Y-90447881D01*
X165227000Y-89892119D01*
X165014320Y-89378663D01*
X164621337Y-88985680D01*
X164414487Y-88900000D01*
X164621337Y-88814320D01*
X165014320Y-88421337D01*
X165227000Y-87907881D01*
X165227000Y-87352119D01*
X165014320Y-86838663D01*
X164621337Y-86445680D01*
X164107881Y-86233000D01*
X163552119Y-86233000D01*
X163038663Y-86445680D01*
X162645680Y-86838663D01*
X162433000Y-87352119D01*
X156735000Y-87352119D01*
X156735000Y-86070213D01*
X164299392Y-86070213D01*
X164368857Y-86312397D01*
X164892302Y-86499144D01*
X165447368Y-86471362D01*
X165831143Y-86312397D01*
X165900608Y-86070213D01*
X165100000Y-85269605D01*
X164299392Y-86070213D01*
X156735000Y-86070213D01*
X156735000Y-84882302D01*
X163690856Y-84882302D01*
X163718638Y-85437368D01*
X163877603Y-85821143D01*
X164119787Y-85890608D01*
X164920395Y-85090000D01*
X164119787Y-84289392D01*
X163877603Y-84358857D01*
X163690856Y-84882302D01*
X156735000Y-84882302D01*
X156735000Y-84109787D01*
X164299392Y-84109787D01*
X165100000Y-84910395D01*
X165900608Y-84109787D01*
X165831143Y-83867603D01*
X165307698Y-83680856D01*
X164752632Y-83708638D01*
X164368857Y-83867603D01*
X164299392Y-84109787D01*
X156735000Y-84109787D01*
X156735000Y-55457000D01*
X159495000Y-55457000D01*
X159495000Y-70527000D01*
X165865000Y-70527000D01*
X165865000Y-55457000D01*
X159495000Y-55457000D01*
X156735000Y-55457000D01*
X156735000Y-51033352D01*
X158270204Y-51033352D01*
X158389288Y-51798175D01*
X158718246Y-52498832D01*
X159230633Y-53079000D01*
X159885258Y-53492037D01*
X160629496Y-53704742D01*
X161403520Y-53700013D01*
X162145104Y-53478233D01*
X162794634Y-53057228D01*
X163299895Y-52470844D01*
X163620268Y-51766220D01*
X163730000Y-51000000D01*
X163729185Y-50933300D01*
X163600766Y-50169990D01*
X163263273Y-49473403D01*
X162743836Y-48899539D01*
X162084214Y-48494530D01*
X161337432Y-48290934D01*
X160563524Y-48305118D01*
X159824705Y-48535942D01*
X159180366Y-48964851D01*
X158682307Y-49557363D01*
X158370566Y-50265849D01*
X158270204Y-51033352D01*
X156735000Y-51033352D01*
X156735000Y-50927612D01*
X156724150Y-50873067D01*
X156780578Y-50240808D01*
X156981705Y-49505611D01*
X157309846Y-48817649D01*
X157754628Y-48198669D01*
X158301988Y-47668239D01*
X158934639Y-47243116D01*
X159632561Y-46936749D01*
X160379183Y-46757501D01*
X160955948Y-46715147D01*
X161000000Y-46723909D01*
X161277028Y-46668805D01*
X161511881Y-46511881D01*
X161668805Y-46277028D01*
X161710000Y-46069926D01*
X161710000Y-38035964D01*
X161780776Y-37339191D01*
X161979404Y-36705369D01*
X162301418Y-36124438D01*
X162733670Y-35620121D01*
X163258503Y-35213019D01*
X163854473Y-34919766D01*
X164505707Y-34750132D01*
X164864783Y-34722502D01*
X164927612Y-34735000D01*
X164927612Y-34735000D01*
G37*
X164927612Y-34735000D02*
X178072388Y-34735000D01*
X178118959Y-34725736D01*
X178660809Y-34780776D01*
X179294631Y-34979404D01*
X179875562Y-35301418D01*
X180379879Y-35733670D01*
X180786981Y-36258503D01*
X181080234Y-36854473D01*
X181249868Y-37505707D01*
X181290001Y-38027282D01*
X181290000Y-46069925D01*
X181331195Y-46277027D01*
X181488119Y-46511880D01*
X181722972Y-46668805D01*
X182000000Y-46723909D01*
X182038476Y-46716256D01*
X182759192Y-46780578D01*
X183494389Y-46981705D01*
X184182351Y-47309846D01*
X184801331Y-47754628D01*
X185331761Y-48301988D01*
X185756884Y-48934639D01*
X186063251Y-49632561D01*
X186242499Y-50379183D01*
X186277981Y-50862359D01*
X186265001Y-50927612D01*
X186265000Y-128572387D01*
X186275850Y-128626932D01*
X186219422Y-129259193D01*
X186018295Y-129994389D01*
X185690152Y-130682355D01*
X185245374Y-131301328D01*
X184698012Y-131831761D01*
X184065362Y-132256883D01*
X183367439Y-132563251D01*
X182620819Y-132742499D01*
X182137645Y-132777980D01*
X182072388Y-132765000D01*
X160927612Y-132765000D01*
X160873067Y-132775850D01*
X160240807Y-132719422D01*
X159505611Y-132518295D01*
X158817645Y-132190152D01*
X158198672Y-131745374D01*
X157668239Y-131198012D01*
X157243117Y-130565362D01*
X156936749Y-129867439D01*
X156757501Y-129120819D01*
X156722020Y-128637645D01*
X156735000Y-128572388D01*
X156735000Y-128150126D01*
X158230459Y-128150126D01*
X158238394Y-128907799D01*
X158449789Y-129635427D01*
X158849071Y-130279403D01*
X159406823Y-130792282D01*
X160081951Y-131136277D01*
X160824717Y-131286045D01*
X161580397Y-131230551D01*
X162293315Y-130973884D01*
X162910950Y-130534955D01*
X163387795Y-129946100D01*
X163688719Y-129250704D01*
X163791553Y-128500000D01*
X163790941Y-128441538D01*
X163721679Y-128004234D01*
X168115000Y-128004234D01*
X168115000Y-128455766D01*
X168287793Y-128872926D01*
X168607074Y-129192207D01*
X169024234Y-129365000D01*
X169475766Y-129365000D01*
X169892926Y-129192207D01*
X170212207Y-128872926D01*
X170385000Y-128455766D01*
X170385000Y-128004234D01*
X172515000Y-128004234D01*
X172515000Y-128455766D01*
X172687793Y-128872926D01*
X173007074Y-129192207D01*
X173424234Y-129365000D01*
X173875766Y-129365000D01*
X174292926Y-129192207D01*
X174612207Y-128872926D01*
X174752736Y-128533658D01*
X179245206Y-128533658D01*
X179365380Y-129305484D01*
X179697351Y-130012558D01*
X180214430Y-130598038D01*
X180875050Y-131014858D01*
X181626104Y-131229510D01*
X182407215Y-131224739D01*
X183155590Y-131000927D01*
X183811069Y-130576067D01*
X184320956Y-129984314D01*
X184644264Y-129273237D01*
X184755000Y-128500000D01*
X184754178Y-128432689D01*
X184624582Y-127662389D01*
X184283999Y-126959424D01*
X183759805Y-126380304D01*
X183094142Y-125971586D01*
X182340522Y-125766126D01*
X181559527Y-125780440D01*
X180813942Y-126013378D01*
X180163703Y-126446214D01*
X179661083Y-127044152D01*
X179346487Y-127759126D01*
X179245206Y-128533658D01*
X174752736Y-128533658D01*
X174785000Y-128455766D01*
X174785000Y-128004234D01*
X174612207Y-127587074D01*
X174292926Y-127267793D01*
X173875766Y-127095000D01*
X173424234Y-127095000D01*
X173007074Y-127267793D01*
X172687793Y-127587074D01*
X172515000Y-128004234D01*
X170385000Y-128004234D01*
X170212207Y-127587074D01*
X169892926Y-127267793D01*
X169475766Y-127095000D01*
X169024234Y-127095000D01*
X168607074Y-127267793D01*
X168287793Y-127587074D01*
X168115000Y-128004234D01*
X163721679Y-128004234D01*
X163672408Y-127693152D01*
X163356986Y-127004211D01*
X162867914Y-126425472D01*
X162241223Y-125999573D01*
X161523085Y-125757893D01*
X160766409Y-125718237D01*
X160026943Y-125883528D01*
X159359166Y-126241586D01*
X158812278Y-126766033D01*
X158426570Y-127418230D01*
X158230459Y-128150126D01*
X156735000Y-128150126D01*
X156735000Y-105132119D01*
X162433000Y-105132119D01*
X162433000Y-105687881D01*
X162645680Y-106201337D01*
X163038663Y-106594320D01*
X163245513Y-106680000D01*
X163038663Y-106765680D01*
X162645680Y-107158663D01*
X162433000Y-107672119D01*
X162433000Y-108227881D01*
X162645680Y-108741337D01*
X163038663Y-109134320D01*
X163552119Y-109347000D01*
X164107881Y-109347000D01*
X164621337Y-109134320D01*
X165014320Y-108741337D01*
X165227000Y-108227881D01*
X165227000Y-107672119D01*
X165014320Y-107158663D01*
X164621337Y-106765680D01*
X164414487Y-106680000D01*
X164621337Y-106594320D01*
X165014320Y-106201337D01*
X165227000Y-105687881D01*
X165227000Y-105132119D01*
X165014320Y-104618663D01*
X164621337Y-104225680D01*
X164430353Y-104146572D01*
X164561143Y-104092397D01*
X164630608Y-103850213D01*
X163830000Y-103049605D01*
X163029392Y-103850213D01*
X163098857Y-104092397D01*
X163239393Y-104142535D01*
X163038663Y-104225680D01*
X162645680Y-104618663D01*
X162433000Y-105132119D01*
X156735000Y-105132119D01*
X156735000Y-102662302D01*
X162420856Y-102662302D01*
X162448638Y-103217368D01*
X162607603Y-103601143D01*
X162849787Y-103670608D01*
X163650395Y-102870000D01*
X164009605Y-102870000D01*
X164810213Y-103670608D01*
X165052397Y-103601143D01*
X165239144Y-103077698D01*
X165211362Y-102522632D01*
X165052397Y-102138857D01*
X164810213Y-102069392D01*
X164009605Y-102870000D01*
X163650395Y-102870000D01*
X162849787Y-102069392D01*
X162607603Y-102138857D01*
X162420856Y-102662302D01*
X156735000Y-102662302D01*
X156735000Y-87352119D01*
X162433000Y-87352119D01*
X162433000Y-87907881D01*
X162645680Y-88421337D01*
X163038663Y-88814320D01*
X163245513Y-88900000D01*
X163038663Y-88985680D01*
X162645680Y-89378663D01*
X162433000Y-89892119D01*
X162433000Y-90447881D01*
X162645680Y-90961337D01*
X163038663Y-91354320D01*
X163245513Y-91440000D01*
X163038663Y-91525680D01*
X162645680Y-91918663D01*
X162433000Y-92432119D01*
X162433000Y-92987881D01*
X162645680Y-93501337D01*
X163038663Y-93894320D01*
X163245513Y-93980000D01*
X163038663Y-94065680D01*
X162645680Y-94458663D01*
X162433000Y-94972119D01*
X162433000Y-95527881D01*
X162645680Y-96041337D01*
X163038663Y-96434320D01*
X163245513Y-96520000D01*
X163038663Y-96605680D01*
X162645680Y-96998663D01*
X162433000Y-97512119D01*
X162433000Y-98067881D01*
X162645680Y-98581337D01*
X163038663Y-98974320D01*
X163245513Y-99060000D01*
X163038663Y-99145680D01*
X162645680Y-99538663D01*
X162433000Y-100052119D01*
X162433000Y-100607881D01*
X162645680Y-101121337D01*
X163038663Y-101514320D01*
X163229647Y-101593428D01*
X163098857Y-101647603D01*
X163029392Y-101889787D01*
X163830000Y-102690395D01*
X164630608Y-101889787D01*
X164561143Y-101647603D01*
X164420607Y-101597465D01*
X164621337Y-101514320D01*
X165014320Y-101121337D01*
X165227000Y-100607881D01*
X165227000Y-100052119D01*
X165014320Y-99538663D01*
X164621337Y-99145680D01*
X164414487Y-99060000D01*
X164621337Y-98974320D01*
X164970657Y-98625000D01*
X165577767Y-98625000D01*
X165660000Y-98641357D01*
X165742233Y-98625000D01*
X165742237Y-98625000D01*
X165985801Y-98576552D01*
X166262001Y-98392001D01*
X166308587Y-98322280D01*
X169200645Y-95430223D01*
X169302569Y-95676290D01*
X169501995Y-95875716D01*
X167043972Y-98333739D01*
X166965903Y-98385903D01*
X166907226Y-98473720D01*
X166759250Y-98695182D01*
X166686683Y-99060000D01*
X166705000Y-99152086D01*
X166705001Y-117706223D01*
X166705000Y-117706228D01*
X166705000Y-117916702D01*
X166605000Y-118158124D01*
X166605000Y-118569872D01*
X166762569Y-118950278D01*
X167053720Y-119241429D01*
X167434126Y-119398998D01*
X167845874Y-119398998D01*
X168226280Y-119241429D01*
X168517431Y-118950278D01*
X168675000Y-118569872D01*
X168675000Y-118158124D01*
X168575000Y-117916702D01*
X168575000Y-99447289D01*
X170077179Y-97945110D01*
X170150565Y-98122280D01*
X170441716Y-98413431D01*
X170822122Y-98571000D01*
X171233870Y-98571000D01*
X171614276Y-98413431D01*
X171786583Y-98241124D01*
X171842569Y-98376286D01*
X171885000Y-98418717D01*
X171885000Y-98437927D01*
X171885001Y-98437932D01*
X171885000Y-117887172D01*
X171625720Y-117994569D01*
X171334569Y-118285720D01*
X171177000Y-118666126D01*
X171177000Y-119077874D01*
X171334569Y-119458280D01*
X171510289Y-119634000D01*
X171334569Y-119809720D01*
X171177000Y-120190126D01*
X171177000Y-120601874D01*
X171334569Y-120982280D01*
X171625720Y-121273431D01*
X172006126Y-121431000D01*
X172417874Y-121431000D01*
X172798280Y-121273431D01*
X173089431Y-120982280D01*
X173247000Y-120601874D01*
X173247000Y-120541868D01*
X174268274Y-119520595D01*
X174337989Y-119474013D01*
X174388113Y-119398998D01*
X174442691Y-119317315D01*
X174522540Y-119197813D01*
X174570988Y-118954249D01*
X174570988Y-118954245D01*
X174587345Y-118872013D01*
X174570988Y-118789781D01*
X174570988Y-99688711D01*
X174613419Y-99646280D01*
X174770988Y-99265874D01*
X174770988Y-98854126D01*
X174613419Y-98473720D01*
X174322268Y-98182569D01*
X173941862Y-98025000D01*
X173742938Y-98025000D01*
X173755000Y-97995880D01*
X173755000Y-97584132D01*
X173597431Y-97203726D01*
X173306280Y-96912575D01*
X172971118Y-96773747D01*
X173036287Y-96708578D01*
X173106002Y-96661996D01*
X173290553Y-96385796D01*
X173339001Y-96142232D01*
X173339001Y-96142229D01*
X173355358Y-96059996D01*
X173339001Y-95977763D01*
X173339001Y-90036238D01*
X173355359Y-89954001D01*
X173290553Y-89628200D01*
X173152585Y-89421717D01*
X173106002Y-89352000D01*
X173036284Y-89305416D01*
X170217867Y-86487000D01*
X170254711Y-86487000D01*
X174841000Y-91073290D01*
X174841001Y-92143949D01*
X174841000Y-92143953D01*
X174841001Y-116392702D01*
X174741000Y-116634126D01*
X174741000Y-117045874D01*
X174898569Y-117426280D01*
X175189720Y-117717431D01*
X175570126Y-117875000D01*
X175981874Y-117875000D01*
X176362280Y-117717431D01*
X176653431Y-117426280D01*
X176811000Y-117045874D01*
X176811000Y-116634126D01*
X176711000Y-116392704D01*
X176711000Y-90778085D01*
X176729317Y-90685999D01*
X176656750Y-90321181D01*
X176502259Y-90089969D01*
X176450097Y-90011903D01*
X176372031Y-89959741D01*
X176304409Y-89892119D01*
X177673000Y-89892119D01*
X177673000Y-90447881D01*
X177885680Y-90961337D01*
X178278663Y-91354320D01*
X178485513Y-91440000D01*
X178278663Y-91525680D01*
X177885680Y-91918663D01*
X177673000Y-92432119D01*
X177673000Y-92987881D01*
X177885680Y-93501337D01*
X178278663Y-93894320D01*
X178485513Y-93980000D01*
X178278663Y-94065680D01*
X177885680Y-94458663D01*
X177673000Y-94972119D01*
X177673000Y-95527881D01*
X177885680Y-96041337D01*
X178278663Y-96434320D01*
X178485513Y-96520000D01*
X178278663Y-96605680D01*
X177885680Y-96998663D01*
X177673000Y-97512119D01*
X177673000Y-98067881D01*
X177885680Y-98581337D01*
X178278663Y-98974320D01*
X178485513Y-99060000D01*
X178278663Y-99145680D01*
X177885680Y-99538663D01*
X177673000Y-100052119D01*
X177673000Y-100607881D01*
X177885680Y-101121337D01*
X178278663Y-101514320D01*
X178485513Y-101600000D01*
X178278663Y-101685680D01*
X177885680Y-102078663D01*
X177673000Y-102592119D01*
X177673000Y-103147881D01*
X177885680Y-103661337D01*
X178278663Y-104054320D01*
X178485513Y-104140000D01*
X178278663Y-104225680D01*
X177885680Y-104618663D01*
X177673000Y-105132119D01*
X177673000Y-105687881D01*
X177885680Y-106201337D01*
X178278663Y-106594320D01*
X178485513Y-106680000D01*
X178278663Y-106765680D01*
X177885680Y-107158663D01*
X177673000Y-107672119D01*
X177673000Y-108227881D01*
X177885680Y-108741337D01*
X178278663Y-109134320D01*
X178792119Y-109347000D01*
X179347881Y-109347000D01*
X179861337Y-109134320D01*
X180254320Y-108741337D01*
X180467000Y-108227881D01*
X180467000Y-107672119D01*
X180254320Y-107158663D01*
X179861337Y-106765680D01*
X179654487Y-106680000D01*
X179861337Y-106594320D01*
X180254320Y-106201337D01*
X180467000Y-105687881D01*
X180467000Y-105132119D01*
X180254320Y-104618663D01*
X179861337Y-104225680D01*
X179654487Y-104140000D01*
X179861337Y-104054320D01*
X180254320Y-103661337D01*
X180467000Y-103147881D01*
X180467000Y-102592119D01*
X180254320Y-102078663D01*
X179861337Y-101685680D01*
X179654487Y-101600000D01*
X179861337Y-101514320D01*
X180254320Y-101121337D01*
X180467000Y-100607881D01*
X180467000Y-100052119D01*
X180254320Y-99538663D01*
X179861337Y-99145680D01*
X179654487Y-99060000D01*
X179861337Y-98974320D01*
X180254320Y-98581337D01*
X180467000Y-98067881D01*
X180467000Y-97512119D01*
X180254320Y-96998663D01*
X179861337Y-96605680D01*
X179654487Y-96520000D01*
X179861337Y-96434320D01*
X180254320Y-96041337D01*
X180467000Y-95527881D01*
X180467000Y-94972119D01*
X180254320Y-94458663D01*
X179861337Y-94065680D01*
X179654487Y-93980000D01*
X179861337Y-93894320D01*
X180254320Y-93501337D01*
X180467000Y-92987881D01*
X180467000Y-92432119D01*
X180254320Y-91918663D01*
X179861337Y-91525680D01*
X179654487Y-91440000D01*
X179861337Y-91354320D01*
X180254320Y-90961337D01*
X180467000Y-90447881D01*
X180467000Y-89892119D01*
X180254320Y-89378663D01*
X179861337Y-88985680D01*
X179670353Y-88906572D01*
X179801143Y-88852397D01*
X179870608Y-88610213D01*
X179070000Y-87809605D01*
X178269392Y-88610213D01*
X178338857Y-88852397D01*
X178479393Y-88902535D01*
X178278663Y-88985680D01*
X177885680Y-89378663D01*
X177673000Y-89892119D01*
X176304409Y-89892119D01*
X173834592Y-87422302D01*
X177660856Y-87422302D01*
X177688638Y-87977368D01*
X177847603Y-88361143D01*
X178089787Y-88430608D01*
X178890395Y-87630000D01*
X179249605Y-87630000D01*
X180050213Y-88430608D01*
X180292397Y-88361143D01*
X180479144Y-87837698D01*
X180451362Y-87282632D01*
X180292397Y-86898857D01*
X180050213Y-86829392D01*
X179249605Y-87630000D01*
X178890395Y-87630000D01*
X178089787Y-86829392D01*
X177847603Y-86898857D01*
X177660856Y-87422302D01*
X173834592Y-87422302D01*
X173062077Y-86649787D01*
X178269392Y-86649787D01*
X179070000Y-87450395D01*
X179870608Y-86649787D01*
X179801143Y-86407603D01*
X179277698Y-86220856D01*
X178722632Y-86248638D01*
X178338857Y-86407603D01*
X178269392Y-86649787D01*
X173062077Y-86649787D01*
X172899289Y-86487000D01*
X172997881Y-86487000D01*
X173511337Y-86274320D01*
X173904320Y-85881337D01*
X173990000Y-85674487D01*
X174075680Y-85881337D01*
X174468663Y-86274320D01*
X174982119Y-86487000D01*
X175537881Y-86487000D01*
X176051337Y-86274320D01*
X176444320Y-85881337D01*
X176530000Y-85674487D01*
X176615680Y-85881337D01*
X177008663Y-86274320D01*
X177522119Y-86487000D01*
X178077881Y-86487000D01*
X178591337Y-86274320D01*
X178984320Y-85881337D01*
X179197000Y-85367881D01*
X179197000Y-84812119D01*
X178984320Y-84298663D01*
X178591337Y-83905680D01*
X178077881Y-83693000D01*
X177522119Y-83693000D01*
X177008663Y-83905680D01*
X176615680Y-84298663D01*
X176530000Y-84505513D01*
X176444320Y-84298663D01*
X176051337Y-83905680D01*
X175537881Y-83693000D01*
X175043868Y-83693000D01*
X173085010Y-81734143D01*
X173085010Y-57092722D01*
X173127441Y-57050291D01*
X173144721Y-57008571D01*
X176005000Y-57008571D01*
X176005000Y-68721428D01*
X182375000Y-68721428D01*
X182375000Y-57008571D01*
X176005000Y-57008571D01*
X173144721Y-57008571D01*
X173285010Y-56669885D01*
X173285010Y-56258137D01*
X173127441Y-55877731D01*
X172913716Y-55664006D01*
X173127441Y-55450280D01*
X173285010Y-55069874D01*
X173285010Y-54658126D01*
X173127441Y-54277720D01*
X172836290Y-53986569D01*
X172455884Y-53829000D01*
X172044136Y-53829000D01*
X171663730Y-53986569D01*
X171372579Y-54277720D01*
X171215010Y-54658126D01*
X171215010Y-54718132D01*
X171115000Y-54818142D01*
X171115000Y-53854289D01*
X173316031Y-51653259D01*
X173394097Y-51601097D01*
X173600750Y-51291819D01*
X173652162Y-51033352D01*
X179270204Y-51033352D01*
X179389288Y-51798175D01*
X179718246Y-52498832D01*
X180230633Y-53079000D01*
X180885258Y-53492037D01*
X181629496Y-53704742D01*
X182403520Y-53700013D01*
X183145104Y-53478233D01*
X183794634Y-53057228D01*
X184299895Y-52470844D01*
X184620268Y-51766220D01*
X184730000Y-51000000D01*
X184729185Y-50933300D01*
X184600766Y-50169990D01*
X184263273Y-49473403D01*
X183743836Y-48899539D01*
X183084214Y-48494530D01*
X182337432Y-48290934D01*
X181563524Y-48305118D01*
X180824705Y-48535942D01*
X180180366Y-48964851D01*
X179682307Y-49557363D01*
X179370566Y-50265849D01*
X179270204Y-51033352D01*
X173652162Y-51033352D01*
X173655000Y-51019086D01*
X173655000Y-51019082D01*
X173673316Y-50927001D01*
X173655000Y-50834920D01*
X173655000Y-39536541D01*
X173674476Y-39528474D01*
X173990000Y-39212950D01*
X174305524Y-39528474D01*
X174924833Y-39785000D01*
X175595167Y-39785000D01*
X176214476Y-39528474D01*
X176454247Y-39288703D01*
X176790902Y-39288703D01*
X176895687Y-39560745D01*
X177523526Y-39795619D01*
X178193456Y-39772349D01*
X178704313Y-39560745D01*
X178809098Y-39288703D01*
X177800000Y-38279605D01*
X176790902Y-39288703D01*
X176454247Y-39288703D01*
X176688474Y-39054476D01*
X176704423Y-39015972D01*
X177620395Y-38100000D01*
X177979605Y-38100000D01*
X178988703Y-39109098D01*
X179260745Y-39004313D01*
X179495619Y-38376474D01*
X179472349Y-37706544D01*
X179260745Y-37195687D01*
X178988703Y-37090902D01*
X177979605Y-38100000D01*
X177620395Y-38100000D01*
X176704423Y-37184028D01*
X176688474Y-37145524D01*
X176454247Y-36911297D01*
X176790902Y-36911297D01*
X177800000Y-37920395D01*
X178809098Y-36911297D01*
X178704313Y-36639255D01*
X178076474Y-36404381D01*
X177406544Y-36427651D01*
X176895687Y-36639255D01*
X176790902Y-36911297D01*
X176454247Y-36911297D01*
X176214476Y-36671526D01*
X175595167Y-36415000D01*
X174924833Y-36415000D01*
X174305524Y-36671526D01*
X173990000Y-36987050D01*
X173674476Y-36671526D01*
X173055167Y-36415000D01*
X172384833Y-36415000D01*
X171765524Y-36671526D01*
X171450000Y-36987050D01*
X171134476Y-36671526D01*
X170515167Y-36415000D01*
X169844833Y-36415000D01*
X169225524Y-36671526D01*
X168910000Y-36987050D01*
X168594476Y-36671526D01*
X167975167Y-36415000D01*
X167304833Y-36415000D01*
X166685524Y-36671526D01*
X166370000Y-36987050D01*
X166054476Y-36671526D01*
X165435167Y-36415000D01*
X164764833Y-36415000D01*
X164145524Y-36671526D01*
X163671526Y-37145524D01*
X163415000Y-37764833D01*
X163415000Y-38435167D01*
X163671526Y-39054476D01*
X164145524Y-39528474D01*
X164764833Y-39785000D01*
X165435167Y-39785000D01*
X166054476Y-39528474D01*
X166370000Y-39212950D01*
X166685524Y-39528474D01*
X167304833Y-39785000D01*
X167975167Y-39785000D01*
X168594476Y-39528474D01*
X168910000Y-39212950D01*
X169225524Y-39528474D01*
X169844833Y-39785000D01*
X170515167Y-39785000D01*
X171134476Y-39528474D01*
X171450000Y-39212950D01*
X171765524Y-39528474D01*
X171785001Y-39536542D01*
X171785000Y-50539710D01*
X169583970Y-52740741D01*
X169505904Y-52792903D01*
X169453742Y-52870969D01*
X169453741Y-52870970D01*
X169299250Y-53102182D01*
X169226683Y-53467000D01*
X169245001Y-53559091D01*
X169245000Y-84049343D01*
X168995680Y-84298663D01*
X168910000Y-84505513D01*
X168824320Y-84298663D01*
X168431337Y-83905680D01*
X167917881Y-83693000D01*
X167362119Y-83693000D01*
X166848663Y-83905680D01*
X166455680Y-84298663D01*
X166376572Y-84489647D01*
X166322397Y-84358857D01*
X166080213Y-84289392D01*
X165279605Y-85090000D01*
X166080213Y-85890608D01*
X166322397Y-85821143D01*
X166372535Y-85680607D01*
X166455680Y-85881337D01*
X166848663Y-86274320D01*
X167362119Y-86487000D01*
X167856131Y-86487000D01*
X167869714Y-86500583D01*
X167869720Y-86500587D01*
X170762711Y-89393578D01*
X170572569Y-89583720D01*
X170415000Y-89964126D01*
X170415000Y-90024132D01*
X169927721Y-90511412D01*
X169858003Y-90557996D01*
X169811419Y-90627714D01*
X169673451Y-90834197D01*
X169608646Y-91159997D01*
X169625004Y-91242235D01*
X169625003Y-92361286D01*
X169582572Y-92403717D01*
X169425003Y-92784123D01*
X169425003Y-92844128D01*
X165314133Y-96955000D01*
X164970657Y-96955000D01*
X164621337Y-96605680D01*
X164414487Y-96520000D01*
X164621337Y-96434320D01*
X165014320Y-96041337D01*
X165227000Y-95527881D01*
X165227000Y-94972119D01*
X165014320Y-94458663D01*
X164621337Y-94065680D01*
X164414487Y-93980000D01*
X164621337Y-93894320D01*
X165014320Y-93501337D01*
X165227000Y-92987881D01*
X165227000Y-92432119D01*
X165014320Y-91918663D01*
X164621337Y-91525680D01*
X164414487Y-91440000D01*
X164621337Y-91354320D01*
X165014320Y-90961337D01*
X165227000Y-90447881D01*
X165227000Y-89892119D01*
X165014320Y-89378663D01*
X164621337Y-88985680D01*
X164414487Y-88900000D01*
X164621337Y-88814320D01*
X165014320Y-88421337D01*
X165227000Y-87907881D01*
X165227000Y-87352119D01*
X165014320Y-86838663D01*
X164621337Y-86445680D01*
X164107881Y-86233000D01*
X163552119Y-86233000D01*
X163038663Y-86445680D01*
X162645680Y-86838663D01*
X162433000Y-87352119D01*
X156735000Y-87352119D01*
X156735000Y-86070213D01*
X164299392Y-86070213D01*
X164368857Y-86312397D01*
X164892302Y-86499144D01*
X165447368Y-86471362D01*
X165831143Y-86312397D01*
X165900608Y-86070213D01*
X165100000Y-85269605D01*
X164299392Y-86070213D01*
X156735000Y-86070213D01*
X156735000Y-84882302D01*
X163690856Y-84882302D01*
X163718638Y-85437368D01*
X163877603Y-85821143D01*
X164119787Y-85890608D01*
X164920395Y-85090000D01*
X164119787Y-84289392D01*
X163877603Y-84358857D01*
X163690856Y-84882302D01*
X156735000Y-84882302D01*
X156735000Y-84109787D01*
X164299392Y-84109787D01*
X165100000Y-84910395D01*
X165900608Y-84109787D01*
X165831143Y-83867603D01*
X165307698Y-83680856D01*
X164752632Y-83708638D01*
X164368857Y-83867603D01*
X164299392Y-84109787D01*
X156735000Y-84109787D01*
X156735000Y-55457000D01*
X159495000Y-55457000D01*
X159495000Y-70527000D01*
X165865000Y-70527000D01*
X165865000Y-55457000D01*
X159495000Y-55457000D01*
X156735000Y-55457000D01*
X156735000Y-51033352D01*
X158270204Y-51033352D01*
X158389288Y-51798175D01*
X158718246Y-52498832D01*
X159230633Y-53079000D01*
X159885258Y-53492037D01*
X160629496Y-53704742D01*
X161403520Y-53700013D01*
X162145104Y-53478233D01*
X162794634Y-53057228D01*
X163299895Y-52470844D01*
X163620268Y-51766220D01*
X163730000Y-51000000D01*
X163729185Y-50933300D01*
X163600766Y-50169990D01*
X163263273Y-49473403D01*
X162743836Y-48899539D01*
X162084214Y-48494530D01*
X161337432Y-48290934D01*
X160563524Y-48305118D01*
X159824705Y-48535942D01*
X159180366Y-48964851D01*
X158682307Y-49557363D01*
X158370566Y-50265849D01*
X158270204Y-51033352D01*
X156735000Y-51033352D01*
X156735000Y-50927612D01*
X156724150Y-50873067D01*
X156780578Y-50240808D01*
X156981705Y-49505611D01*
X157309846Y-48817649D01*
X157754628Y-48198669D01*
X158301988Y-47668239D01*
X158934639Y-47243116D01*
X159632561Y-46936749D01*
X160379183Y-46757501D01*
X160955948Y-46715147D01*
X161000000Y-46723909D01*
X161277028Y-46668805D01*
X161511881Y-46511881D01*
X161668805Y-46277028D01*
X161710000Y-46069926D01*
X161710000Y-38035964D01*
X161780776Y-37339191D01*
X161979404Y-36705369D01*
X162301418Y-36124438D01*
X162733670Y-35620121D01*
X163258503Y-35213019D01*
X163854473Y-34919766D01*
X164505707Y-34750132D01*
X164864783Y-34722502D01*
X164927612Y-34735000D01*
D17*
G36*
X197927612Y-34735000D02*
X211072388Y-34735000D01*
X211118959Y-34725736D01*
X211660809Y-34780776D01*
X212294631Y-34979404D01*
X212875562Y-35301418D01*
X213379879Y-35733670D01*
X213786981Y-36258503D01*
X214080234Y-36854473D01*
X214249868Y-37505707D01*
X214290001Y-38027282D01*
X214290000Y-46069925D01*
X214331195Y-46277027D01*
X214488119Y-46511880D01*
X214722972Y-46668805D01*
X215000000Y-46723909D01*
X215038476Y-46716256D01*
X215759192Y-46780578D01*
X216494389Y-46981705D01*
X217182351Y-47309846D01*
X217801331Y-47754628D01*
X218331761Y-48301988D01*
X218756884Y-48934639D01*
X219063251Y-49632561D01*
X219242499Y-50379183D01*
X219277981Y-50862359D01*
X219265001Y-50927612D01*
X219265000Y-128572387D01*
X219275850Y-128626932D01*
X219219422Y-129259193D01*
X219018295Y-129994389D01*
X218690152Y-130682355D01*
X218245374Y-131301328D01*
X217698012Y-131831761D01*
X217065362Y-132256883D01*
X216367439Y-132563251D01*
X215620819Y-132742499D01*
X215137645Y-132777980D01*
X215072388Y-132765000D01*
X193927612Y-132765000D01*
X193873067Y-132775850D01*
X193240807Y-132719422D01*
X192505611Y-132518295D01*
X191817645Y-132190152D01*
X191198672Y-131745374D01*
X190668239Y-131198012D01*
X190243117Y-130565362D01*
X189936749Y-129867439D01*
X189757501Y-129120819D01*
X189722020Y-128637645D01*
X189735000Y-128572388D01*
X189735000Y-128150126D01*
X191230459Y-128150126D01*
X191238394Y-128907799D01*
X191449789Y-129635427D01*
X191849071Y-130279403D01*
X192406823Y-130792282D01*
X193081951Y-131136277D01*
X193824717Y-131286045D01*
X194580397Y-131230551D01*
X195293315Y-130973884D01*
X195910950Y-130534955D01*
X196387795Y-129946100D01*
X196688719Y-129250704D01*
X196791553Y-128500000D01*
X196790941Y-128441538D01*
X196721679Y-128004234D01*
X201115000Y-128004234D01*
X201115000Y-128455766D01*
X201287793Y-128872926D01*
X201607074Y-129192207D01*
X202024234Y-129365000D01*
X202475766Y-129365000D01*
X202892926Y-129192207D01*
X203212207Y-128872926D01*
X203385000Y-128455766D01*
X203385000Y-128004234D01*
X205515000Y-128004234D01*
X205515000Y-128455766D01*
X205687793Y-128872926D01*
X206007074Y-129192207D01*
X206424234Y-129365000D01*
X206875766Y-129365000D01*
X207292926Y-129192207D01*
X207612207Y-128872926D01*
X207752736Y-128533658D01*
X212245206Y-128533658D01*
X212365380Y-129305484D01*
X212697351Y-130012558D01*
X213214430Y-130598038D01*
X213875050Y-131014858D01*
X214626104Y-131229510D01*
X215407215Y-131224739D01*
X216155590Y-131000927D01*
X216811069Y-130576067D01*
X217320956Y-129984314D01*
X217644264Y-129273237D01*
X217755000Y-128500000D01*
X217754178Y-128432689D01*
X217624582Y-127662389D01*
X217283999Y-126959424D01*
X216759805Y-126380304D01*
X216094142Y-125971586D01*
X215340522Y-125766126D01*
X214559527Y-125780440D01*
X213813942Y-126013378D01*
X213163703Y-126446214D01*
X212661083Y-127044152D01*
X212346487Y-127759126D01*
X212245206Y-128533658D01*
X207752736Y-128533658D01*
X207785000Y-128455766D01*
X207785000Y-128004234D01*
X207612207Y-127587074D01*
X207292926Y-127267793D01*
X206875766Y-127095000D01*
X206424234Y-127095000D01*
X206007074Y-127267793D01*
X205687793Y-127587074D01*
X205515000Y-128004234D01*
X203385000Y-128004234D01*
X203212207Y-127587074D01*
X202892926Y-127267793D01*
X202475766Y-127095000D01*
X202024234Y-127095000D01*
X201607074Y-127267793D01*
X201287793Y-127587074D01*
X201115000Y-128004234D01*
X196721679Y-128004234D01*
X196672408Y-127693152D01*
X196356986Y-127004211D01*
X195867914Y-126425472D01*
X195241223Y-125999573D01*
X194523085Y-125757893D01*
X193766409Y-125718237D01*
X193026943Y-125883528D01*
X192359166Y-126241586D01*
X191812278Y-126766033D01*
X191426570Y-127418230D01*
X191230459Y-128150126D01*
X189735000Y-128150126D01*
X189735000Y-105132119D01*
X195433000Y-105132119D01*
X195433000Y-105687881D01*
X195645680Y-106201337D01*
X196038663Y-106594320D01*
X196245513Y-106680000D01*
X196038663Y-106765680D01*
X195645680Y-107158663D01*
X195433000Y-107672119D01*
X195433000Y-108227881D01*
X195645680Y-108741337D01*
X196038663Y-109134320D01*
X196552119Y-109347000D01*
X197107881Y-109347000D01*
X197621337Y-109134320D01*
X198014320Y-108741337D01*
X198227000Y-108227881D01*
X198227000Y-107672119D01*
X198014320Y-107158663D01*
X197621337Y-106765680D01*
X197414487Y-106680000D01*
X197621337Y-106594320D01*
X198014320Y-106201337D01*
X198227000Y-105687881D01*
X198227000Y-105132119D01*
X198014320Y-104618663D01*
X197621337Y-104225680D01*
X197430353Y-104146572D01*
X197561143Y-104092397D01*
X197630608Y-103850213D01*
X196830000Y-103049605D01*
X196029392Y-103850213D01*
X196098857Y-104092397D01*
X196239393Y-104142535D01*
X196038663Y-104225680D01*
X195645680Y-104618663D01*
X195433000Y-105132119D01*
X189735000Y-105132119D01*
X189735000Y-102662302D01*
X195420856Y-102662302D01*
X195448638Y-103217368D01*
X195607603Y-103601143D01*
X195849787Y-103670608D01*
X196650395Y-102870000D01*
X197009605Y-102870000D01*
X197810213Y-103670608D01*
X198052397Y-103601143D01*
X198239144Y-103077698D01*
X198211362Y-102522632D01*
X198052397Y-102138857D01*
X197810213Y-102069392D01*
X197009605Y-102870000D01*
X196650395Y-102870000D01*
X195849787Y-102069392D01*
X195607603Y-102138857D01*
X195420856Y-102662302D01*
X189735000Y-102662302D01*
X189735000Y-87352119D01*
X195433000Y-87352119D01*
X195433000Y-87907881D01*
X195645680Y-88421337D01*
X196038663Y-88814320D01*
X196245513Y-88900000D01*
X196038663Y-88985680D01*
X195645680Y-89378663D01*
X195433000Y-89892119D01*
X195433000Y-90447881D01*
X195645680Y-90961337D01*
X196038663Y-91354320D01*
X196245513Y-91440000D01*
X196038663Y-91525680D01*
X195645680Y-91918663D01*
X195433000Y-92432119D01*
X195433000Y-92987881D01*
X195645680Y-93501337D01*
X196038663Y-93894320D01*
X196245513Y-93980000D01*
X196038663Y-94065680D01*
X195645680Y-94458663D01*
X195433000Y-94972119D01*
X195433000Y-95527881D01*
X195645680Y-96041337D01*
X196038663Y-96434320D01*
X196245513Y-96520000D01*
X196038663Y-96605680D01*
X195645680Y-96998663D01*
X195433000Y-97512119D01*
X195433000Y-98067881D01*
X195645680Y-98581337D01*
X196038663Y-98974320D01*
X196245513Y-99060000D01*
X196038663Y-99145680D01*
X195645680Y-99538663D01*
X195433000Y-100052119D01*
X195433000Y-100607881D01*
X195645680Y-101121337D01*
X196038663Y-101514320D01*
X196229647Y-101593428D01*
X196098857Y-101647603D01*
X196029392Y-101889787D01*
X196830000Y-102690395D01*
X197630608Y-101889787D01*
X197561143Y-101647603D01*
X197420607Y-101597465D01*
X197621337Y-101514320D01*
X198014320Y-101121337D01*
X198227000Y-100607881D01*
X198227000Y-100052119D01*
X198014320Y-99538663D01*
X197621337Y-99145680D01*
X197414487Y-99060000D01*
X197621337Y-98974320D01*
X197970657Y-98625000D01*
X198577767Y-98625000D01*
X198660000Y-98641357D01*
X198742233Y-98625000D01*
X198742237Y-98625000D01*
X198985801Y-98576552D01*
X199262001Y-98392001D01*
X199308587Y-98322280D01*
X202200645Y-95430223D01*
X202302569Y-95676290D01*
X202501995Y-95875716D01*
X200043972Y-98333739D01*
X199965903Y-98385903D01*
X199907226Y-98473720D01*
X199759250Y-98695182D01*
X199686683Y-99060000D01*
X199705000Y-99152086D01*
X199705001Y-117706223D01*
X199705000Y-117706228D01*
X199705000Y-117916702D01*
X199605000Y-118158124D01*
X199605000Y-118569872D01*
X199762569Y-118950278D01*
X200053720Y-119241429D01*
X200434126Y-119398998D01*
X200845874Y-119398998D01*
X201226280Y-119241429D01*
X201517431Y-118950278D01*
X201675000Y-118569872D01*
X201675000Y-118158124D01*
X201575000Y-117916702D01*
X201575000Y-99447289D01*
X203077179Y-97945110D01*
X203150565Y-98122280D01*
X203441716Y-98413431D01*
X203822122Y-98571000D01*
X204233870Y-98571000D01*
X204614276Y-98413431D01*
X204786583Y-98241124D01*
X204842569Y-98376286D01*
X204885000Y-98418717D01*
X204885000Y-98437927D01*
X204885001Y-98437932D01*
X204885000Y-117887172D01*
X204625720Y-117994569D01*
X204334569Y-118285720D01*
X204177000Y-118666126D01*
X204177000Y-119077874D01*
X204334569Y-119458280D01*
X204510289Y-119634000D01*
X204334569Y-119809720D01*
X204177000Y-120190126D01*
X204177000Y-120601874D01*
X204334569Y-120982280D01*
X204625720Y-121273431D01*
X205006126Y-121431000D01*
X205417874Y-121431000D01*
X205798280Y-121273431D01*
X206089431Y-120982280D01*
X206247000Y-120601874D01*
X206247000Y-120541868D01*
X207268274Y-119520595D01*
X207337989Y-119474013D01*
X207388113Y-119398998D01*
X207442691Y-119317315D01*
X207522540Y-119197813D01*
X207570988Y-118954249D01*
X207570988Y-118954245D01*
X207587345Y-118872013D01*
X207570988Y-118789781D01*
X207570988Y-99688711D01*
X207613419Y-99646280D01*
X207770988Y-99265874D01*
X207770988Y-98854126D01*
X207613419Y-98473720D01*
X207322268Y-98182569D01*
X206941862Y-98025000D01*
X206742938Y-98025000D01*
X206755000Y-97995880D01*
X206755000Y-97584132D01*
X206597431Y-97203726D01*
X206306280Y-96912575D01*
X205971118Y-96773747D01*
X206036287Y-96708578D01*
X206106002Y-96661996D01*
X206290553Y-96385796D01*
X206339001Y-96142232D01*
X206339001Y-96142229D01*
X206355358Y-96059996D01*
X206339001Y-95977763D01*
X206339001Y-90036238D01*
X206355359Y-89954001D01*
X206290553Y-89628200D01*
X206152585Y-89421717D01*
X206106002Y-89352000D01*
X206036284Y-89305416D01*
X203217867Y-86487000D01*
X203254711Y-86487000D01*
X207841000Y-91073290D01*
X207841001Y-92143949D01*
X207841000Y-92143953D01*
X207841001Y-116392702D01*
X207741000Y-116634126D01*
X207741000Y-117045874D01*
X207898569Y-117426280D01*
X208189720Y-117717431D01*
X208570126Y-117875000D01*
X208981874Y-117875000D01*
X209362280Y-117717431D01*
X209653431Y-117426280D01*
X209811000Y-117045874D01*
X209811000Y-116634126D01*
X209711000Y-116392704D01*
X209711000Y-90778085D01*
X209729317Y-90685999D01*
X209656750Y-90321181D01*
X209502259Y-90089969D01*
X209450097Y-90011903D01*
X209372031Y-89959741D01*
X209304409Y-89892119D01*
X210673000Y-89892119D01*
X210673000Y-90447881D01*
X210885680Y-90961337D01*
X211278663Y-91354320D01*
X211485513Y-91440000D01*
X211278663Y-91525680D01*
X210885680Y-91918663D01*
X210673000Y-92432119D01*
X210673000Y-92987881D01*
X210885680Y-93501337D01*
X211278663Y-93894320D01*
X211485513Y-93980000D01*
X211278663Y-94065680D01*
X210885680Y-94458663D01*
X210673000Y-94972119D01*
X210673000Y-95527881D01*
X210885680Y-96041337D01*
X211278663Y-96434320D01*
X211485513Y-96520000D01*
X211278663Y-96605680D01*
X210885680Y-96998663D01*
X210673000Y-97512119D01*
X210673000Y-98067881D01*
X210885680Y-98581337D01*
X211278663Y-98974320D01*
X211485513Y-99060000D01*
X211278663Y-99145680D01*
X210885680Y-99538663D01*
X210673000Y-100052119D01*
X210673000Y-100607881D01*
X210885680Y-101121337D01*
X211278663Y-101514320D01*
X211485513Y-101600000D01*
X211278663Y-101685680D01*
X210885680Y-102078663D01*
X210673000Y-102592119D01*
X210673000Y-103147881D01*
X210885680Y-103661337D01*
X211278663Y-104054320D01*
X211485513Y-104140000D01*
X211278663Y-104225680D01*
X210885680Y-104618663D01*
X210673000Y-105132119D01*
X210673000Y-105687881D01*
X210885680Y-106201337D01*
X211278663Y-106594320D01*
X211485513Y-106680000D01*
X211278663Y-106765680D01*
X210885680Y-107158663D01*
X210673000Y-107672119D01*
X210673000Y-108227881D01*
X210885680Y-108741337D01*
X211278663Y-109134320D01*
X211792119Y-109347000D01*
X212347881Y-109347000D01*
X212861337Y-109134320D01*
X213254320Y-108741337D01*
X213467000Y-108227881D01*
X213467000Y-107672119D01*
X213254320Y-107158663D01*
X212861337Y-106765680D01*
X212654487Y-106680000D01*
X212861337Y-106594320D01*
X213254320Y-106201337D01*
X213467000Y-105687881D01*
X213467000Y-105132119D01*
X213254320Y-104618663D01*
X212861337Y-104225680D01*
X212654487Y-104140000D01*
X212861337Y-104054320D01*
X213254320Y-103661337D01*
X213467000Y-103147881D01*
X213467000Y-102592119D01*
X213254320Y-102078663D01*
X212861337Y-101685680D01*
X212654487Y-101600000D01*
X212861337Y-101514320D01*
X213254320Y-101121337D01*
X213467000Y-100607881D01*
X213467000Y-100052119D01*
X213254320Y-99538663D01*
X212861337Y-99145680D01*
X212654487Y-99060000D01*
X212861337Y-98974320D01*
X213254320Y-98581337D01*
X213467000Y-98067881D01*
X213467000Y-97512119D01*
X213254320Y-96998663D01*
X212861337Y-96605680D01*
X212654487Y-96520000D01*
X212861337Y-96434320D01*
X213254320Y-96041337D01*
X213467000Y-95527881D01*
X213467000Y-94972119D01*
X213254320Y-94458663D01*
X212861337Y-94065680D01*
X212654487Y-93980000D01*
X212861337Y-93894320D01*
X213254320Y-93501337D01*
X213467000Y-92987881D01*
X213467000Y-92432119D01*
X213254320Y-91918663D01*
X212861337Y-91525680D01*
X212654487Y-91440000D01*
X212861337Y-91354320D01*
X213254320Y-90961337D01*
X213467000Y-90447881D01*
X213467000Y-89892119D01*
X213254320Y-89378663D01*
X212861337Y-88985680D01*
X212670353Y-88906572D01*
X212801143Y-88852397D01*
X212870608Y-88610213D01*
X212070000Y-87809605D01*
X211269392Y-88610213D01*
X211338857Y-88852397D01*
X211479393Y-88902535D01*
X211278663Y-88985680D01*
X210885680Y-89378663D01*
X210673000Y-89892119D01*
X209304409Y-89892119D01*
X206834592Y-87422302D01*
X210660856Y-87422302D01*
X210688638Y-87977368D01*
X210847603Y-88361143D01*
X211089787Y-88430608D01*
X211890395Y-87630000D01*
X212249605Y-87630000D01*
X213050213Y-88430608D01*
X213292397Y-88361143D01*
X213479144Y-87837698D01*
X213451362Y-87282632D01*
X213292397Y-86898857D01*
X213050213Y-86829392D01*
X212249605Y-87630000D01*
X211890395Y-87630000D01*
X211089787Y-86829392D01*
X210847603Y-86898857D01*
X210660856Y-87422302D01*
X206834592Y-87422302D01*
X206062077Y-86649787D01*
X211269392Y-86649787D01*
X212070000Y-87450395D01*
X212870608Y-86649787D01*
X212801143Y-86407603D01*
X212277698Y-86220856D01*
X211722632Y-86248638D01*
X211338857Y-86407603D01*
X211269392Y-86649787D01*
X206062077Y-86649787D01*
X205899289Y-86487000D01*
X205997881Y-86487000D01*
X206511337Y-86274320D01*
X206904320Y-85881337D01*
X206990000Y-85674487D01*
X207075680Y-85881337D01*
X207468663Y-86274320D01*
X207982119Y-86487000D01*
X208537881Y-86487000D01*
X209051337Y-86274320D01*
X209444320Y-85881337D01*
X209530000Y-85674487D01*
X209615680Y-85881337D01*
X210008663Y-86274320D01*
X210522119Y-86487000D01*
X211077881Y-86487000D01*
X211591337Y-86274320D01*
X211984320Y-85881337D01*
X212197000Y-85367881D01*
X212197000Y-84812119D01*
X211984320Y-84298663D01*
X211591337Y-83905680D01*
X211077881Y-83693000D01*
X210522119Y-83693000D01*
X210008663Y-83905680D01*
X209615680Y-84298663D01*
X209530000Y-84505513D01*
X209444320Y-84298663D01*
X209051337Y-83905680D01*
X208537881Y-83693000D01*
X208043868Y-83693000D01*
X206085010Y-81734143D01*
X206085010Y-57092722D01*
X206127441Y-57050291D01*
X206144721Y-57008571D01*
X209005000Y-57008571D01*
X209005000Y-68721428D01*
X215375000Y-68721428D01*
X215375000Y-57008571D01*
X209005000Y-57008571D01*
X206144721Y-57008571D01*
X206285010Y-56669885D01*
X206285010Y-56258137D01*
X206127441Y-55877731D01*
X205913716Y-55664006D01*
X206127441Y-55450280D01*
X206285010Y-55069874D01*
X206285010Y-54658126D01*
X206127441Y-54277720D01*
X205836290Y-53986569D01*
X205455884Y-53829000D01*
X205044136Y-53829000D01*
X204663730Y-53986569D01*
X204372579Y-54277720D01*
X204215010Y-54658126D01*
X204215010Y-54718132D01*
X204115000Y-54818142D01*
X204115000Y-53854289D01*
X206316031Y-51653259D01*
X206394097Y-51601097D01*
X206600750Y-51291819D01*
X206652162Y-51033352D01*
X212270204Y-51033352D01*
X212389288Y-51798175D01*
X212718246Y-52498832D01*
X213230633Y-53079000D01*
X213885258Y-53492037D01*
X214629496Y-53704742D01*
X215403520Y-53700013D01*
X216145104Y-53478233D01*
X216794634Y-53057228D01*
X217299895Y-52470844D01*
X217620268Y-51766220D01*
X217730000Y-51000000D01*
X217729185Y-50933300D01*
X217600766Y-50169990D01*
X217263273Y-49473403D01*
X216743836Y-48899539D01*
X216084214Y-48494530D01*
X215337432Y-48290934D01*
X214563524Y-48305118D01*
X213824705Y-48535942D01*
X213180366Y-48964851D01*
X212682307Y-49557363D01*
X212370566Y-50265849D01*
X212270204Y-51033352D01*
X206652162Y-51033352D01*
X206655000Y-51019086D01*
X206655000Y-51019082D01*
X206673316Y-50927001D01*
X206655000Y-50834920D01*
X206655000Y-39536541D01*
X206674476Y-39528474D01*
X206990000Y-39212950D01*
X207305524Y-39528474D01*
X207924833Y-39785000D01*
X208595167Y-39785000D01*
X209214476Y-39528474D01*
X209454247Y-39288703D01*
X209790902Y-39288703D01*
X209895687Y-39560745D01*
X210523526Y-39795619D01*
X211193456Y-39772349D01*
X211704313Y-39560745D01*
X211809098Y-39288703D01*
X210800000Y-38279605D01*
X209790902Y-39288703D01*
X209454247Y-39288703D01*
X209688474Y-39054476D01*
X209704423Y-39015972D01*
X210620395Y-38100000D01*
X210979605Y-38100000D01*
X211988703Y-39109098D01*
X212260745Y-39004313D01*
X212495619Y-38376474D01*
X212472349Y-37706544D01*
X212260745Y-37195687D01*
X211988703Y-37090902D01*
X210979605Y-38100000D01*
X210620395Y-38100000D01*
X209704423Y-37184028D01*
X209688474Y-37145524D01*
X209454247Y-36911297D01*
X209790902Y-36911297D01*
X210800000Y-37920395D01*
X211809098Y-36911297D01*
X211704313Y-36639255D01*
X211076474Y-36404381D01*
X210406544Y-36427651D01*
X209895687Y-36639255D01*
X209790902Y-36911297D01*
X209454247Y-36911297D01*
X209214476Y-36671526D01*
X208595167Y-36415000D01*
X207924833Y-36415000D01*
X207305524Y-36671526D01*
X206990000Y-36987050D01*
X206674476Y-36671526D01*
X206055167Y-36415000D01*
X205384833Y-36415000D01*
X204765524Y-36671526D01*
X204450000Y-36987050D01*
X204134476Y-36671526D01*
X203515167Y-36415000D01*
X202844833Y-36415000D01*
X202225524Y-36671526D01*
X201910000Y-36987050D01*
X201594476Y-36671526D01*
X200975167Y-36415000D01*
X200304833Y-36415000D01*
X199685524Y-36671526D01*
X199370000Y-36987050D01*
X199054476Y-36671526D01*
X198435167Y-36415000D01*
X197764833Y-36415000D01*
X197145524Y-36671526D01*
X196671526Y-37145524D01*
X196415000Y-37764833D01*
X196415000Y-38435167D01*
X196671526Y-39054476D01*
X197145524Y-39528474D01*
X197764833Y-39785000D01*
X198435167Y-39785000D01*
X199054476Y-39528474D01*
X199370000Y-39212950D01*
X199685524Y-39528474D01*
X200304833Y-39785000D01*
X200975167Y-39785000D01*
X201594476Y-39528474D01*
X201910000Y-39212950D01*
X202225524Y-39528474D01*
X202844833Y-39785000D01*
X203515167Y-39785000D01*
X204134476Y-39528474D01*
X204450000Y-39212950D01*
X204765524Y-39528474D01*
X204785001Y-39536542D01*
X204785000Y-50539710D01*
X202583970Y-52740741D01*
X202505904Y-52792903D01*
X202453742Y-52870969D01*
X202453741Y-52870970D01*
X202299250Y-53102182D01*
X202226683Y-53467000D01*
X202245001Y-53559091D01*
X202245000Y-84049343D01*
X201995680Y-84298663D01*
X201910000Y-84505513D01*
X201824320Y-84298663D01*
X201431337Y-83905680D01*
X200917881Y-83693000D01*
X200362119Y-83693000D01*
X199848663Y-83905680D01*
X199455680Y-84298663D01*
X199376572Y-84489647D01*
X199322397Y-84358857D01*
X199080213Y-84289392D01*
X198279605Y-85090000D01*
X199080213Y-85890608D01*
X199322397Y-85821143D01*
X199372535Y-85680607D01*
X199455680Y-85881337D01*
X199848663Y-86274320D01*
X200362119Y-86487000D01*
X200856131Y-86487000D01*
X200869714Y-86500583D01*
X200869720Y-86500587D01*
X203762711Y-89393578D01*
X203572569Y-89583720D01*
X203415000Y-89964126D01*
X203415000Y-90024132D01*
X202927721Y-90511412D01*
X202858003Y-90557996D01*
X202811419Y-90627714D01*
X202673451Y-90834197D01*
X202608646Y-91159997D01*
X202625004Y-91242235D01*
X202625003Y-92361286D01*
X202582572Y-92403717D01*
X202425003Y-92784123D01*
X202425003Y-92844128D01*
X198314133Y-96955000D01*
X197970657Y-96955000D01*
X197621337Y-96605680D01*
X197414487Y-96520000D01*
X197621337Y-96434320D01*
X198014320Y-96041337D01*
X198227000Y-95527881D01*
X198227000Y-94972119D01*
X198014320Y-94458663D01*
X197621337Y-94065680D01*
X197414487Y-93980000D01*
X197621337Y-93894320D01*
X198014320Y-93501337D01*
X198227000Y-92987881D01*
X198227000Y-92432119D01*
X198014320Y-91918663D01*
X197621337Y-91525680D01*
X197414487Y-91440000D01*
X197621337Y-91354320D01*
X198014320Y-90961337D01*
X198227000Y-90447881D01*
X198227000Y-89892119D01*
X198014320Y-89378663D01*
X197621337Y-88985680D01*
X197414487Y-88900000D01*
X197621337Y-88814320D01*
X198014320Y-88421337D01*
X198227000Y-87907881D01*
X198227000Y-87352119D01*
X198014320Y-86838663D01*
X197621337Y-86445680D01*
X197107881Y-86233000D01*
X196552119Y-86233000D01*
X196038663Y-86445680D01*
X195645680Y-86838663D01*
X195433000Y-87352119D01*
X189735000Y-87352119D01*
X189735000Y-86070213D01*
X197299392Y-86070213D01*
X197368857Y-86312397D01*
X197892302Y-86499144D01*
X198447368Y-86471362D01*
X198831143Y-86312397D01*
X198900608Y-86070213D01*
X198100000Y-85269605D01*
X197299392Y-86070213D01*
X189735000Y-86070213D01*
X189735000Y-84882302D01*
X196690856Y-84882302D01*
X196718638Y-85437368D01*
X196877603Y-85821143D01*
X197119787Y-85890608D01*
X197920395Y-85090000D01*
X197119787Y-84289392D01*
X196877603Y-84358857D01*
X196690856Y-84882302D01*
X189735000Y-84882302D01*
X189735000Y-84109787D01*
X197299392Y-84109787D01*
X198100000Y-84910395D01*
X198900608Y-84109787D01*
X198831143Y-83867603D01*
X198307698Y-83680856D01*
X197752632Y-83708638D01*
X197368857Y-83867603D01*
X197299392Y-84109787D01*
X189735000Y-84109787D01*
X189735000Y-55457000D01*
X192495000Y-55457000D01*
X192495000Y-70527000D01*
X198865000Y-70527000D01*
X198865000Y-55457000D01*
X192495000Y-55457000D01*
X189735000Y-55457000D01*
X189735000Y-51033352D01*
X191270204Y-51033352D01*
X191389288Y-51798175D01*
X191718246Y-52498832D01*
X192230633Y-53079000D01*
X192885258Y-53492037D01*
X193629496Y-53704742D01*
X194403520Y-53700013D01*
X195145104Y-53478233D01*
X195794634Y-53057228D01*
X196299895Y-52470844D01*
X196620268Y-51766220D01*
X196730000Y-51000000D01*
X196729185Y-50933300D01*
X196600766Y-50169990D01*
X196263273Y-49473403D01*
X195743836Y-48899539D01*
X195084214Y-48494530D01*
X194337432Y-48290934D01*
X193563524Y-48305118D01*
X192824705Y-48535942D01*
X192180366Y-48964851D01*
X191682307Y-49557363D01*
X191370566Y-50265849D01*
X191270204Y-51033352D01*
X189735000Y-51033352D01*
X189735000Y-50927612D01*
X189724150Y-50873067D01*
X189780578Y-50240808D01*
X189981705Y-49505611D01*
X190309846Y-48817649D01*
X190754628Y-48198669D01*
X191301988Y-47668239D01*
X191934639Y-47243116D01*
X192632561Y-46936749D01*
X193379183Y-46757501D01*
X193955948Y-46715147D01*
X194000000Y-46723909D01*
X194277028Y-46668805D01*
X194511881Y-46511881D01*
X194668805Y-46277028D01*
X194710000Y-46069926D01*
X194710000Y-38035964D01*
X194780776Y-37339191D01*
X194979404Y-36705369D01*
X195301418Y-36124438D01*
X195733670Y-35620121D01*
X196258503Y-35213019D01*
X196854473Y-34919766D01*
X197505707Y-34750132D01*
X197864783Y-34722502D01*
X197927612Y-34735000D01*
X197927612Y-34735000D01*
G37*
X197927612Y-34735000D02*
X211072388Y-34735000D01*
X211118959Y-34725736D01*
X211660809Y-34780776D01*
X212294631Y-34979404D01*
X212875562Y-35301418D01*
X213379879Y-35733670D01*
X213786981Y-36258503D01*
X214080234Y-36854473D01*
X214249868Y-37505707D01*
X214290001Y-38027282D01*
X214290000Y-46069925D01*
X214331195Y-46277027D01*
X214488119Y-46511880D01*
X214722972Y-46668805D01*
X215000000Y-46723909D01*
X215038476Y-46716256D01*
X215759192Y-46780578D01*
X216494389Y-46981705D01*
X217182351Y-47309846D01*
X217801331Y-47754628D01*
X218331761Y-48301988D01*
X218756884Y-48934639D01*
X219063251Y-49632561D01*
X219242499Y-50379183D01*
X219277981Y-50862359D01*
X219265001Y-50927612D01*
X219265000Y-128572387D01*
X219275850Y-128626932D01*
X219219422Y-129259193D01*
X219018295Y-129994389D01*
X218690152Y-130682355D01*
X218245374Y-131301328D01*
X217698012Y-131831761D01*
X217065362Y-132256883D01*
X216367439Y-132563251D01*
X215620819Y-132742499D01*
X215137645Y-132777980D01*
X215072388Y-132765000D01*
X193927612Y-132765000D01*
X193873067Y-132775850D01*
X193240807Y-132719422D01*
X192505611Y-132518295D01*
X191817645Y-132190152D01*
X191198672Y-131745374D01*
X190668239Y-131198012D01*
X190243117Y-130565362D01*
X189936749Y-129867439D01*
X189757501Y-129120819D01*
X189722020Y-128637645D01*
X189735000Y-128572388D01*
X189735000Y-128150126D01*
X191230459Y-128150126D01*
X191238394Y-128907799D01*
X191449789Y-129635427D01*
X191849071Y-130279403D01*
X192406823Y-130792282D01*
X193081951Y-131136277D01*
X193824717Y-131286045D01*
X194580397Y-131230551D01*
X195293315Y-130973884D01*
X195910950Y-130534955D01*
X196387795Y-129946100D01*
X196688719Y-129250704D01*
X196791553Y-128500000D01*
X196790941Y-128441538D01*
X196721679Y-128004234D01*
X201115000Y-128004234D01*
X201115000Y-128455766D01*
X201287793Y-128872926D01*
X201607074Y-129192207D01*
X202024234Y-129365000D01*
X202475766Y-129365000D01*
X202892926Y-129192207D01*
X203212207Y-128872926D01*
X203385000Y-128455766D01*
X203385000Y-128004234D01*
X205515000Y-128004234D01*
X205515000Y-128455766D01*
X205687793Y-128872926D01*
X206007074Y-129192207D01*
X206424234Y-129365000D01*
X206875766Y-129365000D01*
X207292926Y-129192207D01*
X207612207Y-128872926D01*
X207752736Y-128533658D01*
X212245206Y-128533658D01*
X212365380Y-129305484D01*
X212697351Y-130012558D01*
X213214430Y-130598038D01*
X213875050Y-131014858D01*
X214626104Y-131229510D01*
X215407215Y-131224739D01*
X216155590Y-131000927D01*
X216811069Y-130576067D01*
X217320956Y-129984314D01*
X217644264Y-129273237D01*
X217755000Y-128500000D01*
X217754178Y-128432689D01*
X217624582Y-127662389D01*
X217283999Y-126959424D01*
X216759805Y-126380304D01*
X216094142Y-125971586D01*
X215340522Y-125766126D01*
X214559527Y-125780440D01*
X213813942Y-126013378D01*
X213163703Y-126446214D01*
X212661083Y-127044152D01*
X212346487Y-127759126D01*
X212245206Y-128533658D01*
X207752736Y-128533658D01*
X207785000Y-128455766D01*
X207785000Y-128004234D01*
X207612207Y-127587074D01*
X207292926Y-127267793D01*
X206875766Y-127095000D01*
X206424234Y-127095000D01*
X206007074Y-127267793D01*
X205687793Y-127587074D01*
X205515000Y-128004234D01*
X203385000Y-128004234D01*
X203212207Y-127587074D01*
X202892926Y-127267793D01*
X202475766Y-127095000D01*
X202024234Y-127095000D01*
X201607074Y-127267793D01*
X201287793Y-127587074D01*
X201115000Y-128004234D01*
X196721679Y-128004234D01*
X196672408Y-127693152D01*
X196356986Y-127004211D01*
X195867914Y-126425472D01*
X195241223Y-125999573D01*
X194523085Y-125757893D01*
X193766409Y-125718237D01*
X193026943Y-125883528D01*
X192359166Y-126241586D01*
X191812278Y-126766033D01*
X191426570Y-127418230D01*
X191230459Y-128150126D01*
X189735000Y-128150126D01*
X189735000Y-105132119D01*
X195433000Y-105132119D01*
X195433000Y-105687881D01*
X195645680Y-106201337D01*
X196038663Y-106594320D01*
X196245513Y-106680000D01*
X196038663Y-106765680D01*
X195645680Y-107158663D01*
X195433000Y-107672119D01*
X195433000Y-108227881D01*
X195645680Y-108741337D01*
X196038663Y-109134320D01*
X196552119Y-109347000D01*
X197107881Y-109347000D01*
X197621337Y-109134320D01*
X198014320Y-108741337D01*
X198227000Y-108227881D01*
X198227000Y-107672119D01*
X198014320Y-107158663D01*
X197621337Y-106765680D01*
X197414487Y-106680000D01*
X197621337Y-106594320D01*
X198014320Y-106201337D01*
X198227000Y-105687881D01*
X198227000Y-105132119D01*
X198014320Y-104618663D01*
X197621337Y-104225680D01*
X197430353Y-104146572D01*
X197561143Y-104092397D01*
X197630608Y-103850213D01*
X196830000Y-103049605D01*
X196029392Y-103850213D01*
X196098857Y-104092397D01*
X196239393Y-104142535D01*
X196038663Y-104225680D01*
X195645680Y-104618663D01*
X195433000Y-105132119D01*
X189735000Y-105132119D01*
X189735000Y-102662302D01*
X195420856Y-102662302D01*
X195448638Y-103217368D01*
X195607603Y-103601143D01*
X195849787Y-103670608D01*
X196650395Y-102870000D01*
X197009605Y-102870000D01*
X197810213Y-103670608D01*
X198052397Y-103601143D01*
X198239144Y-103077698D01*
X198211362Y-102522632D01*
X198052397Y-102138857D01*
X197810213Y-102069392D01*
X197009605Y-102870000D01*
X196650395Y-102870000D01*
X195849787Y-102069392D01*
X195607603Y-102138857D01*
X195420856Y-102662302D01*
X189735000Y-102662302D01*
X189735000Y-87352119D01*
X195433000Y-87352119D01*
X195433000Y-87907881D01*
X195645680Y-88421337D01*
X196038663Y-88814320D01*
X196245513Y-88900000D01*
X196038663Y-88985680D01*
X195645680Y-89378663D01*
X195433000Y-89892119D01*
X195433000Y-90447881D01*
X195645680Y-90961337D01*
X196038663Y-91354320D01*
X196245513Y-91440000D01*
X196038663Y-91525680D01*
X195645680Y-91918663D01*
X195433000Y-92432119D01*
X195433000Y-92987881D01*
X195645680Y-93501337D01*
X196038663Y-93894320D01*
X196245513Y-93980000D01*
X196038663Y-94065680D01*
X195645680Y-94458663D01*
X195433000Y-94972119D01*
X195433000Y-95527881D01*
X195645680Y-96041337D01*
X196038663Y-96434320D01*
X196245513Y-96520000D01*
X196038663Y-96605680D01*
X195645680Y-96998663D01*
X195433000Y-97512119D01*
X195433000Y-98067881D01*
X195645680Y-98581337D01*
X196038663Y-98974320D01*
X196245513Y-99060000D01*
X196038663Y-99145680D01*
X195645680Y-99538663D01*
X195433000Y-100052119D01*
X195433000Y-100607881D01*
X195645680Y-101121337D01*
X196038663Y-101514320D01*
X196229647Y-101593428D01*
X196098857Y-101647603D01*
X196029392Y-101889787D01*
X196830000Y-102690395D01*
X197630608Y-101889787D01*
X197561143Y-101647603D01*
X197420607Y-101597465D01*
X197621337Y-101514320D01*
X198014320Y-101121337D01*
X198227000Y-100607881D01*
X198227000Y-100052119D01*
X198014320Y-99538663D01*
X197621337Y-99145680D01*
X197414487Y-99060000D01*
X197621337Y-98974320D01*
X197970657Y-98625000D01*
X198577767Y-98625000D01*
X198660000Y-98641357D01*
X198742233Y-98625000D01*
X198742237Y-98625000D01*
X198985801Y-98576552D01*
X199262001Y-98392001D01*
X199308587Y-98322280D01*
X202200645Y-95430223D01*
X202302569Y-95676290D01*
X202501995Y-95875716D01*
X200043972Y-98333739D01*
X199965903Y-98385903D01*
X199907226Y-98473720D01*
X199759250Y-98695182D01*
X199686683Y-99060000D01*
X199705000Y-99152086D01*
X199705001Y-117706223D01*
X199705000Y-117706228D01*
X199705000Y-117916702D01*
X199605000Y-118158124D01*
X199605000Y-118569872D01*
X199762569Y-118950278D01*
X200053720Y-119241429D01*
X200434126Y-119398998D01*
X200845874Y-119398998D01*
X201226280Y-119241429D01*
X201517431Y-118950278D01*
X201675000Y-118569872D01*
X201675000Y-118158124D01*
X201575000Y-117916702D01*
X201575000Y-99447289D01*
X203077179Y-97945110D01*
X203150565Y-98122280D01*
X203441716Y-98413431D01*
X203822122Y-98571000D01*
X204233870Y-98571000D01*
X204614276Y-98413431D01*
X204786583Y-98241124D01*
X204842569Y-98376286D01*
X204885000Y-98418717D01*
X204885000Y-98437927D01*
X204885001Y-98437932D01*
X204885000Y-117887172D01*
X204625720Y-117994569D01*
X204334569Y-118285720D01*
X204177000Y-118666126D01*
X204177000Y-119077874D01*
X204334569Y-119458280D01*
X204510289Y-119634000D01*
X204334569Y-119809720D01*
X204177000Y-120190126D01*
X204177000Y-120601874D01*
X204334569Y-120982280D01*
X204625720Y-121273431D01*
X205006126Y-121431000D01*
X205417874Y-121431000D01*
X205798280Y-121273431D01*
X206089431Y-120982280D01*
X206247000Y-120601874D01*
X206247000Y-120541868D01*
X207268274Y-119520595D01*
X207337989Y-119474013D01*
X207388113Y-119398998D01*
X207442691Y-119317315D01*
X207522540Y-119197813D01*
X207570988Y-118954249D01*
X207570988Y-118954245D01*
X207587345Y-118872013D01*
X207570988Y-118789781D01*
X207570988Y-99688711D01*
X207613419Y-99646280D01*
X207770988Y-99265874D01*
X207770988Y-98854126D01*
X207613419Y-98473720D01*
X207322268Y-98182569D01*
X206941862Y-98025000D01*
X206742938Y-98025000D01*
X206755000Y-97995880D01*
X206755000Y-97584132D01*
X206597431Y-97203726D01*
X206306280Y-96912575D01*
X205971118Y-96773747D01*
X206036287Y-96708578D01*
X206106002Y-96661996D01*
X206290553Y-96385796D01*
X206339001Y-96142232D01*
X206339001Y-96142229D01*
X206355358Y-96059996D01*
X206339001Y-95977763D01*
X206339001Y-90036238D01*
X206355359Y-89954001D01*
X206290553Y-89628200D01*
X206152585Y-89421717D01*
X206106002Y-89352000D01*
X206036284Y-89305416D01*
X203217867Y-86487000D01*
X203254711Y-86487000D01*
X207841000Y-91073290D01*
X207841001Y-92143949D01*
X207841000Y-92143953D01*
X207841001Y-116392702D01*
X207741000Y-116634126D01*
X207741000Y-117045874D01*
X207898569Y-117426280D01*
X208189720Y-117717431D01*
X208570126Y-117875000D01*
X208981874Y-117875000D01*
X209362280Y-117717431D01*
X209653431Y-117426280D01*
X209811000Y-117045874D01*
X209811000Y-116634126D01*
X209711000Y-116392704D01*
X209711000Y-90778085D01*
X209729317Y-90685999D01*
X209656750Y-90321181D01*
X209502259Y-90089969D01*
X209450097Y-90011903D01*
X209372031Y-89959741D01*
X209304409Y-89892119D01*
X210673000Y-89892119D01*
X210673000Y-90447881D01*
X210885680Y-90961337D01*
X211278663Y-91354320D01*
X211485513Y-91440000D01*
X211278663Y-91525680D01*
X210885680Y-91918663D01*
X210673000Y-92432119D01*
X210673000Y-92987881D01*
X210885680Y-93501337D01*
X211278663Y-93894320D01*
X211485513Y-93980000D01*
X211278663Y-94065680D01*
X210885680Y-94458663D01*
X210673000Y-94972119D01*
X210673000Y-95527881D01*
X210885680Y-96041337D01*
X211278663Y-96434320D01*
X211485513Y-96520000D01*
X211278663Y-96605680D01*
X210885680Y-96998663D01*
X210673000Y-97512119D01*
X210673000Y-98067881D01*
X210885680Y-98581337D01*
X211278663Y-98974320D01*
X211485513Y-99060000D01*
X211278663Y-99145680D01*
X210885680Y-99538663D01*
X210673000Y-100052119D01*
X210673000Y-100607881D01*
X210885680Y-101121337D01*
X211278663Y-101514320D01*
X211485513Y-101600000D01*
X211278663Y-101685680D01*
X210885680Y-102078663D01*
X210673000Y-102592119D01*
X210673000Y-103147881D01*
X210885680Y-103661337D01*
X211278663Y-104054320D01*
X211485513Y-104140000D01*
X211278663Y-104225680D01*
X210885680Y-104618663D01*
X210673000Y-105132119D01*
X210673000Y-105687881D01*
X210885680Y-106201337D01*
X211278663Y-106594320D01*
X211485513Y-106680000D01*
X211278663Y-106765680D01*
X210885680Y-107158663D01*
X210673000Y-107672119D01*
X210673000Y-108227881D01*
X210885680Y-108741337D01*
X211278663Y-109134320D01*
X211792119Y-109347000D01*
X212347881Y-109347000D01*
X212861337Y-109134320D01*
X213254320Y-108741337D01*
X213467000Y-108227881D01*
X213467000Y-107672119D01*
X213254320Y-107158663D01*
X212861337Y-106765680D01*
X212654487Y-106680000D01*
X212861337Y-106594320D01*
X213254320Y-106201337D01*
X213467000Y-105687881D01*
X213467000Y-105132119D01*
X213254320Y-104618663D01*
X212861337Y-104225680D01*
X212654487Y-104140000D01*
X212861337Y-104054320D01*
X213254320Y-103661337D01*
X213467000Y-103147881D01*
X213467000Y-102592119D01*
X213254320Y-102078663D01*
X212861337Y-101685680D01*
X212654487Y-101600000D01*
X212861337Y-101514320D01*
X213254320Y-101121337D01*
X213467000Y-100607881D01*
X213467000Y-100052119D01*
X213254320Y-99538663D01*
X212861337Y-99145680D01*
X212654487Y-99060000D01*
X212861337Y-98974320D01*
X213254320Y-98581337D01*
X213467000Y-98067881D01*
X213467000Y-97512119D01*
X213254320Y-96998663D01*
X212861337Y-96605680D01*
X212654487Y-96520000D01*
X212861337Y-96434320D01*
X213254320Y-96041337D01*
X213467000Y-95527881D01*
X213467000Y-94972119D01*
X213254320Y-94458663D01*
X212861337Y-94065680D01*
X212654487Y-93980000D01*
X212861337Y-93894320D01*
X213254320Y-93501337D01*
X213467000Y-92987881D01*
X213467000Y-92432119D01*
X213254320Y-91918663D01*
X212861337Y-91525680D01*
X212654487Y-91440000D01*
X212861337Y-91354320D01*
X213254320Y-90961337D01*
X213467000Y-90447881D01*
X213467000Y-89892119D01*
X213254320Y-89378663D01*
X212861337Y-88985680D01*
X212670353Y-88906572D01*
X212801143Y-88852397D01*
X212870608Y-88610213D01*
X212070000Y-87809605D01*
X211269392Y-88610213D01*
X211338857Y-88852397D01*
X211479393Y-88902535D01*
X211278663Y-88985680D01*
X210885680Y-89378663D01*
X210673000Y-89892119D01*
X209304409Y-89892119D01*
X206834592Y-87422302D01*
X210660856Y-87422302D01*
X210688638Y-87977368D01*
X210847603Y-88361143D01*
X211089787Y-88430608D01*
X211890395Y-87630000D01*
X212249605Y-87630000D01*
X213050213Y-88430608D01*
X213292397Y-88361143D01*
X213479144Y-87837698D01*
X213451362Y-87282632D01*
X213292397Y-86898857D01*
X213050213Y-86829392D01*
X212249605Y-87630000D01*
X211890395Y-87630000D01*
X211089787Y-86829392D01*
X210847603Y-86898857D01*
X210660856Y-87422302D01*
X206834592Y-87422302D01*
X206062077Y-86649787D01*
X211269392Y-86649787D01*
X212070000Y-87450395D01*
X212870608Y-86649787D01*
X212801143Y-86407603D01*
X212277698Y-86220856D01*
X211722632Y-86248638D01*
X211338857Y-86407603D01*
X211269392Y-86649787D01*
X206062077Y-86649787D01*
X205899289Y-86487000D01*
X205997881Y-86487000D01*
X206511337Y-86274320D01*
X206904320Y-85881337D01*
X206990000Y-85674487D01*
X207075680Y-85881337D01*
X207468663Y-86274320D01*
X207982119Y-86487000D01*
X208537881Y-86487000D01*
X209051337Y-86274320D01*
X209444320Y-85881337D01*
X209530000Y-85674487D01*
X209615680Y-85881337D01*
X210008663Y-86274320D01*
X210522119Y-86487000D01*
X211077881Y-86487000D01*
X211591337Y-86274320D01*
X211984320Y-85881337D01*
X212197000Y-85367881D01*
X212197000Y-84812119D01*
X211984320Y-84298663D01*
X211591337Y-83905680D01*
X211077881Y-83693000D01*
X210522119Y-83693000D01*
X210008663Y-83905680D01*
X209615680Y-84298663D01*
X209530000Y-84505513D01*
X209444320Y-84298663D01*
X209051337Y-83905680D01*
X208537881Y-83693000D01*
X208043868Y-83693000D01*
X206085010Y-81734143D01*
X206085010Y-57092722D01*
X206127441Y-57050291D01*
X206144721Y-57008571D01*
X209005000Y-57008571D01*
X209005000Y-68721428D01*
X215375000Y-68721428D01*
X215375000Y-57008571D01*
X209005000Y-57008571D01*
X206144721Y-57008571D01*
X206285010Y-56669885D01*
X206285010Y-56258137D01*
X206127441Y-55877731D01*
X205913716Y-55664006D01*
X206127441Y-55450280D01*
X206285010Y-55069874D01*
X206285010Y-54658126D01*
X206127441Y-54277720D01*
X205836290Y-53986569D01*
X205455884Y-53829000D01*
X205044136Y-53829000D01*
X204663730Y-53986569D01*
X204372579Y-54277720D01*
X204215010Y-54658126D01*
X204215010Y-54718132D01*
X204115000Y-54818142D01*
X204115000Y-53854289D01*
X206316031Y-51653259D01*
X206394097Y-51601097D01*
X206600750Y-51291819D01*
X206652162Y-51033352D01*
X212270204Y-51033352D01*
X212389288Y-51798175D01*
X212718246Y-52498832D01*
X213230633Y-53079000D01*
X213885258Y-53492037D01*
X214629496Y-53704742D01*
X215403520Y-53700013D01*
X216145104Y-53478233D01*
X216794634Y-53057228D01*
X217299895Y-52470844D01*
X217620268Y-51766220D01*
X217730000Y-51000000D01*
X217729185Y-50933300D01*
X217600766Y-50169990D01*
X217263273Y-49473403D01*
X216743836Y-48899539D01*
X216084214Y-48494530D01*
X215337432Y-48290934D01*
X214563524Y-48305118D01*
X213824705Y-48535942D01*
X213180366Y-48964851D01*
X212682307Y-49557363D01*
X212370566Y-50265849D01*
X212270204Y-51033352D01*
X206652162Y-51033352D01*
X206655000Y-51019086D01*
X206655000Y-51019082D01*
X206673316Y-50927001D01*
X206655000Y-50834920D01*
X206655000Y-39536541D01*
X206674476Y-39528474D01*
X206990000Y-39212950D01*
X207305524Y-39528474D01*
X207924833Y-39785000D01*
X208595167Y-39785000D01*
X209214476Y-39528474D01*
X209454247Y-39288703D01*
X209790902Y-39288703D01*
X209895687Y-39560745D01*
X210523526Y-39795619D01*
X211193456Y-39772349D01*
X211704313Y-39560745D01*
X211809098Y-39288703D01*
X210800000Y-38279605D01*
X209790902Y-39288703D01*
X209454247Y-39288703D01*
X209688474Y-39054476D01*
X209704423Y-39015972D01*
X210620395Y-38100000D01*
X210979605Y-38100000D01*
X211988703Y-39109098D01*
X212260745Y-39004313D01*
X212495619Y-38376474D01*
X212472349Y-37706544D01*
X212260745Y-37195687D01*
X211988703Y-37090902D01*
X210979605Y-38100000D01*
X210620395Y-38100000D01*
X209704423Y-37184028D01*
X209688474Y-37145524D01*
X209454247Y-36911297D01*
X209790902Y-36911297D01*
X210800000Y-37920395D01*
X211809098Y-36911297D01*
X211704313Y-36639255D01*
X211076474Y-36404381D01*
X210406544Y-36427651D01*
X209895687Y-36639255D01*
X209790902Y-36911297D01*
X209454247Y-36911297D01*
X209214476Y-36671526D01*
X208595167Y-36415000D01*
X207924833Y-36415000D01*
X207305524Y-36671526D01*
X206990000Y-36987050D01*
X206674476Y-36671526D01*
X206055167Y-36415000D01*
X205384833Y-36415000D01*
X204765524Y-36671526D01*
X204450000Y-36987050D01*
X204134476Y-36671526D01*
X203515167Y-36415000D01*
X202844833Y-36415000D01*
X202225524Y-36671526D01*
X201910000Y-36987050D01*
X201594476Y-36671526D01*
X200975167Y-36415000D01*
X200304833Y-36415000D01*
X199685524Y-36671526D01*
X199370000Y-36987050D01*
X199054476Y-36671526D01*
X198435167Y-36415000D01*
X197764833Y-36415000D01*
X197145524Y-36671526D01*
X196671526Y-37145524D01*
X196415000Y-37764833D01*
X196415000Y-38435167D01*
X196671526Y-39054476D01*
X197145524Y-39528474D01*
X197764833Y-39785000D01*
X198435167Y-39785000D01*
X199054476Y-39528474D01*
X199370000Y-39212950D01*
X199685524Y-39528474D01*
X200304833Y-39785000D01*
X200975167Y-39785000D01*
X201594476Y-39528474D01*
X201910000Y-39212950D01*
X202225524Y-39528474D01*
X202844833Y-39785000D01*
X203515167Y-39785000D01*
X204134476Y-39528474D01*
X204450000Y-39212950D01*
X204765524Y-39528474D01*
X204785001Y-39536542D01*
X204785000Y-50539710D01*
X202583970Y-52740741D01*
X202505904Y-52792903D01*
X202453742Y-52870969D01*
X202453741Y-52870970D01*
X202299250Y-53102182D01*
X202226683Y-53467000D01*
X202245001Y-53559091D01*
X202245000Y-84049343D01*
X201995680Y-84298663D01*
X201910000Y-84505513D01*
X201824320Y-84298663D01*
X201431337Y-83905680D01*
X200917881Y-83693000D01*
X200362119Y-83693000D01*
X199848663Y-83905680D01*
X199455680Y-84298663D01*
X199376572Y-84489647D01*
X199322397Y-84358857D01*
X199080213Y-84289392D01*
X198279605Y-85090000D01*
X199080213Y-85890608D01*
X199322397Y-85821143D01*
X199372535Y-85680607D01*
X199455680Y-85881337D01*
X199848663Y-86274320D01*
X200362119Y-86487000D01*
X200856131Y-86487000D01*
X200869714Y-86500583D01*
X200869720Y-86500587D01*
X203762711Y-89393578D01*
X203572569Y-89583720D01*
X203415000Y-89964126D01*
X203415000Y-90024132D01*
X202927721Y-90511412D01*
X202858003Y-90557996D01*
X202811419Y-90627714D01*
X202673451Y-90834197D01*
X202608646Y-91159997D01*
X202625004Y-91242235D01*
X202625003Y-92361286D01*
X202582572Y-92403717D01*
X202425003Y-92784123D01*
X202425003Y-92844128D01*
X198314133Y-96955000D01*
X197970657Y-96955000D01*
X197621337Y-96605680D01*
X197414487Y-96520000D01*
X197621337Y-96434320D01*
X198014320Y-96041337D01*
X198227000Y-95527881D01*
X198227000Y-94972119D01*
X198014320Y-94458663D01*
X197621337Y-94065680D01*
X197414487Y-93980000D01*
X197621337Y-93894320D01*
X198014320Y-93501337D01*
X198227000Y-92987881D01*
X198227000Y-92432119D01*
X198014320Y-91918663D01*
X197621337Y-91525680D01*
X197414487Y-91440000D01*
X197621337Y-91354320D01*
X198014320Y-90961337D01*
X198227000Y-90447881D01*
X198227000Y-89892119D01*
X198014320Y-89378663D01*
X197621337Y-88985680D01*
X197414487Y-88900000D01*
X197621337Y-88814320D01*
X198014320Y-88421337D01*
X198227000Y-87907881D01*
X198227000Y-87352119D01*
X198014320Y-86838663D01*
X197621337Y-86445680D01*
X197107881Y-86233000D01*
X196552119Y-86233000D01*
X196038663Y-86445680D01*
X195645680Y-86838663D01*
X195433000Y-87352119D01*
X189735000Y-87352119D01*
X189735000Y-86070213D01*
X197299392Y-86070213D01*
X197368857Y-86312397D01*
X197892302Y-86499144D01*
X198447368Y-86471362D01*
X198831143Y-86312397D01*
X198900608Y-86070213D01*
X198100000Y-85269605D01*
X197299392Y-86070213D01*
X189735000Y-86070213D01*
X189735000Y-84882302D01*
X196690856Y-84882302D01*
X196718638Y-85437368D01*
X196877603Y-85821143D01*
X197119787Y-85890608D01*
X197920395Y-85090000D01*
X197119787Y-84289392D01*
X196877603Y-84358857D01*
X196690856Y-84882302D01*
X189735000Y-84882302D01*
X189735000Y-84109787D01*
X197299392Y-84109787D01*
X198100000Y-84910395D01*
X198900608Y-84109787D01*
X198831143Y-83867603D01*
X198307698Y-83680856D01*
X197752632Y-83708638D01*
X197368857Y-83867603D01*
X197299392Y-84109787D01*
X189735000Y-84109787D01*
X189735000Y-55457000D01*
X192495000Y-55457000D01*
X192495000Y-70527000D01*
X198865000Y-70527000D01*
X198865000Y-55457000D01*
X192495000Y-55457000D01*
X189735000Y-55457000D01*
X189735000Y-51033352D01*
X191270204Y-51033352D01*
X191389288Y-51798175D01*
X191718246Y-52498832D01*
X192230633Y-53079000D01*
X192885258Y-53492037D01*
X193629496Y-53704742D01*
X194403520Y-53700013D01*
X195145104Y-53478233D01*
X195794634Y-53057228D01*
X196299895Y-52470844D01*
X196620268Y-51766220D01*
X196730000Y-51000000D01*
X196729185Y-50933300D01*
X196600766Y-50169990D01*
X196263273Y-49473403D01*
X195743836Y-48899539D01*
X195084214Y-48494530D01*
X194337432Y-48290934D01*
X193563524Y-48305118D01*
X192824705Y-48535942D01*
X192180366Y-48964851D01*
X191682307Y-49557363D01*
X191370566Y-50265849D01*
X191270204Y-51033352D01*
X189735000Y-51033352D01*
X189735000Y-50927612D01*
X189724150Y-50873067D01*
X189780578Y-50240808D01*
X189981705Y-49505611D01*
X190309846Y-48817649D01*
X190754628Y-48198669D01*
X191301988Y-47668239D01*
X191934639Y-47243116D01*
X192632561Y-46936749D01*
X193379183Y-46757501D01*
X193955948Y-46715147D01*
X194000000Y-46723909D01*
X194277028Y-46668805D01*
X194511881Y-46511881D01*
X194668805Y-46277028D01*
X194710000Y-46069926D01*
X194710000Y-38035964D01*
X194780776Y-37339191D01*
X194979404Y-36705369D01*
X195301418Y-36124438D01*
X195733670Y-35620121D01*
X196258503Y-35213019D01*
X196854473Y-34919766D01*
X197505707Y-34750132D01*
X197864783Y-34722502D01*
X197927612Y-34735000D01*
G36*
X230927612Y-34735000D02*
X244072388Y-34735000D01*
X244118959Y-34725736D01*
X244660809Y-34780776D01*
X245294631Y-34979404D01*
X245875562Y-35301418D01*
X246379879Y-35733670D01*
X246786981Y-36258503D01*
X247080234Y-36854473D01*
X247249868Y-37505707D01*
X247290001Y-38027282D01*
X247290000Y-46069925D01*
X247331195Y-46277027D01*
X247488119Y-46511880D01*
X247722972Y-46668805D01*
X248000000Y-46723909D01*
X248038476Y-46716256D01*
X248759192Y-46780578D01*
X249494389Y-46981705D01*
X250182351Y-47309846D01*
X250801331Y-47754628D01*
X251331761Y-48301988D01*
X251756884Y-48934639D01*
X252063251Y-49632561D01*
X252242499Y-50379183D01*
X252277981Y-50862359D01*
X252265001Y-50927612D01*
X252265000Y-128572387D01*
X252275850Y-128626932D01*
X252219422Y-129259193D01*
X252018295Y-129994389D01*
X251690152Y-130682355D01*
X251245374Y-131301328D01*
X250698012Y-131831761D01*
X250065362Y-132256883D01*
X249367439Y-132563251D01*
X248620819Y-132742499D01*
X248137645Y-132777980D01*
X248072388Y-132765000D01*
X226927612Y-132765000D01*
X226873067Y-132775850D01*
X226240807Y-132719422D01*
X225505611Y-132518295D01*
X224817645Y-132190152D01*
X224198672Y-131745374D01*
X223668239Y-131198012D01*
X223243117Y-130565362D01*
X222936749Y-129867439D01*
X222757501Y-129120819D01*
X222722020Y-128637645D01*
X222735000Y-128572388D01*
X222735000Y-128150126D01*
X224230459Y-128150126D01*
X224238394Y-128907799D01*
X224449789Y-129635427D01*
X224849071Y-130279403D01*
X225406823Y-130792282D01*
X226081951Y-131136277D01*
X226824717Y-131286045D01*
X227580397Y-131230551D01*
X228293315Y-130973884D01*
X228910950Y-130534955D01*
X229387795Y-129946100D01*
X229688719Y-129250704D01*
X229791553Y-128500000D01*
X229790941Y-128441538D01*
X229721679Y-128004234D01*
X234115000Y-128004234D01*
X234115000Y-128455766D01*
X234287793Y-128872926D01*
X234607074Y-129192207D01*
X235024234Y-129365000D01*
X235475766Y-129365000D01*
X235892926Y-129192207D01*
X236212207Y-128872926D01*
X236385000Y-128455766D01*
X236385000Y-128004234D01*
X238515000Y-128004234D01*
X238515000Y-128455766D01*
X238687793Y-128872926D01*
X239007074Y-129192207D01*
X239424234Y-129365000D01*
X239875766Y-129365000D01*
X240292926Y-129192207D01*
X240612207Y-128872926D01*
X240752736Y-128533658D01*
X245245206Y-128533658D01*
X245365380Y-129305484D01*
X245697351Y-130012558D01*
X246214430Y-130598038D01*
X246875050Y-131014858D01*
X247626104Y-131229510D01*
X248407215Y-131224739D01*
X249155590Y-131000927D01*
X249811069Y-130576067D01*
X250320956Y-129984314D01*
X250644264Y-129273237D01*
X250755000Y-128500000D01*
X250754178Y-128432689D01*
X250624582Y-127662389D01*
X250283999Y-126959424D01*
X249759805Y-126380304D01*
X249094142Y-125971586D01*
X248340522Y-125766126D01*
X247559527Y-125780440D01*
X246813942Y-126013378D01*
X246163703Y-126446214D01*
X245661083Y-127044152D01*
X245346487Y-127759126D01*
X245245206Y-128533658D01*
X240752736Y-128533658D01*
X240785000Y-128455766D01*
X240785000Y-128004234D01*
X240612207Y-127587074D01*
X240292926Y-127267793D01*
X239875766Y-127095000D01*
X239424234Y-127095000D01*
X239007074Y-127267793D01*
X238687793Y-127587074D01*
X238515000Y-128004234D01*
X236385000Y-128004234D01*
X236212207Y-127587074D01*
X235892926Y-127267793D01*
X235475766Y-127095000D01*
X235024234Y-127095000D01*
X234607074Y-127267793D01*
X234287793Y-127587074D01*
X234115000Y-128004234D01*
X229721679Y-128004234D01*
X229672408Y-127693152D01*
X229356986Y-127004211D01*
X228867914Y-126425472D01*
X228241223Y-125999573D01*
X227523085Y-125757893D01*
X226766409Y-125718237D01*
X226026943Y-125883528D01*
X225359166Y-126241586D01*
X224812278Y-126766033D01*
X224426570Y-127418230D01*
X224230459Y-128150126D01*
X222735000Y-128150126D01*
X222735000Y-105132119D01*
X228433000Y-105132119D01*
X228433000Y-105687881D01*
X228645680Y-106201337D01*
X229038663Y-106594320D01*
X229245513Y-106680000D01*
X229038663Y-106765680D01*
X228645680Y-107158663D01*
X228433000Y-107672119D01*
X228433000Y-108227881D01*
X228645680Y-108741337D01*
X229038663Y-109134320D01*
X229552119Y-109347000D01*
X230107881Y-109347000D01*
X230621337Y-109134320D01*
X231014320Y-108741337D01*
X231227000Y-108227881D01*
X231227000Y-107672119D01*
X231014320Y-107158663D01*
X230621337Y-106765680D01*
X230414487Y-106680000D01*
X230621337Y-106594320D01*
X231014320Y-106201337D01*
X231227000Y-105687881D01*
X231227000Y-105132119D01*
X231014320Y-104618663D01*
X230621337Y-104225680D01*
X230430353Y-104146572D01*
X230561143Y-104092397D01*
X230630608Y-103850213D01*
X229830000Y-103049605D01*
X229029392Y-103850213D01*
X229098857Y-104092397D01*
X229239393Y-104142535D01*
X229038663Y-104225680D01*
X228645680Y-104618663D01*
X228433000Y-105132119D01*
X222735000Y-105132119D01*
X222735000Y-102662302D01*
X228420856Y-102662302D01*
X228448638Y-103217368D01*
X228607603Y-103601143D01*
X228849787Y-103670608D01*
X229650395Y-102870000D01*
X230009605Y-102870000D01*
X230810213Y-103670608D01*
X231052397Y-103601143D01*
X231239144Y-103077698D01*
X231211362Y-102522632D01*
X231052397Y-102138857D01*
X230810213Y-102069392D01*
X230009605Y-102870000D01*
X229650395Y-102870000D01*
X228849787Y-102069392D01*
X228607603Y-102138857D01*
X228420856Y-102662302D01*
X222735000Y-102662302D01*
X222735000Y-87352119D01*
X228433000Y-87352119D01*
X228433000Y-87907881D01*
X228645680Y-88421337D01*
X229038663Y-88814320D01*
X229245513Y-88900000D01*
X229038663Y-88985680D01*
X228645680Y-89378663D01*
X228433000Y-89892119D01*
X228433000Y-90447881D01*
X228645680Y-90961337D01*
X229038663Y-91354320D01*
X229245513Y-91440000D01*
X229038663Y-91525680D01*
X228645680Y-91918663D01*
X228433000Y-92432119D01*
X228433000Y-92987881D01*
X228645680Y-93501337D01*
X229038663Y-93894320D01*
X229245513Y-93980000D01*
X229038663Y-94065680D01*
X228645680Y-94458663D01*
X228433000Y-94972119D01*
X228433000Y-95527881D01*
X228645680Y-96041337D01*
X229038663Y-96434320D01*
X229245513Y-96520000D01*
X229038663Y-96605680D01*
X228645680Y-96998663D01*
X228433000Y-97512119D01*
X228433000Y-98067881D01*
X228645680Y-98581337D01*
X229038663Y-98974320D01*
X229245513Y-99060000D01*
X229038663Y-99145680D01*
X228645680Y-99538663D01*
X228433000Y-100052119D01*
X228433000Y-100607881D01*
X228645680Y-101121337D01*
X229038663Y-101514320D01*
X229229647Y-101593428D01*
X229098857Y-101647603D01*
X229029392Y-101889787D01*
X229830000Y-102690395D01*
X230630608Y-101889787D01*
X230561143Y-101647603D01*
X230420607Y-101597465D01*
X230621337Y-101514320D01*
X231014320Y-101121337D01*
X231227000Y-100607881D01*
X231227000Y-100052119D01*
X231014320Y-99538663D01*
X230621337Y-99145680D01*
X230414487Y-99060000D01*
X230621337Y-98974320D01*
X230970657Y-98625000D01*
X231577767Y-98625000D01*
X231660000Y-98641357D01*
X231742233Y-98625000D01*
X231742237Y-98625000D01*
X231985801Y-98576552D01*
X232262001Y-98392001D01*
X232308587Y-98322280D01*
X235200645Y-95430223D01*
X235302569Y-95676290D01*
X235501995Y-95875716D01*
X233043972Y-98333739D01*
X232965903Y-98385903D01*
X232907226Y-98473720D01*
X232759250Y-98695182D01*
X232686683Y-99060000D01*
X232705000Y-99152086D01*
X232705001Y-117706223D01*
X232705000Y-117706228D01*
X232705000Y-117916702D01*
X232605000Y-118158124D01*
X232605000Y-118569872D01*
X232762569Y-118950278D01*
X233053720Y-119241429D01*
X233434126Y-119398998D01*
X233845874Y-119398998D01*
X234226280Y-119241429D01*
X234517431Y-118950278D01*
X234675000Y-118569872D01*
X234675000Y-118158124D01*
X234575000Y-117916702D01*
X234575000Y-99447289D01*
X236077179Y-97945110D01*
X236150565Y-98122280D01*
X236441716Y-98413431D01*
X236822122Y-98571000D01*
X237233870Y-98571000D01*
X237614276Y-98413431D01*
X237786583Y-98241124D01*
X237842569Y-98376286D01*
X237885000Y-98418717D01*
X237885000Y-98437927D01*
X237885001Y-98437932D01*
X237885000Y-117887172D01*
X237625720Y-117994569D01*
X237334569Y-118285720D01*
X237177000Y-118666126D01*
X237177000Y-119077874D01*
X237334569Y-119458280D01*
X237510289Y-119634000D01*
X237334569Y-119809720D01*
X237177000Y-120190126D01*
X237177000Y-120601874D01*
X237334569Y-120982280D01*
X237625720Y-121273431D01*
X238006126Y-121431000D01*
X238417874Y-121431000D01*
X238798280Y-121273431D01*
X239089431Y-120982280D01*
X239247000Y-120601874D01*
X239247000Y-120541868D01*
X240268274Y-119520595D01*
X240337989Y-119474013D01*
X240388113Y-119398998D01*
X240442691Y-119317315D01*
X240522540Y-119197813D01*
X240570988Y-118954249D01*
X240570988Y-118954245D01*
X240587345Y-118872013D01*
X240570988Y-118789781D01*
X240570988Y-99688711D01*
X240613419Y-99646280D01*
X240770988Y-99265874D01*
X240770988Y-98854126D01*
X240613419Y-98473720D01*
X240322268Y-98182569D01*
X239941862Y-98025000D01*
X239742938Y-98025000D01*
X239755000Y-97995880D01*
X239755000Y-97584132D01*
X239597431Y-97203726D01*
X239306280Y-96912575D01*
X238971118Y-96773747D01*
X239036287Y-96708578D01*
X239106002Y-96661996D01*
X239290553Y-96385796D01*
X239339001Y-96142232D01*
X239339001Y-96142229D01*
X239355358Y-96059996D01*
X239339001Y-95977763D01*
X239339001Y-90036238D01*
X239355359Y-89954001D01*
X239290553Y-89628200D01*
X239152585Y-89421717D01*
X239106002Y-89352000D01*
X239036284Y-89305416D01*
X236217867Y-86487000D01*
X236254711Y-86487000D01*
X240841000Y-91073290D01*
X240841001Y-92143949D01*
X240841000Y-92143953D01*
X240841001Y-116392702D01*
X240741000Y-116634126D01*
X240741000Y-117045874D01*
X240898569Y-117426280D01*
X241189720Y-117717431D01*
X241570126Y-117875000D01*
X241981874Y-117875000D01*
X242362280Y-117717431D01*
X242653431Y-117426280D01*
X242811000Y-117045874D01*
X242811000Y-116634126D01*
X242711000Y-116392704D01*
X242711000Y-90778085D01*
X242729317Y-90685999D01*
X242656750Y-90321181D01*
X242502259Y-90089969D01*
X242450097Y-90011903D01*
X242372031Y-89959741D01*
X242304409Y-89892119D01*
X243673000Y-89892119D01*
X243673000Y-90447881D01*
X243885680Y-90961337D01*
X244278663Y-91354320D01*
X244485513Y-91440000D01*
X244278663Y-91525680D01*
X243885680Y-91918663D01*
X243673000Y-92432119D01*
X243673000Y-92987881D01*
X243885680Y-93501337D01*
X244278663Y-93894320D01*
X244485513Y-93980000D01*
X244278663Y-94065680D01*
X243885680Y-94458663D01*
X243673000Y-94972119D01*
X243673000Y-95527881D01*
X243885680Y-96041337D01*
X244278663Y-96434320D01*
X244485513Y-96520000D01*
X244278663Y-96605680D01*
X243885680Y-96998663D01*
X243673000Y-97512119D01*
X243673000Y-98067881D01*
X243885680Y-98581337D01*
X244278663Y-98974320D01*
X244485513Y-99060000D01*
X244278663Y-99145680D01*
X243885680Y-99538663D01*
X243673000Y-100052119D01*
X243673000Y-100607881D01*
X243885680Y-101121337D01*
X244278663Y-101514320D01*
X244485513Y-101600000D01*
X244278663Y-101685680D01*
X243885680Y-102078663D01*
X243673000Y-102592119D01*
X243673000Y-103147881D01*
X243885680Y-103661337D01*
X244278663Y-104054320D01*
X244485513Y-104140000D01*
X244278663Y-104225680D01*
X243885680Y-104618663D01*
X243673000Y-105132119D01*
X243673000Y-105687881D01*
X243885680Y-106201337D01*
X244278663Y-106594320D01*
X244485513Y-106680000D01*
X244278663Y-106765680D01*
X243885680Y-107158663D01*
X243673000Y-107672119D01*
X243673000Y-108227881D01*
X243885680Y-108741337D01*
X244278663Y-109134320D01*
X244792119Y-109347000D01*
X245347881Y-109347000D01*
X245861337Y-109134320D01*
X246254320Y-108741337D01*
X246467000Y-108227881D01*
X246467000Y-107672119D01*
X246254320Y-107158663D01*
X245861337Y-106765680D01*
X245654487Y-106680000D01*
X245861337Y-106594320D01*
X246254320Y-106201337D01*
X246467000Y-105687881D01*
X246467000Y-105132119D01*
X246254320Y-104618663D01*
X245861337Y-104225680D01*
X245654487Y-104140000D01*
X245861337Y-104054320D01*
X246254320Y-103661337D01*
X246467000Y-103147881D01*
X246467000Y-102592119D01*
X246254320Y-102078663D01*
X245861337Y-101685680D01*
X245654487Y-101600000D01*
X245861337Y-101514320D01*
X246254320Y-101121337D01*
X246467000Y-100607881D01*
X246467000Y-100052119D01*
X246254320Y-99538663D01*
X245861337Y-99145680D01*
X245654487Y-99060000D01*
X245861337Y-98974320D01*
X246254320Y-98581337D01*
X246467000Y-98067881D01*
X246467000Y-97512119D01*
X246254320Y-96998663D01*
X245861337Y-96605680D01*
X245654487Y-96520000D01*
X245861337Y-96434320D01*
X246254320Y-96041337D01*
X246467000Y-95527881D01*
X246467000Y-94972119D01*
X246254320Y-94458663D01*
X245861337Y-94065680D01*
X245654487Y-93980000D01*
X245861337Y-93894320D01*
X246254320Y-93501337D01*
X246467000Y-92987881D01*
X246467000Y-92432119D01*
X246254320Y-91918663D01*
X245861337Y-91525680D01*
X245654487Y-91440000D01*
X245861337Y-91354320D01*
X246254320Y-90961337D01*
X246467000Y-90447881D01*
X246467000Y-89892119D01*
X246254320Y-89378663D01*
X245861337Y-88985680D01*
X245670353Y-88906572D01*
X245801143Y-88852397D01*
X245870608Y-88610213D01*
X245070000Y-87809605D01*
X244269392Y-88610213D01*
X244338857Y-88852397D01*
X244479393Y-88902535D01*
X244278663Y-88985680D01*
X243885680Y-89378663D01*
X243673000Y-89892119D01*
X242304409Y-89892119D01*
X239834592Y-87422302D01*
X243660856Y-87422302D01*
X243688638Y-87977368D01*
X243847603Y-88361143D01*
X244089787Y-88430608D01*
X244890395Y-87630000D01*
X245249605Y-87630000D01*
X246050213Y-88430608D01*
X246292397Y-88361143D01*
X246479144Y-87837698D01*
X246451362Y-87282632D01*
X246292397Y-86898857D01*
X246050213Y-86829392D01*
X245249605Y-87630000D01*
X244890395Y-87630000D01*
X244089787Y-86829392D01*
X243847603Y-86898857D01*
X243660856Y-87422302D01*
X239834592Y-87422302D01*
X239062077Y-86649787D01*
X244269392Y-86649787D01*
X245070000Y-87450395D01*
X245870608Y-86649787D01*
X245801143Y-86407603D01*
X245277698Y-86220856D01*
X244722632Y-86248638D01*
X244338857Y-86407603D01*
X244269392Y-86649787D01*
X239062077Y-86649787D01*
X238899289Y-86487000D01*
X238997881Y-86487000D01*
X239511337Y-86274320D01*
X239904320Y-85881337D01*
X239990000Y-85674487D01*
X240075680Y-85881337D01*
X240468663Y-86274320D01*
X240982119Y-86487000D01*
X241537881Y-86487000D01*
X242051337Y-86274320D01*
X242444320Y-85881337D01*
X242530000Y-85674487D01*
X242615680Y-85881337D01*
X243008663Y-86274320D01*
X243522119Y-86487000D01*
X244077881Y-86487000D01*
X244591337Y-86274320D01*
X244984320Y-85881337D01*
X245197000Y-85367881D01*
X245197000Y-84812119D01*
X244984320Y-84298663D01*
X244591337Y-83905680D01*
X244077881Y-83693000D01*
X243522119Y-83693000D01*
X243008663Y-83905680D01*
X242615680Y-84298663D01*
X242530000Y-84505513D01*
X242444320Y-84298663D01*
X242051337Y-83905680D01*
X241537881Y-83693000D01*
X241043868Y-83693000D01*
X239085010Y-81734143D01*
X239085010Y-57092722D01*
X239127441Y-57050291D01*
X239144721Y-57008571D01*
X242005000Y-57008571D01*
X242005000Y-68721428D01*
X248375000Y-68721428D01*
X248375000Y-57008571D01*
X242005000Y-57008571D01*
X239144721Y-57008571D01*
X239285010Y-56669885D01*
X239285010Y-56258137D01*
X239127441Y-55877731D01*
X238913716Y-55664006D01*
X239127441Y-55450280D01*
X239285010Y-55069874D01*
X239285010Y-54658126D01*
X239127441Y-54277720D01*
X238836290Y-53986569D01*
X238455884Y-53829000D01*
X238044136Y-53829000D01*
X237663730Y-53986569D01*
X237372579Y-54277720D01*
X237215010Y-54658126D01*
X237215010Y-54718132D01*
X237115000Y-54818142D01*
X237115000Y-53854289D01*
X239316031Y-51653259D01*
X239394097Y-51601097D01*
X239600750Y-51291819D01*
X239652162Y-51033352D01*
X245270204Y-51033352D01*
X245389288Y-51798175D01*
X245718246Y-52498832D01*
X246230633Y-53079000D01*
X246885258Y-53492037D01*
X247629496Y-53704742D01*
X248403520Y-53700013D01*
X249145104Y-53478233D01*
X249794634Y-53057228D01*
X250299895Y-52470844D01*
X250620268Y-51766220D01*
X250730000Y-51000000D01*
X250729185Y-50933300D01*
X250600766Y-50169990D01*
X250263273Y-49473403D01*
X249743836Y-48899539D01*
X249084214Y-48494530D01*
X248337432Y-48290934D01*
X247563524Y-48305118D01*
X246824705Y-48535942D01*
X246180366Y-48964851D01*
X245682307Y-49557363D01*
X245370566Y-50265849D01*
X245270204Y-51033352D01*
X239652162Y-51033352D01*
X239655000Y-51019086D01*
X239655000Y-51019082D01*
X239673316Y-50927001D01*
X239655000Y-50834920D01*
X239655000Y-39536541D01*
X239674476Y-39528474D01*
X239990000Y-39212950D01*
X240305524Y-39528474D01*
X240924833Y-39785000D01*
X241595167Y-39785000D01*
X242214476Y-39528474D01*
X242454247Y-39288703D01*
X242790902Y-39288703D01*
X242895687Y-39560745D01*
X243523526Y-39795619D01*
X244193456Y-39772349D01*
X244704313Y-39560745D01*
X244809098Y-39288703D01*
X243800000Y-38279605D01*
X242790902Y-39288703D01*
X242454247Y-39288703D01*
X242688474Y-39054476D01*
X242704423Y-39015972D01*
X243620395Y-38100000D01*
X243979605Y-38100000D01*
X244988703Y-39109098D01*
X245260745Y-39004313D01*
X245495619Y-38376474D01*
X245472349Y-37706544D01*
X245260745Y-37195687D01*
X244988703Y-37090902D01*
X243979605Y-38100000D01*
X243620395Y-38100000D01*
X242704423Y-37184028D01*
X242688474Y-37145524D01*
X242454247Y-36911297D01*
X242790902Y-36911297D01*
X243800000Y-37920395D01*
X244809098Y-36911297D01*
X244704313Y-36639255D01*
X244076474Y-36404381D01*
X243406544Y-36427651D01*
X242895687Y-36639255D01*
X242790902Y-36911297D01*
X242454247Y-36911297D01*
X242214476Y-36671526D01*
X241595167Y-36415000D01*
X240924833Y-36415000D01*
X240305524Y-36671526D01*
X239990000Y-36987050D01*
X239674476Y-36671526D01*
X239055167Y-36415000D01*
X238384833Y-36415000D01*
X237765524Y-36671526D01*
X237450000Y-36987050D01*
X237134476Y-36671526D01*
X236515167Y-36415000D01*
X235844833Y-36415000D01*
X235225524Y-36671526D01*
X234910000Y-36987050D01*
X234594476Y-36671526D01*
X233975167Y-36415000D01*
X233304833Y-36415000D01*
X232685524Y-36671526D01*
X232370000Y-36987050D01*
X232054476Y-36671526D01*
X231435167Y-36415000D01*
X230764833Y-36415000D01*
X230145524Y-36671526D01*
X229671526Y-37145524D01*
X229415000Y-37764833D01*
X229415000Y-38435167D01*
X229671526Y-39054476D01*
X230145524Y-39528474D01*
X230764833Y-39785000D01*
X231435167Y-39785000D01*
X232054476Y-39528474D01*
X232370000Y-39212950D01*
X232685524Y-39528474D01*
X233304833Y-39785000D01*
X233975167Y-39785000D01*
X234594476Y-39528474D01*
X234910000Y-39212950D01*
X235225524Y-39528474D01*
X235844833Y-39785000D01*
X236515167Y-39785000D01*
X237134476Y-39528474D01*
X237450000Y-39212950D01*
X237765524Y-39528474D01*
X237785001Y-39536542D01*
X237785000Y-50539710D01*
X235583970Y-52740741D01*
X235505904Y-52792903D01*
X235453742Y-52870969D01*
X235453741Y-52870970D01*
X235299250Y-53102182D01*
X235226683Y-53467000D01*
X235245001Y-53559091D01*
X235245000Y-84049343D01*
X234995680Y-84298663D01*
X234910000Y-84505513D01*
X234824320Y-84298663D01*
X234431337Y-83905680D01*
X233917881Y-83693000D01*
X233362119Y-83693000D01*
X232848663Y-83905680D01*
X232455680Y-84298663D01*
X232376572Y-84489647D01*
X232322397Y-84358857D01*
X232080213Y-84289392D01*
X231279605Y-85090000D01*
X232080213Y-85890608D01*
X232322397Y-85821143D01*
X232372535Y-85680607D01*
X232455680Y-85881337D01*
X232848663Y-86274320D01*
X233362119Y-86487000D01*
X233856131Y-86487000D01*
X233869714Y-86500583D01*
X233869720Y-86500587D01*
X236762711Y-89393578D01*
X236572569Y-89583720D01*
X236415000Y-89964126D01*
X236415000Y-90024132D01*
X235927721Y-90511412D01*
X235858003Y-90557996D01*
X235811419Y-90627714D01*
X235673451Y-90834197D01*
X235608646Y-91159997D01*
X235625004Y-91242235D01*
X235625003Y-92361286D01*
X235582572Y-92403717D01*
X235425003Y-92784123D01*
X235425003Y-92844128D01*
X231314133Y-96955000D01*
X230970657Y-96955000D01*
X230621337Y-96605680D01*
X230414487Y-96520000D01*
X230621337Y-96434320D01*
X231014320Y-96041337D01*
X231227000Y-95527881D01*
X231227000Y-94972119D01*
X231014320Y-94458663D01*
X230621337Y-94065680D01*
X230414487Y-93980000D01*
X230621337Y-93894320D01*
X231014320Y-93501337D01*
X231227000Y-92987881D01*
X231227000Y-92432119D01*
X231014320Y-91918663D01*
X230621337Y-91525680D01*
X230414487Y-91440000D01*
X230621337Y-91354320D01*
X231014320Y-90961337D01*
X231227000Y-90447881D01*
X231227000Y-89892119D01*
X231014320Y-89378663D01*
X230621337Y-88985680D01*
X230414487Y-88900000D01*
X230621337Y-88814320D01*
X231014320Y-88421337D01*
X231227000Y-87907881D01*
X231227000Y-87352119D01*
X231014320Y-86838663D01*
X230621337Y-86445680D01*
X230107881Y-86233000D01*
X229552119Y-86233000D01*
X229038663Y-86445680D01*
X228645680Y-86838663D01*
X228433000Y-87352119D01*
X222735000Y-87352119D01*
X222735000Y-86070213D01*
X230299392Y-86070213D01*
X230368857Y-86312397D01*
X230892302Y-86499144D01*
X231447368Y-86471362D01*
X231831143Y-86312397D01*
X231900608Y-86070213D01*
X231100000Y-85269605D01*
X230299392Y-86070213D01*
X222735000Y-86070213D01*
X222735000Y-84882302D01*
X229690856Y-84882302D01*
X229718638Y-85437368D01*
X229877603Y-85821143D01*
X230119787Y-85890608D01*
X230920395Y-85090000D01*
X230119787Y-84289392D01*
X229877603Y-84358857D01*
X229690856Y-84882302D01*
X222735000Y-84882302D01*
X222735000Y-84109787D01*
X230299392Y-84109787D01*
X231100000Y-84910395D01*
X231900608Y-84109787D01*
X231831143Y-83867603D01*
X231307698Y-83680856D01*
X230752632Y-83708638D01*
X230368857Y-83867603D01*
X230299392Y-84109787D01*
X222735000Y-84109787D01*
X222735000Y-55457000D01*
X225495000Y-55457000D01*
X225495000Y-70527000D01*
X231865000Y-70527000D01*
X231865000Y-55457000D01*
X225495000Y-55457000D01*
X222735000Y-55457000D01*
X222735000Y-51033352D01*
X224270204Y-51033352D01*
X224389288Y-51798175D01*
X224718246Y-52498832D01*
X225230633Y-53079000D01*
X225885258Y-53492037D01*
X226629496Y-53704742D01*
X227403520Y-53700013D01*
X228145104Y-53478233D01*
X228794634Y-53057228D01*
X229299895Y-52470844D01*
X229620268Y-51766220D01*
X229730000Y-51000000D01*
X229729185Y-50933300D01*
X229600766Y-50169990D01*
X229263273Y-49473403D01*
X228743836Y-48899539D01*
X228084214Y-48494530D01*
X227337432Y-48290934D01*
X226563524Y-48305118D01*
X225824705Y-48535942D01*
X225180366Y-48964851D01*
X224682307Y-49557363D01*
X224370566Y-50265849D01*
X224270204Y-51033352D01*
X222735000Y-51033352D01*
X222735000Y-50927612D01*
X222724150Y-50873067D01*
X222780578Y-50240808D01*
X222981705Y-49505611D01*
X223309846Y-48817649D01*
X223754628Y-48198669D01*
X224301988Y-47668239D01*
X224934639Y-47243116D01*
X225632561Y-46936749D01*
X226379183Y-46757501D01*
X226955948Y-46715147D01*
X227000000Y-46723909D01*
X227277028Y-46668805D01*
X227511881Y-46511881D01*
X227668805Y-46277028D01*
X227710000Y-46069926D01*
X227710000Y-38035964D01*
X227780776Y-37339191D01*
X227979404Y-36705369D01*
X228301418Y-36124438D01*
X228733670Y-35620121D01*
X229258503Y-35213019D01*
X229854473Y-34919766D01*
X230505707Y-34750132D01*
X230864783Y-34722502D01*
X230927612Y-34735000D01*
X230927612Y-34735000D01*
G37*
X230927612Y-34735000D02*
X244072388Y-34735000D01*
X244118959Y-34725736D01*
X244660809Y-34780776D01*
X245294631Y-34979404D01*
X245875562Y-35301418D01*
X246379879Y-35733670D01*
X246786981Y-36258503D01*
X247080234Y-36854473D01*
X247249868Y-37505707D01*
X247290001Y-38027282D01*
X247290000Y-46069925D01*
X247331195Y-46277027D01*
X247488119Y-46511880D01*
X247722972Y-46668805D01*
X248000000Y-46723909D01*
X248038476Y-46716256D01*
X248759192Y-46780578D01*
X249494389Y-46981705D01*
X250182351Y-47309846D01*
X250801331Y-47754628D01*
X251331761Y-48301988D01*
X251756884Y-48934639D01*
X252063251Y-49632561D01*
X252242499Y-50379183D01*
X252277981Y-50862359D01*
X252265001Y-50927612D01*
X252265000Y-128572387D01*
X252275850Y-128626932D01*
X252219422Y-129259193D01*
X252018295Y-129994389D01*
X251690152Y-130682355D01*
X251245374Y-131301328D01*
X250698012Y-131831761D01*
X250065362Y-132256883D01*
X249367439Y-132563251D01*
X248620819Y-132742499D01*
X248137645Y-132777980D01*
X248072388Y-132765000D01*
X226927612Y-132765000D01*
X226873067Y-132775850D01*
X226240807Y-132719422D01*
X225505611Y-132518295D01*
X224817645Y-132190152D01*
X224198672Y-131745374D01*
X223668239Y-131198012D01*
X223243117Y-130565362D01*
X222936749Y-129867439D01*
X222757501Y-129120819D01*
X222722020Y-128637645D01*
X222735000Y-128572388D01*
X222735000Y-128150126D01*
X224230459Y-128150126D01*
X224238394Y-128907799D01*
X224449789Y-129635427D01*
X224849071Y-130279403D01*
X225406823Y-130792282D01*
X226081951Y-131136277D01*
X226824717Y-131286045D01*
X227580397Y-131230551D01*
X228293315Y-130973884D01*
X228910950Y-130534955D01*
X229387795Y-129946100D01*
X229688719Y-129250704D01*
X229791553Y-128500000D01*
X229790941Y-128441538D01*
X229721679Y-128004234D01*
X234115000Y-128004234D01*
X234115000Y-128455766D01*
X234287793Y-128872926D01*
X234607074Y-129192207D01*
X235024234Y-129365000D01*
X235475766Y-129365000D01*
X235892926Y-129192207D01*
X236212207Y-128872926D01*
X236385000Y-128455766D01*
X236385000Y-128004234D01*
X238515000Y-128004234D01*
X238515000Y-128455766D01*
X238687793Y-128872926D01*
X239007074Y-129192207D01*
X239424234Y-129365000D01*
X239875766Y-129365000D01*
X240292926Y-129192207D01*
X240612207Y-128872926D01*
X240752736Y-128533658D01*
X245245206Y-128533658D01*
X245365380Y-129305484D01*
X245697351Y-130012558D01*
X246214430Y-130598038D01*
X246875050Y-131014858D01*
X247626104Y-131229510D01*
X248407215Y-131224739D01*
X249155590Y-131000927D01*
X249811069Y-130576067D01*
X250320956Y-129984314D01*
X250644264Y-129273237D01*
X250755000Y-128500000D01*
X250754178Y-128432689D01*
X250624582Y-127662389D01*
X250283999Y-126959424D01*
X249759805Y-126380304D01*
X249094142Y-125971586D01*
X248340522Y-125766126D01*
X247559527Y-125780440D01*
X246813942Y-126013378D01*
X246163703Y-126446214D01*
X245661083Y-127044152D01*
X245346487Y-127759126D01*
X245245206Y-128533658D01*
X240752736Y-128533658D01*
X240785000Y-128455766D01*
X240785000Y-128004234D01*
X240612207Y-127587074D01*
X240292926Y-127267793D01*
X239875766Y-127095000D01*
X239424234Y-127095000D01*
X239007074Y-127267793D01*
X238687793Y-127587074D01*
X238515000Y-128004234D01*
X236385000Y-128004234D01*
X236212207Y-127587074D01*
X235892926Y-127267793D01*
X235475766Y-127095000D01*
X235024234Y-127095000D01*
X234607074Y-127267793D01*
X234287793Y-127587074D01*
X234115000Y-128004234D01*
X229721679Y-128004234D01*
X229672408Y-127693152D01*
X229356986Y-127004211D01*
X228867914Y-126425472D01*
X228241223Y-125999573D01*
X227523085Y-125757893D01*
X226766409Y-125718237D01*
X226026943Y-125883528D01*
X225359166Y-126241586D01*
X224812278Y-126766033D01*
X224426570Y-127418230D01*
X224230459Y-128150126D01*
X222735000Y-128150126D01*
X222735000Y-105132119D01*
X228433000Y-105132119D01*
X228433000Y-105687881D01*
X228645680Y-106201337D01*
X229038663Y-106594320D01*
X229245513Y-106680000D01*
X229038663Y-106765680D01*
X228645680Y-107158663D01*
X228433000Y-107672119D01*
X228433000Y-108227881D01*
X228645680Y-108741337D01*
X229038663Y-109134320D01*
X229552119Y-109347000D01*
X230107881Y-109347000D01*
X230621337Y-109134320D01*
X231014320Y-108741337D01*
X231227000Y-108227881D01*
X231227000Y-107672119D01*
X231014320Y-107158663D01*
X230621337Y-106765680D01*
X230414487Y-106680000D01*
X230621337Y-106594320D01*
X231014320Y-106201337D01*
X231227000Y-105687881D01*
X231227000Y-105132119D01*
X231014320Y-104618663D01*
X230621337Y-104225680D01*
X230430353Y-104146572D01*
X230561143Y-104092397D01*
X230630608Y-103850213D01*
X229830000Y-103049605D01*
X229029392Y-103850213D01*
X229098857Y-104092397D01*
X229239393Y-104142535D01*
X229038663Y-104225680D01*
X228645680Y-104618663D01*
X228433000Y-105132119D01*
X222735000Y-105132119D01*
X222735000Y-102662302D01*
X228420856Y-102662302D01*
X228448638Y-103217368D01*
X228607603Y-103601143D01*
X228849787Y-103670608D01*
X229650395Y-102870000D01*
X230009605Y-102870000D01*
X230810213Y-103670608D01*
X231052397Y-103601143D01*
X231239144Y-103077698D01*
X231211362Y-102522632D01*
X231052397Y-102138857D01*
X230810213Y-102069392D01*
X230009605Y-102870000D01*
X229650395Y-102870000D01*
X228849787Y-102069392D01*
X228607603Y-102138857D01*
X228420856Y-102662302D01*
X222735000Y-102662302D01*
X222735000Y-87352119D01*
X228433000Y-87352119D01*
X228433000Y-87907881D01*
X228645680Y-88421337D01*
X229038663Y-88814320D01*
X229245513Y-88900000D01*
X229038663Y-88985680D01*
X228645680Y-89378663D01*
X228433000Y-89892119D01*
X228433000Y-90447881D01*
X228645680Y-90961337D01*
X229038663Y-91354320D01*
X229245513Y-91440000D01*
X229038663Y-91525680D01*
X228645680Y-91918663D01*
X228433000Y-92432119D01*
X228433000Y-92987881D01*
X228645680Y-93501337D01*
X229038663Y-93894320D01*
X229245513Y-93980000D01*
X229038663Y-94065680D01*
X228645680Y-94458663D01*
X228433000Y-94972119D01*
X228433000Y-95527881D01*
X228645680Y-96041337D01*
X229038663Y-96434320D01*
X229245513Y-96520000D01*
X229038663Y-96605680D01*
X228645680Y-96998663D01*
X228433000Y-97512119D01*
X228433000Y-98067881D01*
X228645680Y-98581337D01*
X229038663Y-98974320D01*
X229245513Y-99060000D01*
X229038663Y-99145680D01*
X228645680Y-99538663D01*
X228433000Y-100052119D01*
X228433000Y-100607881D01*
X228645680Y-101121337D01*
X229038663Y-101514320D01*
X229229647Y-101593428D01*
X229098857Y-101647603D01*
X229029392Y-101889787D01*
X229830000Y-102690395D01*
X230630608Y-101889787D01*
X230561143Y-101647603D01*
X230420607Y-101597465D01*
X230621337Y-101514320D01*
X231014320Y-101121337D01*
X231227000Y-100607881D01*
X231227000Y-100052119D01*
X231014320Y-99538663D01*
X230621337Y-99145680D01*
X230414487Y-99060000D01*
X230621337Y-98974320D01*
X230970657Y-98625000D01*
X231577767Y-98625000D01*
X231660000Y-98641357D01*
X231742233Y-98625000D01*
X231742237Y-98625000D01*
X231985801Y-98576552D01*
X232262001Y-98392001D01*
X232308587Y-98322280D01*
X235200645Y-95430223D01*
X235302569Y-95676290D01*
X235501995Y-95875716D01*
X233043972Y-98333739D01*
X232965903Y-98385903D01*
X232907226Y-98473720D01*
X232759250Y-98695182D01*
X232686683Y-99060000D01*
X232705000Y-99152086D01*
X232705001Y-117706223D01*
X232705000Y-117706228D01*
X232705000Y-117916702D01*
X232605000Y-118158124D01*
X232605000Y-118569872D01*
X232762569Y-118950278D01*
X233053720Y-119241429D01*
X233434126Y-119398998D01*
X233845874Y-119398998D01*
X234226280Y-119241429D01*
X234517431Y-118950278D01*
X234675000Y-118569872D01*
X234675000Y-118158124D01*
X234575000Y-117916702D01*
X234575000Y-99447289D01*
X236077179Y-97945110D01*
X236150565Y-98122280D01*
X236441716Y-98413431D01*
X236822122Y-98571000D01*
X237233870Y-98571000D01*
X237614276Y-98413431D01*
X237786583Y-98241124D01*
X237842569Y-98376286D01*
X237885000Y-98418717D01*
X237885000Y-98437927D01*
X237885001Y-98437932D01*
X237885000Y-117887172D01*
X237625720Y-117994569D01*
X237334569Y-118285720D01*
X237177000Y-118666126D01*
X237177000Y-119077874D01*
X237334569Y-119458280D01*
X237510289Y-119634000D01*
X237334569Y-119809720D01*
X237177000Y-120190126D01*
X237177000Y-120601874D01*
X237334569Y-120982280D01*
X237625720Y-121273431D01*
X238006126Y-121431000D01*
X238417874Y-121431000D01*
X238798280Y-121273431D01*
X239089431Y-120982280D01*
X239247000Y-120601874D01*
X239247000Y-120541868D01*
X240268274Y-119520595D01*
X240337989Y-119474013D01*
X240388113Y-119398998D01*
X240442691Y-119317315D01*
X240522540Y-119197813D01*
X240570988Y-118954249D01*
X240570988Y-118954245D01*
X240587345Y-118872013D01*
X240570988Y-118789781D01*
X240570988Y-99688711D01*
X240613419Y-99646280D01*
X240770988Y-99265874D01*
X240770988Y-98854126D01*
X240613419Y-98473720D01*
X240322268Y-98182569D01*
X239941862Y-98025000D01*
X239742938Y-98025000D01*
X239755000Y-97995880D01*
X239755000Y-97584132D01*
X239597431Y-97203726D01*
X239306280Y-96912575D01*
X238971118Y-96773747D01*
X239036287Y-96708578D01*
X239106002Y-96661996D01*
X239290553Y-96385796D01*
X239339001Y-96142232D01*
X239339001Y-96142229D01*
X239355358Y-96059996D01*
X239339001Y-95977763D01*
X239339001Y-90036238D01*
X239355359Y-89954001D01*
X239290553Y-89628200D01*
X239152585Y-89421717D01*
X239106002Y-89352000D01*
X239036284Y-89305416D01*
X236217867Y-86487000D01*
X236254711Y-86487000D01*
X240841000Y-91073290D01*
X240841001Y-92143949D01*
X240841000Y-92143953D01*
X240841001Y-116392702D01*
X240741000Y-116634126D01*
X240741000Y-117045874D01*
X240898569Y-117426280D01*
X241189720Y-117717431D01*
X241570126Y-117875000D01*
X241981874Y-117875000D01*
X242362280Y-117717431D01*
X242653431Y-117426280D01*
X242811000Y-117045874D01*
X242811000Y-116634126D01*
X242711000Y-116392704D01*
X242711000Y-90778085D01*
X242729317Y-90685999D01*
X242656750Y-90321181D01*
X242502259Y-90089969D01*
X242450097Y-90011903D01*
X242372031Y-89959741D01*
X242304409Y-89892119D01*
X243673000Y-89892119D01*
X243673000Y-90447881D01*
X243885680Y-90961337D01*
X244278663Y-91354320D01*
X244485513Y-91440000D01*
X244278663Y-91525680D01*
X243885680Y-91918663D01*
X243673000Y-92432119D01*
X243673000Y-92987881D01*
X243885680Y-93501337D01*
X244278663Y-93894320D01*
X244485513Y-93980000D01*
X244278663Y-94065680D01*
X243885680Y-94458663D01*
X243673000Y-94972119D01*
X243673000Y-95527881D01*
X243885680Y-96041337D01*
X244278663Y-96434320D01*
X244485513Y-96520000D01*
X244278663Y-96605680D01*
X243885680Y-96998663D01*
X243673000Y-97512119D01*
X243673000Y-98067881D01*
X243885680Y-98581337D01*
X244278663Y-98974320D01*
X244485513Y-99060000D01*
X244278663Y-99145680D01*
X243885680Y-99538663D01*
X243673000Y-100052119D01*
X243673000Y-100607881D01*
X243885680Y-101121337D01*
X244278663Y-101514320D01*
X244485513Y-101600000D01*
X244278663Y-101685680D01*
X243885680Y-102078663D01*
X243673000Y-102592119D01*
X243673000Y-103147881D01*
X243885680Y-103661337D01*
X244278663Y-104054320D01*
X244485513Y-104140000D01*
X244278663Y-104225680D01*
X243885680Y-104618663D01*
X243673000Y-105132119D01*
X243673000Y-105687881D01*
X243885680Y-106201337D01*
X244278663Y-106594320D01*
X244485513Y-106680000D01*
X244278663Y-106765680D01*
X243885680Y-107158663D01*
X243673000Y-107672119D01*
X243673000Y-108227881D01*
X243885680Y-108741337D01*
X244278663Y-109134320D01*
X244792119Y-109347000D01*
X245347881Y-109347000D01*
X245861337Y-109134320D01*
X246254320Y-108741337D01*
X246467000Y-108227881D01*
X246467000Y-107672119D01*
X246254320Y-107158663D01*
X245861337Y-106765680D01*
X245654487Y-106680000D01*
X245861337Y-106594320D01*
X246254320Y-106201337D01*
X246467000Y-105687881D01*
X246467000Y-105132119D01*
X246254320Y-104618663D01*
X245861337Y-104225680D01*
X245654487Y-104140000D01*
X245861337Y-104054320D01*
X246254320Y-103661337D01*
X246467000Y-103147881D01*
X246467000Y-102592119D01*
X246254320Y-102078663D01*
X245861337Y-101685680D01*
X245654487Y-101600000D01*
X245861337Y-101514320D01*
X246254320Y-101121337D01*
X246467000Y-100607881D01*
X246467000Y-100052119D01*
X246254320Y-99538663D01*
X245861337Y-99145680D01*
X245654487Y-99060000D01*
X245861337Y-98974320D01*
X246254320Y-98581337D01*
X246467000Y-98067881D01*
X246467000Y-97512119D01*
X246254320Y-96998663D01*
X245861337Y-96605680D01*
X245654487Y-96520000D01*
X245861337Y-96434320D01*
X246254320Y-96041337D01*
X246467000Y-95527881D01*
X246467000Y-94972119D01*
X246254320Y-94458663D01*
X245861337Y-94065680D01*
X245654487Y-93980000D01*
X245861337Y-93894320D01*
X246254320Y-93501337D01*
X246467000Y-92987881D01*
X246467000Y-92432119D01*
X246254320Y-91918663D01*
X245861337Y-91525680D01*
X245654487Y-91440000D01*
X245861337Y-91354320D01*
X246254320Y-90961337D01*
X246467000Y-90447881D01*
X246467000Y-89892119D01*
X246254320Y-89378663D01*
X245861337Y-88985680D01*
X245670353Y-88906572D01*
X245801143Y-88852397D01*
X245870608Y-88610213D01*
X245070000Y-87809605D01*
X244269392Y-88610213D01*
X244338857Y-88852397D01*
X244479393Y-88902535D01*
X244278663Y-88985680D01*
X243885680Y-89378663D01*
X243673000Y-89892119D01*
X242304409Y-89892119D01*
X239834592Y-87422302D01*
X243660856Y-87422302D01*
X243688638Y-87977368D01*
X243847603Y-88361143D01*
X244089787Y-88430608D01*
X244890395Y-87630000D01*
X245249605Y-87630000D01*
X246050213Y-88430608D01*
X246292397Y-88361143D01*
X246479144Y-87837698D01*
X246451362Y-87282632D01*
X246292397Y-86898857D01*
X246050213Y-86829392D01*
X245249605Y-87630000D01*
X244890395Y-87630000D01*
X244089787Y-86829392D01*
X243847603Y-86898857D01*
X243660856Y-87422302D01*
X239834592Y-87422302D01*
X239062077Y-86649787D01*
X244269392Y-86649787D01*
X245070000Y-87450395D01*
X245870608Y-86649787D01*
X245801143Y-86407603D01*
X245277698Y-86220856D01*
X244722632Y-86248638D01*
X244338857Y-86407603D01*
X244269392Y-86649787D01*
X239062077Y-86649787D01*
X238899289Y-86487000D01*
X238997881Y-86487000D01*
X239511337Y-86274320D01*
X239904320Y-85881337D01*
X239990000Y-85674487D01*
X240075680Y-85881337D01*
X240468663Y-86274320D01*
X240982119Y-86487000D01*
X241537881Y-86487000D01*
X242051337Y-86274320D01*
X242444320Y-85881337D01*
X242530000Y-85674487D01*
X242615680Y-85881337D01*
X243008663Y-86274320D01*
X243522119Y-86487000D01*
X244077881Y-86487000D01*
X244591337Y-86274320D01*
X244984320Y-85881337D01*
X245197000Y-85367881D01*
X245197000Y-84812119D01*
X244984320Y-84298663D01*
X244591337Y-83905680D01*
X244077881Y-83693000D01*
X243522119Y-83693000D01*
X243008663Y-83905680D01*
X242615680Y-84298663D01*
X242530000Y-84505513D01*
X242444320Y-84298663D01*
X242051337Y-83905680D01*
X241537881Y-83693000D01*
X241043868Y-83693000D01*
X239085010Y-81734143D01*
X239085010Y-57092722D01*
X239127441Y-57050291D01*
X239144721Y-57008571D01*
X242005000Y-57008571D01*
X242005000Y-68721428D01*
X248375000Y-68721428D01*
X248375000Y-57008571D01*
X242005000Y-57008571D01*
X239144721Y-57008571D01*
X239285010Y-56669885D01*
X239285010Y-56258137D01*
X239127441Y-55877731D01*
X238913716Y-55664006D01*
X239127441Y-55450280D01*
X239285010Y-55069874D01*
X239285010Y-54658126D01*
X239127441Y-54277720D01*
X238836290Y-53986569D01*
X238455884Y-53829000D01*
X238044136Y-53829000D01*
X237663730Y-53986569D01*
X237372579Y-54277720D01*
X237215010Y-54658126D01*
X237215010Y-54718132D01*
X237115000Y-54818142D01*
X237115000Y-53854289D01*
X239316031Y-51653259D01*
X239394097Y-51601097D01*
X239600750Y-51291819D01*
X239652162Y-51033352D01*
X245270204Y-51033352D01*
X245389288Y-51798175D01*
X245718246Y-52498832D01*
X246230633Y-53079000D01*
X246885258Y-53492037D01*
X247629496Y-53704742D01*
X248403520Y-53700013D01*
X249145104Y-53478233D01*
X249794634Y-53057228D01*
X250299895Y-52470844D01*
X250620268Y-51766220D01*
X250730000Y-51000000D01*
X250729185Y-50933300D01*
X250600766Y-50169990D01*
X250263273Y-49473403D01*
X249743836Y-48899539D01*
X249084214Y-48494530D01*
X248337432Y-48290934D01*
X247563524Y-48305118D01*
X246824705Y-48535942D01*
X246180366Y-48964851D01*
X245682307Y-49557363D01*
X245370566Y-50265849D01*
X245270204Y-51033352D01*
X239652162Y-51033352D01*
X239655000Y-51019086D01*
X239655000Y-51019082D01*
X239673316Y-50927001D01*
X239655000Y-50834920D01*
X239655000Y-39536541D01*
X239674476Y-39528474D01*
X239990000Y-39212950D01*
X240305524Y-39528474D01*
X240924833Y-39785000D01*
X241595167Y-39785000D01*
X242214476Y-39528474D01*
X242454247Y-39288703D01*
X242790902Y-39288703D01*
X242895687Y-39560745D01*
X243523526Y-39795619D01*
X244193456Y-39772349D01*
X244704313Y-39560745D01*
X244809098Y-39288703D01*
X243800000Y-38279605D01*
X242790902Y-39288703D01*
X242454247Y-39288703D01*
X242688474Y-39054476D01*
X242704423Y-39015972D01*
X243620395Y-38100000D01*
X243979605Y-38100000D01*
X244988703Y-39109098D01*
X245260745Y-39004313D01*
X245495619Y-38376474D01*
X245472349Y-37706544D01*
X245260745Y-37195687D01*
X244988703Y-37090902D01*
X243979605Y-38100000D01*
X243620395Y-38100000D01*
X242704423Y-37184028D01*
X242688474Y-37145524D01*
X242454247Y-36911297D01*
X242790902Y-36911297D01*
X243800000Y-37920395D01*
X244809098Y-36911297D01*
X244704313Y-36639255D01*
X244076474Y-36404381D01*
X243406544Y-36427651D01*
X242895687Y-36639255D01*
X242790902Y-36911297D01*
X242454247Y-36911297D01*
X242214476Y-36671526D01*
X241595167Y-36415000D01*
X240924833Y-36415000D01*
X240305524Y-36671526D01*
X239990000Y-36987050D01*
X239674476Y-36671526D01*
X239055167Y-36415000D01*
X238384833Y-36415000D01*
X237765524Y-36671526D01*
X237450000Y-36987050D01*
X237134476Y-36671526D01*
X236515167Y-36415000D01*
X235844833Y-36415000D01*
X235225524Y-36671526D01*
X234910000Y-36987050D01*
X234594476Y-36671526D01*
X233975167Y-36415000D01*
X233304833Y-36415000D01*
X232685524Y-36671526D01*
X232370000Y-36987050D01*
X232054476Y-36671526D01*
X231435167Y-36415000D01*
X230764833Y-36415000D01*
X230145524Y-36671526D01*
X229671526Y-37145524D01*
X229415000Y-37764833D01*
X229415000Y-38435167D01*
X229671526Y-39054476D01*
X230145524Y-39528474D01*
X230764833Y-39785000D01*
X231435167Y-39785000D01*
X232054476Y-39528474D01*
X232370000Y-39212950D01*
X232685524Y-39528474D01*
X233304833Y-39785000D01*
X233975167Y-39785000D01*
X234594476Y-39528474D01*
X234910000Y-39212950D01*
X235225524Y-39528474D01*
X235844833Y-39785000D01*
X236515167Y-39785000D01*
X237134476Y-39528474D01*
X237450000Y-39212950D01*
X237765524Y-39528474D01*
X237785001Y-39536542D01*
X237785000Y-50539710D01*
X235583970Y-52740741D01*
X235505904Y-52792903D01*
X235453742Y-52870969D01*
X235453741Y-52870970D01*
X235299250Y-53102182D01*
X235226683Y-53467000D01*
X235245001Y-53559091D01*
X235245000Y-84049343D01*
X234995680Y-84298663D01*
X234910000Y-84505513D01*
X234824320Y-84298663D01*
X234431337Y-83905680D01*
X233917881Y-83693000D01*
X233362119Y-83693000D01*
X232848663Y-83905680D01*
X232455680Y-84298663D01*
X232376572Y-84489647D01*
X232322397Y-84358857D01*
X232080213Y-84289392D01*
X231279605Y-85090000D01*
X232080213Y-85890608D01*
X232322397Y-85821143D01*
X232372535Y-85680607D01*
X232455680Y-85881337D01*
X232848663Y-86274320D01*
X233362119Y-86487000D01*
X233856131Y-86487000D01*
X233869714Y-86500583D01*
X233869720Y-86500587D01*
X236762711Y-89393578D01*
X236572569Y-89583720D01*
X236415000Y-89964126D01*
X236415000Y-90024132D01*
X235927721Y-90511412D01*
X235858003Y-90557996D01*
X235811419Y-90627714D01*
X235673451Y-90834197D01*
X235608646Y-91159997D01*
X235625004Y-91242235D01*
X235625003Y-92361286D01*
X235582572Y-92403717D01*
X235425003Y-92784123D01*
X235425003Y-92844128D01*
X231314133Y-96955000D01*
X230970657Y-96955000D01*
X230621337Y-96605680D01*
X230414487Y-96520000D01*
X230621337Y-96434320D01*
X231014320Y-96041337D01*
X231227000Y-95527881D01*
X231227000Y-94972119D01*
X231014320Y-94458663D01*
X230621337Y-94065680D01*
X230414487Y-93980000D01*
X230621337Y-93894320D01*
X231014320Y-93501337D01*
X231227000Y-92987881D01*
X231227000Y-92432119D01*
X231014320Y-91918663D01*
X230621337Y-91525680D01*
X230414487Y-91440000D01*
X230621337Y-91354320D01*
X231014320Y-90961337D01*
X231227000Y-90447881D01*
X231227000Y-89892119D01*
X231014320Y-89378663D01*
X230621337Y-88985680D01*
X230414487Y-88900000D01*
X230621337Y-88814320D01*
X231014320Y-88421337D01*
X231227000Y-87907881D01*
X231227000Y-87352119D01*
X231014320Y-86838663D01*
X230621337Y-86445680D01*
X230107881Y-86233000D01*
X229552119Y-86233000D01*
X229038663Y-86445680D01*
X228645680Y-86838663D01*
X228433000Y-87352119D01*
X222735000Y-87352119D01*
X222735000Y-86070213D01*
X230299392Y-86070213D01*
X230368857Y-86312397D01*
X230892302Y-86499144D01*
X231447368Y-86471362D01*
X231831143Y-86312397D01*
X231900608Y-86070213D01*
X231100000Y-85269605D01*
X230299392Y-86070213D01*
X222735000Y-86070213D01*
X222735000Y-84882302D01*
X229690856Y-84882302D01*
X229718638Y-85437368D01*
X229877603Y-85821143D01*
X230119787Y-85890608D01*
X230920395Y-85090000D01*
X230119787Y-84289392D01*
X229877603Y-84358857D01*
X229690856Y-84882302D01*
X222735000Y-84882302D01*
X222735000Y-84109787D01*
X230299392Y-84109787D01*
X231100000Y-84910395D01*
X231900608Y-84109787D01*
X231831143Y-83867603D01*
X231307698Y-83680856D01*
X230752632Y-83708638D01*
X230368857Y-83867603D01*
X230299392Y-84109787D01*
X222735000Y-84109787D01*
X222735000Y-55457000D01*
X225495000Y-55457000D01*
X225495000Y-70527000D01*
X231865000Y-70527000D01*
X231865000Y-55457000D01*
X225495000Y-55457000D01*
X222735000Y-55457000D01*
X222735000Y-51033352D01*
X224270204Y-51033352D01*
X224389288Y-51798175D01*
X224718246Y-52498832D01*
X225230633Y-53079000D01*
X225885258Y-53492037D01*
X226629496Y-53704742D01*
X227403520Y-53700013D01*
X228145104Y-53478233D01*
X228794634Y-53057228D01*
X229299895Y-52470844D01*
X229620268Y-51766220D01*
X229730000Y-51000000D01*
X229729185Y-50933300D01*
X229600766Y-50169990D01*
X229263273Y-49473403D01*
X228743836Y-48899539D01*
X228084214Y-48494530D01*
X227337432Y-48290934D01*
X226563524Y-48305118D01*
X225824705Y-48535942D01*
X225180366Y-48964851D01*
X224682307Y-49557363D01*
X224370566Y-50265849D01*
X224270204Y-51033352D01*
X222735000Y-51033352D01*
X222735000Y-50927612D01*
X222724150Y-50873067D01*
X222780578Y-50240808D01*
X222981705Y-49505611D01*
X223309846Y-48817649D01*
X223754628Y-48198669D01*
X224301988Y-47668239D01*
X224934639Y-47243116D01*
X225632561Y-46936749D01*
X226379183Y-46757501D01*
X226955948Y-46715147D01*
X227000000Y-46723909D01*
X227277028Y-46668805D01*
X227511881Y-46511881D01*
X227668805Y-46277028D01*
X227710000Y-46069926D01*
X227710000Y-38035964D01*
X227780776Y-37339191D01*
X227979404Y-36705369D01*
X228301418Y-36124438D01*
X228733670Y-35620121D01*
X229258503Y-35213019D01*
X229854473Y-34919766D01*
X230505707Y-34750132D01*
X230864783Y-34722502D01*
X230927612Y-34735000D01*
G04 #@! TD*
M02*
