G04 #@! TF.GenerationSoftware,KiCad,Pcbnew,5.0.2+dfsg1-1*
G04 #@! TF.CreationDate,2020-08-23T12:27:18+02:00*
G04 #@! TF.ProjectId,programmer,70726f67-7261-46d6-9d65-722e6b696361,rev?*
G04 #@! TF.SameCoordinates,Original*
G04 #@! TF.FileFunction,Profile,NP*
%FSLAX46Y46*%
G04 Gerber Fmt 4.6, Leading zero omitted, Abs format (unit mm)*
G04 Created by KiCad (PCBNEW 5.0.2+dfsg1-1) date Sun 23 Aug 2020 12:27:18 PM CEST*
%MOMM*%
%LPD*%
G01*
G04 APERTURE LIST*
%ADD10C,0.150000*%
%ADD11C,0.200000*%
G04 APERTURE END LIST*
D10*
X253000000Y-128500000D02*
X253000000Y-51000000D01*
X156000000Y-51000000D02*
X156000000Y-128500000D01*
X187000000Y-58000000D02*
X187000000Y-121500000D01*
X189000000Y-121500000D02*
X189000000Y-58000000D01*
X220000000Y-58000000D02*
X220000000Y-121500000D01*
X222000000Y-121500000D02*
X222000000Y-58000000D01*
D11*
X222000000Y-121500000D02*
G75*
G02X220000000Y-121500000I-1000000J0D01*
G01*
X189000000Y-121500000D02*
G75*
G02X187000000Y-121500000I-1000000J0D01*
G01*
X187000000Y-128500000D02*
G75*
G02X189000000Y-128500000I1000000J0D01*
G01*
X220000000Y-128500000D02*
G75*
G02X222000000Y-128500000I1000000J0D01*
G01*
X220000000Y-58000000D02*
G75*
G02X222000000Y-58000000I1000000J0D01*
G01*
X187000000Y-58000000D02*
G75*
G02X189000000Y-58000000I1000000J0D01*
G01*
X222000000Y-51000000D02*
G75*
G02X220000000Y-51000000I-1000000J0D01*
G01*
X189000000Y-51000000D02*
G75*
G02X187000000Y-51000000I-1000000J0D01*
G01*
D10*
X253000000Y-128500000D02*
G75*
G02X248000000Y-133500000I-5000000J0D01*
G01*
X227000000Y-38000000D02*
G75*
G02X231000000Y-34000000I4000000J0D01*
G01*
X227000000Y-38000000D02*
X227000000Y-46000000D01*
X248000000Y-46000000D02*
G75*
G02X253000000Y-51000000I0J-5000000D01*
G01*
X248000000Y-46000000D02*
X248000000Y-38000000D01*
X222000000Y-51000000D02*
G75*
G02X227000000Y-46000000I5000000J0D01*
G01*
X227000000Y-133500000D02*
G75*
G02X222000000Y-128500000I0J5000000D01*
G01*
D11*
X227000000Y-133500000D02*
X248000000Y-133500000D01*
X244000000Y-34000000D02*
X231000000Y-34000000D01*
X250000000Y-128500000D02*
G75*
G03X250000000Y-128500000I-2000000J0D01*
G01*
D10*
X229061553Y-128500000D02*
G75*
G03X229061553Y-128500000I-2061553J0D01*
G01*
X250000000Y-51000000D02*
G75*
G03X250000000Y-51000000I-2000000J0D01*
G01*
X229000000Y-51000000D02*
G75*
G03X229000000Y-51000000I-2000000J0D01*
G01*
X244000000Y-34000000D02*
G75*
G02X248000000Y-38000000I0J-4000000D01*
G01*
X220000000Y-128500000D02*
G75*
G02X215000000Y-133500000I-5000000J0D01*
G01*
X194000000Y-38000000D02*
G75*
G02X198000000Y-34000000I4000000J0D01*
G01*
X194000000Y-38000000D02*
X194000000Y-46000000D01*
X215000000Y-46000000D02*
G75*
G02X220000000Y-51000000I0J-5000000D01*
G01*
X215000000Y-46000000D02*
X215000000Y-38000000D01*
X189000000Y-51000000D02*
G75*
G02X194000000Y-46000000I5000000J0D01*
G01*
X194000000Y-133500000D02*
G75*
G02X189000000Y-128500000I0J5000000D01*
G01*
D11*
X194000000Y-133500000D02*
X215000000Y-133500000D01*
X211000000Y-34000000D02*
X198000000Y-34000000D01*
X217000000Y-128500000D02*
G75*
G03X217000000Y-128500000I-2000000J0D01*
G01*
D10*
X196061553Y-128500000D02*
G75*
G03X196061553Y-128500000I-2061553J0D01*
G01*
X217000000Y-51000000D02*
G75*
G03X217000000Y-51000000I-2000000J0D01*
G01*
X196000000Y-51000000D02*
G75*
G03X196000000Y-51000000I-2000000J0D01*
G01*
X211000000Y-34000000D02*
G75*
G02X215000000Y-38000000I0J-4000000D01*
G01*
X161000000Y-133500000D02*
G75*
G02X156000000Y-128500000I0J5000000D01*
G01*
X187000000Y-128500000D02*
G75*
G02X182000000Y-133500000I-5000000J0D01*
G01*
X161000000Y-38000000D02*
X161000000Y-46000000D01*
X182000000Y-46000000D02*
X182000000Y-38000000D01*
X156000000Y-51000000D02*
G75*
G02X161000000Y-46000000I5000000J0D01*
G01*
X182000000Y-46000000D02*
G75*
G02X187000000Y-51000000I0J-5000000D01*
G01*
X161000000Y-38000000D02*
G75*
G02X165000000Y-34000000I4000000J0D01*
G01*
X178000000Y-34000000D02*
G75*
G02X182000000Y-38000000I0J-4000000D01*
G01*
X163000000Y-51000000D02*
G75*
G03X163000000Y-51000000I-2000000J0D01*
G01*
X184000000Y-51000000D02*
G75*
G03X184000000Y-51000000I-2000000J0D01*
G01*
X163061553Y-128500000D02*
G75*
G03X163061553Y-128500000I-2061553J0D01*
G01*
D11*
X184000000Y-128500000D02*
G75*
G03X184000000Y-128500000I-2000000J0D01*
G01*
X178000000Y-34000000D02*
X165000000Y-34000000D01*
X161000000Y-133500000D02*
X182000000Y-133500000D01*
M02*
